<?xml version="1.0" encoding="UTF-8" standalone="no"?>
<!DOCTYPE svg PUBLIC "-//W3C//DTD SVG 1.1//EN"
 "http://www.w3.org/Graphics/SVG/1.1/DTD/svg11.dtd">
<!-- Generated by graphviz version 2.26.3 (20100126.1600)
 -->
<!-- Title: G Pages: 1 -->
<svg width="362pt" height="260pt"
 viewBox="0.00 0.00 362.00 260.00" xmlns="http://www.w3.org/2000/svg" xmlns:xlink="http://www.w3.org/1999/xlink">
<g id="graph1" class="graph" transform="scale(1 1) rotate(0) translate(4 256)">
<title>G</title>
<polygon fill="white" stroke="white" points="-4,5 -4,-256 359,-256 359,5 -4,5"/>
<!-- main -->
<g id="node1" class="node"><title>main</title>
<ellipse fill="none" stroke="black" cx="189" cy="-234" rx="34.2406" ry="18"/>
<text text-anchor="middle" x="189" y="-229.9" font-family="Times Roman,serif" font-size="14.00">main</text>
</g>
<!-- parse -->
<g id="node3" class="node"><title>parse</title>
<ellipse fill="none" stroke="black" cx="138" cy="-162" rx="37.0233" ry="18"/>
<text text-anchor="middle" x="138" y="-157.9" font-family="Times Roman,serif" font-size="14.00">parse</text>
</g>
<!-- main&#45;&gt;parse -->
<g id="edge2" class="edge"><title>main&#45;&gt;parse</title>
<path fill="none" stroke="black" d="M176.914,-216.937C170.717,-208.189 163.043,-197.354 156.151,-187.626"/>
<polygon fill="black" stroke="black" points="158.99,-185.578 150.354,-179.441 153.278,-189.624 158.99,-185.578"/>
</g>
<!-- init -->
<g id="node6" class="node"><title>init</title>
<ellipse fill="none" stroke="black" cx="71" cy="-90" rx="27.1004" ry="18"/>
<text text-anchor="middle" x="71" y="-85.9" font-family="Times Roman,serif" font-size="14.00">init</text>
</g>
<!-- main&#45;&gt;init -->
<g id="edge5" class="edge"><title>main&#45;&gt;init</title>
<path fill="none" stroke="black" d="M159.595,-224.933C137.709,-216.676 108.825,-202.315 92,-180 78.6148,-162.247 73.5673,-137.342 71.7531,-118.231"/>
<polygon fill="black" stroke="black" points="75.2278,-117.747 71.0325,-108.019 68.2451,-118.24 75.2278,-117.747"/>
</g>
<!-- cleanup -->
<g id="node8" class="node"><title>cleanup</title>
<ellipse fill="none" stroke="black" cx="241" cy="-162" rx="48.1403" ry="18"/>
<text text-anchor="middle" x="241" y="-157.9" font-family="Times Roman,serif" font-size="14.00">cleanup</text>
</g>
<!-- main&#45;&gt;cleanup -->
<g id="edge7" class="edge"><title>main&#45;&gt;cleanup</title>
<path fill="none" stroke="black" d="M201.323,-216.937C207.642,-208.189 215.466,-197.354 222.493,-187.626"/>
<polygon fill="black" stroke="black" points="225.386,-189.597 228.404,-179.441 219.712,-185.498 225.386,-189.597"/>
</g>
<!-- printf -->
<g id="node12" class="node"><title>printf</title>
<ellipse fill="none" stroke="black" cx="317" cy="-18" rx="37.0233" ry="18"/>
<text text-anchor="middle" x="317" y="-13.9" font-family="Times Roman,serif" font-size="14.00">printf</text>
</g>
<!-- main&#45;&gt;printf -->
<g id="edge15" class="edge"><title>main&#45;&gt;printf</title>
<path fill="none" stroke="black" d="M220.456,-227.139C245.697,-219.89 279.815,-205.809 298,-180 325.963,-140.312 324.994,-81.1244 321.303,-46.3556"/>
<polygon fill="black" stroke="black" points="324.723,-45.4854 320.042,-35.9807 317.774,-46.3299 324.723,-45.4854"/>
</g>
<!-- execute -->
<g id="node4" class="node"><title>execute</title>
<ellipse fill="none" stroke="black" cx="186" cy="-90" rx="48.8383" ry="18"/>
<text text-anchor="middle" x="186" y="-85.9" font-family="Times Roman,serif" font-size="14.00">execute</text>
</g>
<!-- parse&#45;&gt;execute -->
<g id="edge3" class="edge"><title>parse&#45;&gt;execute</title>
<path fill="none" stroke="black" d="M149.619,-144.571C155.355,-135.968 162.39,-125.416 168.739,-115.891"/>
<polygon fill="black" stroke="black" points="171.686,-117.78 174.321,-107.518 165.862,-113.897 171.686,-117.78"/>
</g>
<!-- make_string -->
<g id="node10" class="node"><title>make_string</title>
<ellipse fill="none" stroke="black" cx="70" cy="-18" rx="70.1831" ry="18"/>
<text text-anchor="middle" x="70" y="-13.9" font-family="Times Roman,serif" font-size="14.00">make_string</text>
</g>
<!-- execute&#45;&gt;make_string -->
<g id="edge9" class="edge"><title>execute&#45;&gt;make_string</title>
<path fill="none" stroke="black" d="M160.83,-74.3771C144.828,-64.4451 123.856,-51.4278 106.096,-40.4041"/>
<polygon fill="black" stroke="black" points="107.486,-37.1481 97.1442,-34.8481 103.795,-43.0955 107.486,-37.1481"/>
</g>
<!-- execute&#45;&gt;printf -->
<g id="edge11" class="edge"><title>execute&#45;&gt;printf</title>
<path fill="none" stroke="black" d="M213.462,-74.9064C233.813,-63.7212 261.661,-48.4155 283.35,-36.4946"/>
<polygon fill="black" stroke="black" points="285.151,-39.4986 292.229,-31.6147 281.779,-33.3641 285.151,-39.4986"/>
</g>
<!-- compare -->
<g id="node16" class="node"><title>compare</title>
<ellipse fill="none" stroke="black" cx="210" cy="-18" rx="52.1162" ry="18"/>
<text text-anchor="middle" x="210" y="-13.9" font-family="Times Roman,serif" font-size="14.00">compare</text>
</g>
<!-- execute&#45;&gt;compare -->
<g id="edge17" class="edge"><title>execute&#45;&gt;compare</title>
<path fill="none" stroke="black" d="M192.056,-71.8314C194.72,-63.8406 197.906,-54.2819 200.85,-45.4514"/>
<polygon fill="black" stroke="black" points="204.187,-46.5071 204.029,-35.9134 197.546,-44.2934 204.187,-46.5071"/>
</g>
<!-- init&#45;&gt;make_string -->
<g id="edge13" class="edge"><title>init&#45;&gt;make_string</title>
<path fill="none" stroke="black" d="M70.7477,-71.8314C70.6407,-64.131 70.5135,-54.9743 70.3947,-46.4166"/>
<polygon fill="black" stroke="black" points="73.8944,-46.3637 70.2557,-36.4133 66.8951,-46.4609 73.8944,-46.3637"/>
</g>
</g>
</svg>
