<svg width="511pt" height="352" viewBox="0 0 511 264" xmlns="http://www.w3.org/2000/svg"><g class="graph" transform="translate(4 260)"><path fill="#fff" d="M-4 4v-264h511V4H-4z"/><g class="node"><path fill="none" stroke="#000" d="M282-219.5v-36h218v36H282z"/><text text-anchor="middle" x="321" y="-233.8" font-family="Times,serif" font-size="14">Child Zone</text><path fill="none" stroke="#000" d="M360-219.5v-36"/><text text-anchor="middle" x="430" y="-233.8" font-family="Times,serif" font-size="14">DNSKEY Public KSK</text></g><g class="node"><path fill="none" stroke="#000" d="M143-146.5v-36h360v36H143z"/><text text-anchor="middle" x="180" y="-160.8" font-family="Times,serif" font-size="14">TLD Zone</text><path fill="none" stroke="#000" d="M217-146.5v-36"/><text text-anchor="middle" x="287" y="-160.8" font-family="Times,serif" font-size="14">DNSKEY Public KSK</text><path fill="none" stroke="#000" d="M357-146.5v-36"/><text text-anchor="middle" x="430" y="-160.8" font-family="Times,serif" font-size="14">DNSKEY Hashed KSK</text></g><g class="edge"><path fill="none" stroke="#000" d="M430-219v25.875"/><path stroke="#000" d="M433.5-193l-3.5 10-3.5-10h7z"/></g><g class="node"><path fill="none" stroke="#000" d="M0-73.5v-36h360v36H0z"/><text text-anchor="middle" x="37" y="-87.8" font-family="Times,serif" font-size="14">Root Zone</text><path fill="none" stroke="#000" d="M74-73.5v-36"/><text text-anchor="middle" x="144" y="-87.8" font-family="Times,serif" font-size="14">DNSKEY Public KSK</text><path fill="none" stroke="#000" d="M214-73.5v-36"/><text text-anchor="middle" x="287" y="-87.8" font-family="Times,serif" font-size="14">DNSKEY Hashed KSK</text></g><g class="edge"><path fill="none" stroke="#000" d="M287-146v25.875"/><path stroke="#000" d="M290.5-120l-3.5 10-3.5-10h7z"/></g><g class="node"><path fill="none" stroke="#000" d="M65.5-.5v-36h157v36h-157z"/><text text-anchor="middle" x="144" y="-14.8" font-family="Times,serif" font-size="14">Private Root Signing Key</text></g><g class="edge"><path fill="none" stroke="#000" d="M144-73v26.12"/><path stroke="#000" d="M147.5-46.848l-3.5 10-3.5-10h7z"/></g></g></svg>