<svg width="415pt" height="451pt" viewBox="0 0 415.19 451" xmlns="http://www.w3.org/2000/svg"><g class="graph" transform="translate(4 447)"><path fill="#fff" d="M-4 4v-451h415.188V4H-4z"/><g class="node"><ellipse fill="#d3d3d3" stroke="#000" cx="230.443" cy="-338" rx="38.993" ry="18"/><text text-anchor="middle" x="230.443" y="-334.3" font-family="Times,serif" font-size="14">NGINX</text></g><g class="node"><ellipse fill="#d3d3d3" stroke="#000" cx="252.443" cy="-265" rx="57.391" ry="18"/><text text-anchor="middle" x="252.443" y="-261.3" font-family="Times,serif" font-size="14">NGINX Unit</text></g><g class="edge"><path fill="none" stroke="#000" d="M235.769-319.813l8.377 27.036"/><path stroke="#000" d="M247.55-293.617l-.383 10.588-6.303-8.516 6.686-2.072z"/></g><g class="node"><ellipse fill="#d3d3d3" stroke="#000" cx="345.443" cy="-192" rx="61.99" ry="18"/><text text-anchor="middle" x="345.443" y="-188.3" font-family="Times,serif" font-size="14">Application(s)</text></g><g class="edge"><path fill="none" stroke="#000" d="M273.547-247.889l42.626 32.543"/><path stroke="#000" d="M318.599-217.897l5.825 8.85-10.072-3.286 4.247-5.564z"/></g><g class="node"><ellipse fill="#d3d3d3" stroke="#000" cx="192.443" cy="-105" rx="27.895" ry="18"/><text text-anchor="middle" x="192.443" y="-101.3" font-family="Times,serif" font-size="14">Base</text></g><g class="edge"><path fill="none" stroke="#000" d="M231.75-248.067c-11.001 9.717-23.605 23.124-30.307 38.067-10.911 24.332-12.253 55.05-11.421 76.776"/><path stroke="#000" d="M193.527-133.238l-2.932 10.181-4.057-9.787 6.989-.394z"/><text text-anchor="middle" x="237.943" y="-188.3" font-family="Times,serif" font-size="14">Daemontools</text></g><g class="edge"><path fill="none" stroke="#000" d="M318.09-175.804l-96.037 53.354"/><path stroke="#000" d="M223.626-119.32l-10.441 1.797 7.041-7.916 3.4 6.119z"/></g><g class="node"><ellipse fill="#d3d3d3" stroke="#000" cx="125.443" cy="-18" rx="34.394" ry="18"/><text text-anchor="middle" x="125.443" y="-14.3" font-family="Times,serif" font-size="14">Kernel</text></g><g class="edge"><path fill="none" stroke="#000" d="M184.457-87.444c-5.274 10.14-12.725 23.111-21.014 33.444-3.739 4.661-8.105 9.267-12.519 13.53"/><path stroke="#000" d="M153.275-37.877l-9.723 4.208 4.976-9.353 4.747 5.145z"/></g><g class="node"><ellipse fill="none" stroke="#000" cx="230.443" cy="-425" rx="81.786" ry="18"/><text text-anchor="middle" x="230.443" y="-421.3" font-family="Times,serif" font-size="14">DNS(SEC) / DANE</text></g><g class="edge"><path fill="none" stroke="#000" d="M230.443-406.799v40.562"/><path stroke="#000" d="M233.944-366.175l-3.501 10-3.499-10h7z"/><text text-anchor="middle" x="304.943" y="-377.8" font-family="Times,serif" font-size="14">TLS certificate / TLSA RR</text></g><g class="node"><ellipse fill="none" stroke="#000" cx="345.443" cy="-338" rx="58.49" ry="18"/><text text-anchor="middle" x="345.443" y="-334.3" font-family="Times,serif" font-size="14">Buildbot (CI)</text></g><g class="edge"><path fill="none" stroke="#000" d="M324.34-320.889l-42.918 32.766"/><path stroke="#000" d="M283.215-285.089l-10.072 3.286 5.824-8.85 4.248 5.564z"/></g><g class="edge"><path fill="none" stroke="#000" d="M345.443-319.916v99.489"/><path stroke="#000" d="M348.944-220.062l-3.501 10-3.499-10h7z"/></g><g class="node"><ellipse fill="none" stroke="#000" cx="73.444" cy="-105" rx="73.387" ry="18"/><text text-anchor="middle" x="73.444" y="-101.3" font-family="Times,serif" font-size="14">OpenBSD Router</text></g><g class="edge"><path fill="none" stroke="#000" d="M76.722-86.906C79.176-76.81 83.204-64.072 89.444-54c2.926 4.724 6.627 9.266 10.536 13.423"/><path stroke="#000" d="M102.445-43.062l4.673 9.51-9.583-4.52 4.91-4.99z"/><text text-anchor="middle" x="126.443" y="-57.8" font-family="Times,serif" font-size="14">IPv6 SLAAC</text></g><g class="node"><ellipse fill="none" stroke="#000" cx="82.444" cy="-192" rx="74.187" ry="18"/><text text-anchor="middle" x="82.444" y="-188.3" font-family="Times,serif" font-size="14">OpenBSD Postfix</text></g><g class="edge"><path fill="none" stroke="#000" d="M80.41-173.763c-.281 10.661 1.273 23.947 9.034 32.763 20.089 22.822 37.422 7.618 65.999 18 1.894.688 3.825 1.433 5.761 2.215"/><path stroke="#000" d="M162.971-123.835l7.809 7.161-10.57-.729 2.761-6.432z"/><text text-anchor="middle" x="133.943" y="-144.8" font-family="Times,serif" font-size="14">(S/MIME) Mail</text></g></g></svg>