<svg width="326pt" height="194pt" viewBox="0 0 326 194" xmlns="http://www.w3.org/2000/svg"><g class="graph" transform="translate(4 190)"><path fill="#fff" stroke="#fff" d="M-4 5v-195h327V5H-4z"/><g class="node"><path fill="none" stroke="#000" d="M99.5-75v-36h119v36h-119z"/><text text-anchor="middle" x="159" y="-88.9" font-family="Times Roman,serif" font-size="14">DNSKEY RRset</text></g><g class="node"><path fill="none" stroke="#000" d="M93-1v-36h132v36H93z"/><text text-anchor="middle" x="159" y="-14.9" font-family="Times Roman,serif" font-size="14">RRSIG Signature</text></g><g class="edge"><path fill="none" stroke="#000" d="M159-74.708v27.346"/><path stroke="#000" d="M162.5-47.082l-3.5 10-3.5-10h7z"/></g><g class="node"><path fill="none" stroke="#000" d="M0-149v-36h150v36H0z"/><text text-anchor="middle" x="75" y="-162.9" font-family="Times Roman,serif" font-size="14">DNSKEY Public KSK</text></g><g class="edge"><path fill="none" stroke="#000" stroke-dasharray="1,5" d="M95.764-148.708l35.067 30.892"/><path stroke="#000" d="M133.285-120.318l5.19 9.236-9.817-3.984 4.627-5.252z"/></g><g class="node"><path fill="none" stroke="#000" d="M167.5-149v-36h151v36h-151z"/><text text-anchor="middle" x="243" y="-162.9" font-family="Times Roman,serif" font-size="14">DNSKEY Public ZSK</text></g><g class="edge"><path fill="none" stroke="#000" stroke-dasharray="1,5" d="M222.236-148.708l-35.067 30.892"/><path stroke="#000" d="M189.342-115.066l-9.817 3.984 5.19-9.236 4.627 5.252z"/></g></g></svg>