<svg width="428pt" height="194pt" viewBox="0 0 428 194" xmlns="http://www.w3.org/2000/svg"><g class="graph" transform="translate(4 190)"><path fill="#fff" stroke="#fff" d="M-4 5v-195h429V5H-4z"/><g class="node"><path fill="none" stroke="#000" d="M140-75v-36h110v36H140z"/><text text-anchor="middle" x="195" y="-88.9" font-family="Times Roman,serif" font-size="14">DNS Resolver</text></g><g class="node"><path fill="none" stroke="#000" d="M116-1v-36h158v36H116z"/><text text-anchor="middle" x="195" y="-14.9" font-family="Times Roman,serif" font-size="14">Verified AAAA RRset</text></g><g class="edge"><path fill="none" stroke="#000" d="M195-74.708v27.346"/><path stroke="#000" d="M198.5-47.082l-3.5 10-3.5-10h7z"/></g><g class="node"><path fill="none" stroke="#000" d="M0-149v-36h102v36H0z"/><text text-anchor="middle" x="51" y="-162.9" font-family="Times Roman,serif" font-size="14">AAAA RRset</text></g><g class="edge"><path fill="none" stroke="#000" stroke-dasharray="1,5" d="M86.226-148.898l64.48 33.136"/><path stroke="#000" d="M152.344-118.856l7.294 7.684-10.494-1.458 3.2-6.226z"/></g><g class="node"><path fill="none" stroke="#000" d="M119.5-149v-36h151v36h-151z"/><text text-anchor="middle" x="195" y="-162.9" font-family="Times Roman,serif" font-size="14">DNSKEY Public ZSK</text></g><g class="edge"><path fill="none" stroke="#000" stroke-dasharray="1,5" d="M195-148.708v27.346"/><path stroke="#000" d="M198.5-121.082l-3.5 10-3.5-10h7z"/></g><g class="node"><path fill="none" stroke="#000" d="M288-149v-36h132v36H288z"/><text text-anchor="middle" x="354" y="-162.9" font-family="Times Roman,serif" font-size="14">RRSIG Signature</text></g><g class="edge"><path fill="none" stroke="#000" stroke-dasharray="1,5" d="M315.104-148.898l-72.068 33.542"/><path stroke="#000" d="M244.313-112.09l-10.544 1.046 7.59-7.392 2.954 6.346z"/></g></g></svg>