<?xml version="1.0" encoding="UTF-8" standalone="no"?>
<!DOCTYPE svg PUBLIC "-//W3C//DTD SVG 1.1//EN"
 "http://www.w3.org/Graphics/SVG/1.1/DTD/svg11.dtd">
<!-- Generated by graphviz version 2.26.3 (20100126.1600)
 -->
<!-- Title: structs Pages: 1 -->
<svg width="373pt" height="138pt"
 viewBox="0.00 0.00 373.00 138.00" xmlns="http://www.w3.org/2000/svg" xmlns:xlink="http://www.w3.org/1999/xlink">
<g id="graph1" class="graph" transform="scale(1 1) rotate(0) translate(4 134)">
<title>structs</title>
<polygon fill="white" stroke="white" points="-4,5 -4,-134 370,-134 370,5 -4,5"/>
<!-- struct1 -->
<g id="node1" class="node"><title>struct1</title>
<polygon fill="none" stroke="black" points="-0.5,-93 -0.5,-129 262.5,-129 262.5,-93 -0.5,-93"/>
<text text-anchor="middle" x="50.5" y="-106.9" font-family="Times Roman,serif" font-size="14.00">Parent Zone</text>
<polyline fill="none" stroke="black" points="101.5,-93 101.5,-129 "/>
<text text-anchor="middle" x="182" y="-106.9" font-family="Times Roman,serif" font-size="14.00">DNSKEY Hashed KSK</text>
</g>
<!-- struct2 -->
<g id="node2" class="node"><title>struct2</title>
<polygon fill="none" stroke="black" points="5,-1 5,-37 365,-37 365,-1 5,-1"/>
<text text-anchor="middle" x="50.5" y="-14.9" font-family="Times Roman,serif" font-size="14.00">Child Zone</text>
<polyline fill="none" stroke="black" points="96,-1 96,-37 "/>
<text text-anchor="middle" x="171" y="-14.9" font-family="Times Roman,serif" font-size="14.00">DNSKEY Public KSK</text>
<polyline fill="none" stroke="black" points="246,-1 246,-37 "/>
<text text-anchor="middle" x="305.5" y="-14.9" font-family="Times Roman,serif" font-size="14.00">CDS/CDNSKEY</text>
</g>
<!-- struct1&#45;&gt;struct2 -->
<g id="edge2" class="edge"><title>struct1:f10&#45;&gt;struct2:f11</title>
<path fill="none" stroke="black" stroke-dasharray="1,5" d="M50,-93C50,-72 50,-64.2891 50,-47.4419"/>
<polygon fill="black" stroke="black" points="53.5001,-47 50,-37 46.5001,-47 53.5001,-47"/>
<text text-anchor="middle" x="71.5" y="-60.9" font-family="Times Roman,serif" font-size="14.00">Check</text>
</g>
<!-- struct2&#45;&gt;struct1 -->
<g id="edge4" class="edge"><title>struct2:f2&#45;&gt;struct1:f1</title>
<path fill="none" stroke="black" d="M171,-37C171,-58.5995 178.977,-65.6279 181.345,-82.9016"/>
<polygon fill="black" stroke="black" points="177.86,-83.2476 182,-93 184.845,-82.7944 177.86,-83.2476"/>
</g>
<!-- struct2&#45;&gt;struct1 -->
<g id="edge6" class="edge"><title>struct2:f3&#45;&gt;struct1:f1</title>
<path fill="none" stroke="black" d="M306,-37C306,-71.1239 302.594,-103.917 274.144,-109.997"/>
<polygon fill="black" stroke="black" points="273.607,-106.533 264,-111 274.296,-113.499 273.607,-106.533"/>
<text text-anchor="middle" x="330" y="-60.9" font-family="Times Roman,serif" font-size="14.00">Update</text>
</g>
</g>
</svg>
