<?xml version="1.0" encoding="UTF-8" standalone="no"?>
<!DOCTYPE svg PUBLIC "-//W3C//DTD SVG 1.1//EN"
 "http://www.w3.org/Graphics/SVG/1.1/DTD/svg11.dtd">
<!-- Generated by graphviz version 2.38.0 (20140413.2041)
 -->
<!-- Title: structs Pages: 1 -->
<svg width="339pt" height="133pt"
 viewBox="0.00 0.00 338.50 133.00" xmlns="http://www.w3.org/2000/svg" xmlns:xlink="http://www.w3.org/1999/xlink">
<g id="graph0" class="graph" transform="scale(1 1) rotate(0) translate(4 129)">
<title>structs</title>
<polygon fill="white" stroke="none" points="-4,4 -4,-129 334.5,-129 334.5,4 -4,4"/>
<!-- struct1 -->
<g id="node1" class="node"><title>struct1</title>
<polygon fill="none" stroke="black" points="0,-88.5 0,-124.5 229,-124.5 229,-88.5 0,-88.5"/>
<text text-anchor="middle" x="41.5" y="-102.8" font-family="Times,serif" font-size="14.00">Parent Zone</text>
<polyline fill="none" stroke="black" points="83,-88.5 83,-124.5 "/>
<text text-anchor="middle" x="156" y="-102.8" font-family="Times,serif" font-size="14.00">DNSKEY Hashed KSK</text>
</g>
<!-- struct2 -->
<g id="node2" class="node"><title>struct2</title>
<polygon fill="none" stroke="black" points="2.5,-0.5 2.5,-36.5 330.5,-36.5 330.5,-0.5 2.5,-0.5"/>
<text text-anchor="middle" x="41.5" y="-14.8" font-family="Times,serif" font-size="14.00">Child Zone</text>
<polyline fill="none" stroke="black" points="80.5,-0.5 80.5,-36.5 "/>
<text text-anchor="middle" x="150.5" y="-14.8" font-family="Times,serif" font-size="14.00">DNSKEY Public KSK</text>
<polyline fill="none" stroke="black" points="220.5,-0.5 220.5,-36.5 "/>
<text text-anchor="middle" x="275.5" y="-14.8" font-family="Times,serif" font-size="14.00">CDS/CDNSKEY</text>
</g>
<!-- struct1&#45;&gt;struct2 -->
<g id="edge1" class="edge"><title>struct1:f10&#45;&gt;struct2:f11</title>
<path fill="none" stroke="black" stroke-dasharray="1,5" d="M41.5,-88C41.5,-69.2292 41.5,-62.1168 41.5,-47.3535"/>
<polygon fill="black" stroke="black" points="45.0001,-47 41.5,-37 38.0001,-47 45.0001,-47"/>
<text text-anchor="middle" x="59" y="-58.8" font-family="Times,serif" font-size="14.00">Check</text>
</g>
<!-- struct2&#45;&gt;struct1 -->
<g id="edge2" class="edge"><title>struct2:f2&#45;&gt;struct1:f1</title>
<path fill="none" stroke="black" d="M150.5,-37C150.5,-55.9003 154.615,-62.8205 156.029,-77.6027"/>
<polygon fill="black" stroke="black" points="152.551,-78.1686 156.5,-88 159.544,-77.8519 152.551,-78.1686"/>
</g>
<!-- struct2&#45;&gt;struct1 -->
<g id="edge3" class="edge"><title>struct2:f3&#45;&gt;struct1:f1</title>
<path fill="none" stroke="black" d="M275.5,-37C275.5,-70.2048 268.822,-100.074 240.482,-105.591"/>
<polygon fill="black" stroke="black" points="240.141,-102.107 230.5,-106.5 240.776,-109.079 240.141,-102.107"/>
<text text-anchor="middle" x="294.5" y="-58.8" font-family="Times,serif" font-size="14.00">Update</text>
</g>
</g>
</svg>
