<?xml version="1.0" encoding="UTF-8" standalone="no"?>
<!DOCTYPE svg PUBLIC "-//W3C//DTD SVG 1.1//EN"
 "http://www.w3.org/Graphics/SVG/1.1/DTD/svg11.dtd">
<!-- Generated by graphviz version 2.26.3 (20100126.1600)
 -->
<!-- Title: structs Pages: 1 -->
<svg width="562pt" height="268pt"
 viewBox="0.00 0.00 562.00 268.00" xmlns="http://www.w3.org/2000/svg" xmlns:xlink="http://www.w3.org/1999/xlink">
<g id="graph1" class="graph" transform="scale(1 1) rotate(0) translate(4 264)">
<title>structs</title>
<polygon fill="white" stroke="white" points="-4,5 -4,-264 559,-264 559,5 -4,5"/>
<!-- childzone -->
<g id="node1" class="node"><title>childzone</title>
<polygon fill="none" stroke="black" points="307.5,-223 307.5,-259 548.5,-259 548.5,-223 307.5,-223"/>
<text text-anchor="middle" x="353" y="-236.9" font-family="Times Roman,serif" font-size="14.00">Child Zone</text>
<polyline fill="none" stroke="black" points="398.5,-223 398.5,-259 "/>
<text text-anchor="middle" x="473.5" y="-236.9" font-family="Times Roman,serif" font-size="14.00">DNSKEY Public KSK</text>
</g>
<!-- tldzone -->
<g id="node2" class="node"><title>tldzone</title>
<polygon fill="none" stroke="black" points="158,-149 158,-185 554,-185 554,-149 158,-149"/>
<text text-anchor="middle" x="200.5" y="-162.9" font-family="Times Roman,serif" font-size="14.00">TLD Zone</text>
<polyline fill="none" stroke="black" points="243,-149 243,-185 "/>
<text text-anchor="middle" x="318" y="-162.9" font-family="Times Roman,serif" font-size="14.00">DNSKEY Public KSK</text>
<polyline fill="none" stroke="black" points="393,-149 393,-185 "/>
<text text-anchor="middle" x="473.5" y="-162.9" font-family="Times Roman,serif" font-size="14.00">DNSKEY Hashed KSK</text>
</g>
<!-- childzone&#45;&gt;tldzone -->
<g id="edge2" class="edge"><title>childzone:f1&#45;&gt;tldzone:f2</title>
<path fill="none" stroke="black" d="M474,-223C474,-210.069 474,-204.564 474,-195.114"/>
<polygon fill="black" stroke="black" points="477.5,-195 474,-185 470.5,-195 477.5,-195"/>
</g>
<!-- rootzone -->
<g id="node3" class="node"><title>rootzone</title>
<polygon fill="none" stroke="black" points="-0.5,-75 -0.5,-111 398.5,-111 398.5,-75 -0.5,-75"/>
<text text-anchor="middle" x="43.5" y="-88.9" font-family="Times Roman,serif" font-size="14.00">Root Zone</text>
<polyline fill="none" stroke="black" points="87.5,-75 87.5,-111 "/>
<text text-anchor="middle" x="162.5" y="-88.9" font-family="Times Roman,serif" font-size="14.00">DNSKEY Public KSK</text>
<polyline fill="none" stroke="black" points="237.5,-75 237.5,-111 "/>
<text text-anchor="middle" x="318" y="-88.9" font-family="Times Roman,serif" font-size="14.00">DNSKEY Hashed KSK</text>
</g>
<!-- tldzone&#45;&gt;rootzone -->
<g id="edge4" class="edge"><title>tldzone:f1&#45;&gt;rootzone:f2</title>
<path fill="none" stroke="black" d="M318,-149C318,-136.069 318,-130.564 318,-121.114"/>
<polygon fill="black" stroke="black" points="321.5,-121 318,-111 314.5,-121 321.5,-121"/>
</g>
<!-- private -->
<g id="node4" class="node"><title>private</title>
<polygon fill="none" stroke="black" points="68.5,-1 68.5,-37 255.5,-37 255.5,-1 68.5,-1"/>
<text text-anchor="middle" x="162" y="-14.9" font-family="Times Roman,serif" font-size="14.00">Private Root Signing Key</text>
</g>
<!-- rootzone&#45;&gt;private -->
<g id="edge6" class="edge"><title>rootzone:f1&#45;&gt;private</title>
<path fill="none" stroke="black" d="M162,-75C162,-66.0145 162,-56.2181 162,-47.3674"/>
<polygon fill="black" stroke="black" points="165.5,-47.1585 162,-37.1585 158.5,-47.1586 165.5,-47.1585"/>
</g>
</g>
</svg>
