<?xml version="1.0" encoding="UTF-8" standalone="no"?>
<!DOCTYPE svg PUBLIC "-//W3C//DTD SVG 1.1//EN"
 "http://www.w3.org/Graphics/SVG/1.1/DTD/svg11.dtd">
<!-- Generated by graphviz version 2.38.0 (20140413.2041)
 -->
<!-- Title: structs Pages: 1 -->
<svg width="511pt" height="264pt"
 viewBox="0.00 0.00 511.00 264.00" xmlns="http://www.w3.org/2000/svg" xmlns:xlink="http://www.w3.org/1999/xlink">
<g id="graph0" class="graph" transform="scale(1 1) rotate(0) translate(4 260)">
<title>structs</title>
<polygon fill="white" stroke="none" points="-4,4 -4,-260 507,-260 507,4 -4,4"/>
<!-- childzone -->
<g id="node1" class="node"><title>childzone</title>
<polygon fill="none" stroke="black" points="282,-219.5 282,-255.5 500,-255.5 500,-219.5 282,-219.5"/>
<text text-anchor="middle" x="321" y="-233.8" font-family="Times,serif" font-size="14.00">Child Zone</text>
<polyline fill="none" stroke="black" points="360,-219.5 360,-255.5 "/>
<text text-anchor="middle" x="430" y="-233.8" font-family="Times,serif" font-size="14.00">DNSKEY Public KSK</text>
</g>
<!-- tldzone -->
<g id="node2" class="node"><title>tldzone</title>
<polygon fill="none" stroke="black" points="143,-146.5 143,-182.5 503,-182.5 503,-146.5 143,-146.5"/>
<text text-anchor="middle" x="180" y="-160.8" font-family="Times,serif" font-size="14.00">TLD Zone</text>
<polyline fill="none" stroke="black" points="217,-146.5 217,-182.5 "/>
<text text-anchor="middle" x="287" y="-160.8" font-family="Times,serif" font-size="14.00">DNSKEY Public KSK</text>
<polyline fill="none" stroke="black" points="357,-146.5 357,-182.5 "/>
<text text-anchor="middle" x="430" y="-160.8" font-family="Times,serif" font-size="14.00">DNSKEY Hashed KSK</text>
</g>
<!-- childzone&#45;&gt;tldzone -->
<g id="edge1" class="edge"><title>childzone:f1&#45;&gt;tldzone:f2</title>
<path fill="none" stroke="black" d="M430,-219C430,-207 430,-201.75 430,-193.125"/>
<polygon fill="black" stroke="black" points="433.5,-193 430,-183 426.5,-193 433.5,-193"/>
</g>
<!-- rootzone -->
<g id="node3" class="node"><title>rootzone</title>
<polygon fill="none" stroke="black" points="0,-73.5 0,-109.5 360,-109.5 360,-73.5 0,-73.5"/>
<text text-anchor="middle" x="37" y="-87.8" font-family="Times,serif" font-size="14.00">Root Zone</text>
<polyline fill="none" stroke="black" points="74,-73.5 74,-109.5 "/>
<text text-anchor="middle" x="144" y="-87.8" font-family="Times,serif" font-size="14.00">DNSKEY Public KSK</text>
<polyline fill="none" stroke="black" points="214,-73.5 214,-109.5 "/>
<text text-anchor="middle" x="287" y="-87.8" font-family="Times,serif" font-size="14.00">DNSKEY Hashed KSK</text>
</g>
<!-- tldzone&#45;&gt;rootzone -->
<g id="edge2" class="edge"><title>tldzone:f1&#45;&gt;rootzone:f2</title>
<path fill="none" stroke="black" d="M287,-146C287,-134 287,-128.75 287,-120.125"/>
<polygon fill="black" stroke="black" points="290.5,-120 287,-110 283.5,-120 290.5,-120"/>
</g>
<!-- private -->
<g id="node4" class="node"><title>private</title>
<polygon fill="none" stroke="black" points="65.5,-0.5 65.5,-36.5 222.5,-36.5 222.5,-0.5 65.5,-0.5"/>
<text text-anchor="middle" x="144" y="-14.8" font-family="Times,serif" font-size="14.00">Private Root Signing Key</text>
</g>
<!-- rootzone&#45;&gt;private -->
<g id="edge3" class="edge"><title>rootzone:f1&#45;&gt;private</title>
<path fill="none" stroke="black" d="M144,-73C144,-64.51 144,-55.2622 144,-46.88"/>
<polygon fill="black" stroke="black" points="147.5,-46.8479 144,-36.8479 140.5,-46.8479 147.5,-46.8479"/>
</g>
</g>
</svg>
