<?xml version="1.0" encoding="UTF-8" standalone="no"?>
<!DOCTYPE svg PUBLIC "-//W3C//DTD SVG 1.1//EN"
 "http://www.w3.org/Graphics/SVG/1.1/DTD/svg11.dtd">
<!-- Generated by graphviz version 2.26.3 (20100126.1600)
 -->
<!-- Title: disklayout Pages: 1 -->
<svg width="278pt" height="96pt"
 viewBox="0.00 0.00 278.00 96.00" xmlns="http://www.w3.org/2000/svg" xmlns:xlink="http://www.w3.org/1999/xlink">
<g id="graph1" class="graph" transform="scale(1 1) rotate(0) translate(4 92)">
<title>disklayout</title>
<polygon fill="white" stroke="white" points="-4,5 -4,-92 275,-92 275,5 -4,5"/>
<!-- abc -->
<g id="node1" class="node"><title>abc</title>
<polygon fill="lightgrey" stroke="lightgrey" points="0,-44 0,-88 270,-88 270,-44 0,-44"/>
<polygon fill="none" stroke="black" points="0,-44 0,-88 270,-88 270,-44 0,-44"/>
<text text-anchor="start" x="119" y="-72.2333" font-family="Times Roman,serif" font-size="14.00">MBR</text>
<text text-anchor="start" x="114" y="-55.4333" font-family="Times Roman,serif" font-size="14.00">Boot0</text>
<polygon fill="green" stroke="green" points="0,-0 0,-44 66,-44 66,-0 0,-0"/>
<polygon fill="none" stroke="black" points="0,-0 0,-44 66,-44 66,-0 0,-0"/>
<text text-anchor="start" x="12.5" y="-28.2333" font-family="Times Roman,serif" font-size="14.00">Slice1</text>
<text text-anchor="start" x="7.5" y="-11.4333" font-family="Times Roman,serif" font-size="14.00">active /</text>
<polygon fill="red" stroke="red" points="66,-0 66,-44 142,-44 142,-0 66,-0"/>
<polygon fill="none" stroke="black" points="66,-0 66,-44 142,-44 142,-0 66,-0"/>
<text text-anchor="start" x="83.5" y="-28.2333" font-family="Times Roman,serif" font-size="14.00">Slice2</text>
<text text-anchor="start" x="72" y="-11.4333" font-family="Times Roman,serif" font-size="14.00">inactive /</text>
<polygon fill="orange" stroke="orange" points="142,-0 142,-44 194,-44 194,-0 142,-0"/>
<polygon fill="none" stroke="black" points="142,-0 142,-44 194,-44 194,-0 142,-0"/>
<text text-anchor="start" x="147.5" y="-28.2333" font-family="Times Roman,serif" font-size="14.00">Slice3</text>
<text text-anchor="start" x="155.5" y="-11.4333" font-family="Times Roman,serif" font-size="14.00">/cfg</text>
<polygon fill="lightgrey" stroke="lightgrey" points="194,-0 194,-41 231,-41 231,-0 194,-0"/>
<polygon fill="none" stroke="black" points="194,-0 194,-41 231,-41 231,-0 194,-0"/>
<text text-anchor="start" x="199.5" y="-17.2333" font-family="Times Roman,serif" font-size="14.00">/etc</text>
<polygon fill="lightgrey" stroke="lightgrey" points="231,-0 231,-41 269,-41 269,-0 231,-0"/>
<polygon fill="none" stroke="black" points="231,-0 231,-41 269,-41 269,-0 231,-0"/>
<text text-anchor="start" x="236" y="-17.2333" font-family="Times Roman,serif" font-size="14.00">/var</text>
</g>
</g>
</svg>
