<?xml version="1.0" encoding="UTF-8" standalone="no"?>
<!DOCTYPE svg PUBLIC "-//W3C//DTD SVG 1.1//EN"
 "http://www.w3.org/Graphics/SVG/1.1/DTD/svg11.dtd">
<!-- Generated by graphviz version 2.26.3 (20100126.1600)
 -->
<!-- Title: disklayout Pages: 1 -->
<svg width="278pt" height="128pt"
 viewBox="0.00 0.00 278.00 128.00" xmlns="http://www.w3.org/2000/svg" xmlns:xlink="http://www.w3.org/1999/xlink">
<g id="graph1" class="graph" transform="scale(1 1) rotate(0) translate(4 124)">
<title>disklayout</title>
<polygon fill="white" stroke="white" points="-4,5 -4,-124 275,-124 275,5 -4,5"/>
<!-- abc -->
<g id="node1" class="node"><title>abc</title>
<polygon fill="lightgrey" stroke="lightgrey" points="0,-76 0,-120 270,-120 270,-76 0,-76"/>
<polygon fill="none" stroke="black" points="0,-76 0,-120 270,-120 270,-76 0,-76"/>
<text text-anchor="start" x="119" y="-104.233" font-family="Times Roman,serif" font-size="14.00">MBR</text>
<text text-anchor="start" x="114" y="-87.4333" font-family="Times Roman,serif" font-size="14.00">Boot0</text>
<polygon fill="green" stroke="green" points="0,-28 0,-76 66,-76 66,-28 0,-28"/>
<polygon fill="none" stroke="black" points="0,-28 0,-76 66,-76 66,-28 0,-28"/>
<text text-anchor="start" x="12.5" y="-58.2333" font-family="Times Roman,serif" font-size="14.00">Slice1</text>
<text text-anchor="start" x="7.5" y="-41.4333" font-family="Times Roman,serif" font-size="14.00">active /</text>
<polygon fill="red" stroke="red" points="66,-28 66,-76 142,-76 142,-28 66,-28"/>
<polygon fill="none" stroke="black" points="66,-28 66,-76 142,-76 142,-28 66,-28"/>
<text text-anchor="start" x="83.5" y="-58.2333" font-family="Times Roman,serif" font-size="14.00">Slice2</text>
<text text-anchor="start" x="72" y="-41.4333" font-family="Times Roman,serif" font-size="14.00">inactive /</text>
<polygon fill="orange" stroke="orange" points="142,-28 142,-76 194,-76 194,-28 142,-28"/>
<polygon fill="none" stroke="black" points="142,-28 142,-76 194,-76 194,-28 142,-28"/>
<text text-anchor="start" x="147.5" y="-58.2333" font-family="Times Roman,serif" font-size="14.00">Slice3</text>
<text text-anchor="start" x="155.5" y="-41.4333" font-family="Times Roman,serif" font-size="14.00">/cfg</text>
<polygon fill="lightgrey" stroke="lightgrey" points="194,-0 194,-52 231,-52 231,-0 194,-0"/>
<polygon fill="none" stroke="black" points="194,-0 194,-52 231,-52 231,-0 194,-0"/>
<text text-anchor="start" x="201.5" y="-32.2333" font-family="Times Roman,serif" font-size="14.00">md</text>
<text text-anchor="start" x="199.5" y="-15.4333" font-family="Times Roman,serif" font-size="14.00">/etc</text>
<polygon fill="lightgrey" stroke="lightgrey" points="231,-0 231,-52 269,-52 269,-0 231,-0"/>
<polygon fill="none" stroke="black" points="231,-0 231,-52 269,-52 269,-0 231,-0"/>
<text text-anchor="start" x="239" y="-32.2333" font-family="Times Roman,serif" font-size="14.00">md</text>
<text text-anchor="start" x="236" y="-15.4333" font-family="Times Roman,serif" font-size="14.00">/var</text>
</g>
</g>
</svg>
