<?xml version="1.0" encoding="UTF-8" standalone="no"?>
<!DOCTYPE svg PUBLIC "-//W3C//DTD SVG 1.1//EN"
 "http://www.w3.org/Graphics/SVG/1.1/DTD/svg11.dtd">
<!-- Generated by graphviz version 2.26.3 (20100126.1600)
 -->
<!-- Title: disklayout Pages: 1 -->
<svg width="222pt" height="96pt"
 viewBox="0.00 0.00 222.00 96.00" xmlns="http://www.w3.org/2000/svg" xmlns:xlink="http://www.w3.org/1999/xlink">
<g id="graph1" class="graph" transform="scale(1 1) rotate(0) translate(4 92)">
<title>disklayout</title>
<polygon fill="white" stroke="white" points="-4,5 -4,-92 219,-92 219,5 -4,5"/>
<!-- abc -->
<g id="node1" class="node"><title>abc</title>
<polygon fill="none" stroke="black" points="0,-44 0,-88 214,-88 214,-44 0,-44"/>
<text text-anchor="start" x="91" y="-72.2333" font-family="Times Roman,serif" font-size="14.00">MBR</text>
<text text-anchor="start" x="86" y="-55.4333" font-family="Times Roman,serif" font-size="14.00">Boot0</text>
<polygon fill="none" stroke="black" points="0,-0 0,-44 75,-44 75,-0 0,-0"/>
<text text-anchor="start" x="17" y="-28.2333" font-family="Times Roman,serif" font-size="14.00">Slice1</text>
<text text-anchor="start" x="12" y="-11.4333" font-family="Times Roman,serif" font-size="14.00">active /</text>
<polygon fill="none" stroke="black" points="75,-0 75,-44 156,-44 156,-0 75,-0"/>
<text text-anchor="start" x="95" y="-28.2333" font-family="Times Roman,serif" font-size="14.00">Slice2</text>
<text text-anchor="start" x="83.5" y="-11.4333" font-family="Times Roman,serif" font-size="14.00">inactive /</text>
<polygon fill="none" stroke="black" points="156,-0 156,-44 210,-44 210,-0 156,-0"/>
<text text-anchor="start" x="162.5" y="-28.2333" font-family="Times Roman,serif" font-size="14.00">Slice3</text>
<text text-anchor="start" x="170.5" y="-11.4333" font-family="Times Roman,serif" font-size="14.00">/cfg</text>
</g>
</g>
</svg>
