<?xml version="1.0" encoding="UTF-8" standalone="no"?>
<!DOCTYPE svg PUBLIC "-//W3C//DTD SVG 1.1//EN"
 "http://www.w3.org/Graphics/SVG/1.1/DTD/svg11.dtd">
<!-- Generated by graphviz version 2.26.3 (20100126.1600)
 -->
<!-- Title: disklayout Pages: 1 -->
<svg width="270pt" height="98pt"
 viewBox="0.00 0.00 270.00 98.00" xmlns="http://www.w3.org/2000/svg" xmlns:xlink="http://www.w3.org/1999/xlink">
<g id="graph1" class="graph" transform="scale(1 1) rotate(0) translate(4 94)">
<title>disklayout</title>
<polygon fill="white" stroke="white" points="-4,5 -4,-94 267,-94 267,5 -4,5"/>
<!-- abc -->
<g id="node1" class="node"><title>abc</title>
<polygon fill="lightgrey" stroke="lightgrey" points="0,-46 0,-90 223,-90 223,-46 0,-46"/>
<polygon fill="none" stroke="black" points="0,-46 0,-90 223,-90 223,-46 0,-46"/>
<text text-anchor="start" x="95.5" y="-74.2333" font-family="Times Roman,serif" font-size="14.00">MBR</text>
<text text-anchor="start" x="90.5" y="-57.4333" font-family="Times Roman,serif" font-size="14.00">Boot0</text>
<polygon fill="green" stroke="green" points="0,-0 0,-46 62,-46 62,-0 0,-0"/>
<polygon fill="none" stroke="black" points="0,-0 0,-46 62,-46 62,-0 0,-0"/>
<text text-anchor="start" x="10.5" y="-29.2333" font-family="Times Roman,serif" font-size="14.00">Slice1</text>
<text text-anchor="start" x="5.5" y="-12.4333" font-family="Times Roman,serif" font-size="14.00">active /</text>
<polygon fill="red" stroke="red" points="62,-0 62,-46 136,-46 136,-0 62,-0"/>
<polygon fill="none" stroke="black" points="62,-0 62,-46 136,-46 136,-0 62,-0"/>
<text text-anchor="start" x="78.5" y="-29.2333" font-family="Times Roman,serif" font-size="14.00">Slice2</text>
<text text-anchor="start" x="67" y="-12.4333" font-family="Times Roman,serif" font-size="14.00">inactive /</text>
<polygon fill="orange" stroke="orange" points="136,-0 136,-46 187,-46 187,-0 136,-0"/>
<polygon fill="none" stroke="black" points="136,-0 136,-46 187,-46 187,-0 136,-0"/>
<text text-anchor="start" x="141" y="-29.2333" font-family="Times Roman,serif" font-size="14.00">Slice3</text>
<text text-anchor="start" x="149" y="-12.4333" font-family="Times Roman,serif" font-size="14.00">/cfg</text>
<polygon fill="lightgrey" stroke="lightgrey" points="187,-0 187,-35 223,-35 223,-0 187,-0"/>
<polygon fill="none" stroke="black" points="187,-0 187,-35 223,-35 223,-0 187,-0"/>
<text text-anchor="start" x="192" y="-14.2333" font-family="Times Roman,serif" font-size="14.00">/etc</text>
<polygon fill="lightgrey" stroke="lightgrey" points="223,-0 223,-35 262,-35 262,-0 223,-0"/>
<polygon fill="none" stroke="black" points="223,-0 223,-35 262,-35 262,-0 223,-0"/>
<text text-anchor="start" x="228.5" y="-14.2333" font-family="Times Roman,serif" font-size="14.00">/var</text>
</g>
</g>
</svg>
