<?xml version="1.0" encoding="UTF-8" standalone="no"?>
<!DOCTYPE svg PUBLIC "-//W3C//DTD SVG 1.1//EN"
 "http://www.w3.org/Graphics/SVG/1.1/DTD/svg11.dtd">
<!-- Generated by graphviz version 2.26.3 (20100126.1600)
 -->
<!-- Title: disklayout Pages: 1 -->
<svg width="322pt" height="188pt"
 viewBox="0.00 0.00 322.00 188.00" xmlns="http://www.w3.org/2000/svg" xmlns:xlink="http://www.w3.org/1999/xlink">
<g id="graph1" class="graph" transform="scale(1 1) rotate(0) translate(4 184)">
<title>disklayout</title>
<polygon fill="white" stroke="white" points="-4,5 -4,-184 319,-184 319,5 -4,5"/>
<!-- jails -->
<g id="node2" class="node"><title>jails</title>
<polygon fill="none" stroke="black" points="68,-124 68,-180 109,-180 109,-124 68,-124"/>
<text text-anchor="start" x="73.5" y="-148.733" font-family="Times Roman,serif" font-size="14.00">Jail1</text>
<polygon fill="none" stroke="black" points="109,-124 109,-180 149,-180 149,-124 109,-124"/>
<text text-anchor="start" x="114" y="-148.733" font-family="Times Roman,serif" font-size="14.00">Jail2</text>
<polygon fill="none" stroke="black" points="149,-124 149,-180 198,-180 198,-124 149,-124"/>
<text text-anchor="start" x="154" y="-148.733" font-family="Times Roman,serif" font-size="14.00">Jail..n</text>
<polygon fill="lightgrey" stroke="lightgrey" points="198,-124 198,-173 246,-173 246,-124 198,-124"/>
<polygon fill="none" stroke="black" points="198,-124 198,-173 246,-173 246,-124 198,-124"/>
<text text-anchor="start" x="206" y="-154.733" font-family="Times Roman,serif" font-size="14.00">base</text>
<text text-anchor="start" x="204" y="-137.933" font-family="Times Roman,serif" font-size="14.00">ports</text>
</g>
<!-- disks -->
<g id="node3" class="node"><title>disks</title>
<polygon fill="green" stroke="green" points="0,-43 0,-88 62,-88 62,-43 0,-43"/>
<polygon fill="none" stroke="black" points="0,-43 0,-88 62,-88 62,-43 0,-43"/>
<text text-anchor="start" x="10.5" y="-71.7333" font-family="Times Roman,serif" font-size="14.00">Slice1</text>
<text text-anchor="start" x="5.5" y="-54.9333" font-family="Times Roman,serif" font-size="14.00">active /</text>
<polygon fill="red" stroke="red" points="62,-43 62,-88 136,-88 136,-43 62,-43"/>
<polygon fill="none" stroke="black" points="62,-43 62,-88 136,-88 136,-43 62,-43"/>
<text text-anchor="start" x="78.5" y="-71.7333" font-family="Times Roman,serif" font-size="14.00">Slice2</text>
<text text-anchor="start" x="67" y="-54.9333" font-family="Times Roman,serif" font-size="14.00">inactive /</text>
<polygon fill="orange" stroke="orange" points="136,-43 136,-88 187,-88 187,-43 136,-43"/>
<polygon fill="none" stroke="black" points="136,-43 136,-88 187,-88 187,-43 136,-43"/>
<text text-anchor="start" x="141" y="-71.7333" font-family="Times Roman,serif" font-size="14.00">Slice3</text>
<text text-anchor="start" x="149" y="-54.9333" font-family="Times Roman,serif" font-size="14.00">/cfg</text>
<polygon fill="lightgrey" stroke="lightgrey" points="187,-0 187,-84 223,-84 223,-0 187,-0"/>
<polygon fill="none" stroke="black" points="187,-0 187,-84 223,-84 223,-0 187,-0"/>
<text text-anchor="start" x="194" y="-48.2333" font-family="Times Roman,serif" font-size="14.00">md</text>
<text text-anchor="start" x="192" y="-31.4333" font-family="Times Roman,serif" font-size="14.00">/etc</text>
<polygon fill="lightgrey" stroke="lightgrey" points="223,-0 223,-84 261,-84 261,-0 223,-0"/>
<polygon fill="none" stroke="black" points="223,-0 223,-84 261,-84 261,-0 223,-0"/>
<text text-anchor="start" x="231" y="-48.2333" font-family="Times Roman,serif" font-size="14.00">md</text>
<text text-anchor="start" x="228" y="-31.4333" font-family="Times Roman,serif" font-size="14.00">/var</text>
<polygon fill="lightgrey" stroke="lightgrey" points="261,-0 261,-43 315,-43 315,-0 261,-0"/>
<polygon fill="none" stroke="black" points="261,-0 261,-43 315,-43 315,-0 261,-0"/>
<text text-anchor="start" x="272" y="-27.7333" font-family="Times Roman,serif" font-size="14.00">MBR</text>
<text text-anchor="start" x="267" y="-10.9333" font-family="Times Roman,serif" font-size="14.00">Boot0</text>
</g>
<!-- jails&#45;&gt;disks -->
<g id="edge3" class="edge"><title>jails&#45;&gt;disks</title>
<path fill="none" stroke="black" d="M157,-123.906C157,-116.09 157,-107.324 157,-98.5399"/>
<polygon fill="black" stroke="black" points="160.5,-98.2746 157,-88.2747 153.5,-98.2747 160.5,-98.2746"/>
</g>
</g>
</svg>
