<?xml version="1.0" encoding="UTF-8" standalone="no"?>
<!DOCTYPE svg PUBLIC "-//W3C//DTD SVG 1.1//EN"
 "http://www.w3.org/Graphics/SVG/1.1/DTD/svg11.dtd">
<!-- Generated by graphviz version 2.26.3 (20100126.1600)
 -->
<!-- Title: disklayout Pages: 1 -->
<svg width="216pt" height="64pt"
 viewBox="0.00 0.00 216.00 64.00" xmlns="http://www.w3.org/2000/svg" xmlns:xlink="http://www.w3.org/1999/xlink">
<g id="graph1" class="graph" transform="scale(1 1) rotate(0) translate(4 60)">
<title>disklayout</title>
<polygon fill="white" stroke="white" points="-4,5 -4,-60 213,-60 213,5 -4,5"/>
<!-- abc -->
<g id="node1" class="node"><title>abc</title>
<polygon fill="none" stroke="black" points="0,-6 0,-56 55,-56 55,-6 0,-6"/>
<text text-anchor="start" x="11.5" y="-37.2333" font-family="Times Roman,serif" font-size="14.00">MBR</text>
<text text-anchor="start" x="6.5" y="-20.4333" font-family="Times Roman,serif" font-size="14.00">Boot0</text>
<polygon fill="none" stroke="black" points="55,-0 55,-56 106,-56 106,-0 55,-0"/>
<text text-anchor="start" x="60" y="-24.7333" font-family="Times Roman,serif" font-size="14.00">Slice1</text>
<polygon fill="none" stroke="black" points="106,-0 106,-56 157,-56 157,-0 106,-0"/>
<text text-anchor="start" x="111" y="-24.7333" font-family="Times Roman,serif" font-size="14.00">Slice2</text>
<polygon fill="none" stroke="black" points="157,-0 157,-56 208,-56 208,-0 157,-0"/>
<text text-anchor="start" x="162" y="-24.7333" font-family="Times Roman,serif" font-size="14.00">Slice3</text>
</g>
</g>
</svg>
