<?xml version="1.0" encoding="UTF-8" standalone="no"?>
<!DOCTYPE svg PUBLIC "-//W3C//DTD SVG 1.1//EN"
 "http://www.w3.org/Graphics/SVG/1.1/DTD/svg11.dtd">
<!-- Generated by graphviz version 2.26.3 (20100126.1600)
 -->
<!-- Title: disklayout Pages: 1 -->
<svg width="188pt" height="76pt"
 viewBox="0.00 0.00 188.00 76.00" xmlns="http://www.w3.org/2000/svg" xmlns:xlink="http://www.w3.org/1999/xlink">
<g id="graph1" class="graph" transform="scale(1 1) rotate(0) translate(4 72)">
<title>disklayout</title>
<polygon fill="white" stroke="white" points="-4,5 -4,-72 185,-72 185,5 -4,5"/>
<!-- abc -->
<g id="node1" class="node"><title>abc</title>
<polygon fill="none" stroke="black" points="0,-24 0,-68 181,-68 181,-24 0,-24"/>
<text text-anchor="start" x="74.5" y="-52.2333" font-family="Times Roman,serif" font-size="14.00">MBR</text>
<text text-anchor="start" x="69.5" y="-35.4333" font-family="Times Roman,serif" font-size="14.00">Boot0</text>
<polygon fill="none" stroke="black" points="0,-0 0,-24 65,-24 65,-0 0,-0"/>
<text text-anchor="start" x="12" y="-8.73333" font-family="Times Roman,serif" font-size="14.00">Slice1</text>
<polygon fill="none" stroke="black" points="65,-0 65,-24 123,-24 123,-0 65,-0"/>
<text text-anchor="start" x="73.5" y="-8.73333" font-family="Times Roman,serif" font-size="14.00">Slice2</text>
<polygon fill="none" stroke="black" points="123,-0 123,-24 177,-24 177,-0 123,-0"/>
<text text-anchor="start" x="129.5" y="-8.73333" font-family="Times Roman,serif" font-size="14.00">Slice3</text>
</g>
</g>
</svg>
