<?xml version="1.0" encoding="UTF-8" standalone="no"?>
<!DOCTYPE svg PUBLIC "-//W3C//DTD SVG 1.1//EN"
 "http://www.w3.org/Graphics/SVG/1.1/DTD/svg11.dtd">
<!-- Generated by graphviz version 2.26.3 (20100126.1600)
 -->
<!-- Title: disklayout Pages: 1 -->
<svg width="278pt" height="232pt"
 viewBox="0.00 0.00 278.00 232.00" xmlns="http://www.w3.org/2000/svg" xmlns:xlink="http://www.w3.org/1999/xlink">
<g id="graph1" class="graph" transform="scale(1 1) rotate(0) translate(4 228)">
<title>disklayout</title>
<polygon fill="white" stroke="white" points="-4,5 -4,-228 275,-228 275,5 -4,5"/>
<!-- abc -->
<g id="node1" class="node"><title>abc</title>
<polygon fill="lightgrey" stroke="lightgrey" points="0,-180 0,-224 270,-224 270,-180 0,-180"/>
<polygon fill="none" stroke="black" points="0,-180 0,-224 270,-224 270,-180 0,-180"/>
<text text-anchor="start" x="119" y="-208.233" font-family="Times Roman,serif" font-size="14.00">MBR</text>
<text text-anchor="start" x="114" y="-191.433" font-family="Times Roman,serif" font-size="14.00">Boot0</text>
<polygon fill="green" stroke="green" points="0,-132 0,-180 66,-180 66,-132 0,-132"/>
<polygon fill="none" stroke="black" points="0,-132 0,-180 66,-180 66,-132 0,-132"/>
<text text-anchor="start" x="12.5" y="-162.233" font-family="Times Roman,serif" font-size="14.00">Slice1</text>
<text text-anchor="start" x="7.5" y="-145.433" font-family="Times Roman,serif" font-size="14.00">active /</text>
<polygon fill="red" stroke="red" points="66,-132 66,-180 142,-180 142,-132 66,-132"/>
<polygon fill="none" stroke="black" points="66,-132 66,-180 142,-180 142,-132 66,-132"/>
<text text-anchor="start" x="83.5" y="-162.233" font-family="Times Roman,serif" font-size="14.00">Slice2</text>
<text text-anchor="start" x="72" y="-145.433" font-family="Times Roman,serif" font-size="14.00">inactive /</text>
<polygon fill="orange" stroke="orange" points="142,-132 142,-180 194,-180 194,-132 142,-132"/>
<polygon fill="none" stroke="black" points="142,-132 142,-180 194,-180 194,-132 142,-132"/>
<text text-anchor="start" x="147.5" y="-162.233" font-family="Times Roman,serif" font-size="14.00">Slice3</text>
<text text-anchor="start" x="155.5" y="-145.433" font-family="Times Roman,serif" font-size="14.00">/cfg</text>
<polygon fill="lightgrey" stroke="lightgrey" points="194,-104 194,-156 231,-156 231,-104 194,-104"/>
<polygon fill="none" stroke="black" points="194,-104 194,-156 231,-156 231,-104 194,-104"/>
<text text-anchor="start" x="201.5" y="-136.233" font-family="Times Roman,serif" font-size="14.00">md</text>
<text text-anchor="start" x="199.5" y="-119.433" font-family="Times Roman,serif" font-size="14.00">/etc</text>
<polygon fill="lightgrey" stroke="lightgrey" points="231,-104 231,-156 269,-156 269,-104 231,-104"/>
<polygon fill="none" stroke="black" points="231,-104 231,-156 269,-156 269,-104 231,-104"/>
<text text-anchor="start" x="239" y="-136.233" font-family="Times Roman,serif" font-size="14.00">md</text>
<text text-anchor="start" x="236" y="-119.433" font-family="Times Roman,serif" font-size="14.00">/var</text>
</g>
<!-- jails -->
<g id="node3" class="node"><title>jails</title>
<polygon fill="lightgrey" stroke="lightgrey" points="58,-24 58,-68 212,-68 212,-24 58,-24"/>
<polygon fill="none" stroke="black" points="58,-24 58,-68 212,-68 212,-24 58,-24"/>
<text text-anchor="start" x="119" y="-52.2333" font-family="Times Roman,serif" font-size="14.00">base</text>
<text text-anchor="start" x="117" y="-35.4333" font-family="Times Roman,serif" font-size="14.00">ports</text>
<polygon fill="none" stroke="black" points="58,-0 58,-24 111,-24 111,-0 58,-0"/>
<text text-anchor="start" x="69.5" y="-8.73333" font-family="Times Roman,serif" font-size="14.00">Jail1</text>
<polygon fill="none" stroke="black" points="111,-0 111,-24 157,-24 157,-0 111,-0"/>
<text text-anchor="start" x="119" y="-8.73333" font-family="Times Roman,serif" font-size="14.00">Jail2</text>
<polygon fill="none" stroke="black" points="157,-0 157,-24 209,-24 209,-0 157,-0"/>
<text text-anchor="start" x="163.5" y="-8.73333" font-family="Times Roman,serif" font-size="14.00">Jail..n</text>
</g>
<!-- abc&#45;&gt;jails -->
<g id="edge3" class="edge"><title>abc&#45;&gt;jails</title>
<path fill="none" stroke="black" d="M135,-103.947C135,-95.3399 135,-86.6164 135,-78.3851"/>
<polygon fill="black" stroke="black" points="138.5,-78.2675 135,-68.2675 131.5,-78.2676 138.5,-78.2675"/>
</g>
</g>
</svg>
