<?xml version="1.0" encoding="UTF-8" standalone="no"?>
<!DOCTYPE svg PUBLIC "-//W3C//DTD SVG 1.1//EN"
 "http://www.w3.org/Graphics/SVG/1.1/DTD/svg11.dtd">
<!-- Generated by graphviz version 2.26.3 (20100126.1600)
 -->
<!-- Title: disklayout Pages: 1 -->
<svg width="222pt" height="168pt"
 viewBox="0.00 0.00 222.00 168.00" xmlns="http://www.w3.org/2000/svg" xmlns:xlink="http://www.w3.org/1999/xlink">
<g id="graph1" class="graph" transform="scale(1 1) rotate(0) translate(4 164)">
<title>disklayout</title>
<polygon fill="white" stroke="white" points="-4,5 -4,-164 219,-164 219,5 -4,5"/>
<!-- abc -->
<g id="node1" class="node"><title>abc</title>
<polygon fill="lightgrey" stroke="lightgrey" points="0,-116 0,-160 214,-160 214,-116 0,-116"/>
<polygon fill="none" stroke="black" points="0,-116 0,-160 214,-160 214,-116 0,-116"/>
<text text-anchor="start" x="91" y="-144.233" font-family="Times Roman,serif" font-size="14.00">MBR</text>
<text text-anchor="start" x="86" y="-127.433" font-family="Times Roman,serif" font-size="14.00">Boot0</text>
<polygon fill="green" stroke="green" points="0,-72 0,-116 75,-116 75,-72 0,-72"/>
<polygon fill="none" stroke="black" points="0,-72 0,-116 75,-116 75,-72 0,-72"/>
<text text-anchor="start" x="17" y="-100.233" font-family="Times Roman,serif" font-size="14.00">Slice1</text>
<text text-anchor="start" x="12" y="-83.4333" font-family="Times Roman,serif" font-size="14.00">active /</text>
<polygon fill="red" stroke="red" points="75,-72 75,-116 156,-116 156,-72 75,-72"/>
<polygon fill="none" stroke="black" points="75,-72 75,-116 156,-116 156,-72 75,-72"/>
<text text-anchor="start" x="95" y="-100.233" font-family="Times Roman,serif" font-size="14.00">Slice2</text>
<text text-anchor="start" x="83.5" y="-83.4333" font-family="Times Roman,serif" font-size="14.00">inactive /</text>
<polygon fill="orange" stroke="orange" points="156,-72 156,-116 210,-116 210,-72 156,-72"/>
<polygon fill="none" stroke="black" points="156,-72 156,-116 210,-116 210,-72 156,-72"/>
<text text-anchor="start" x="162.5" y="-100.233" font-family="Times Roman,serif" font-size="14.00">Slice3</text>
<text text-anchor="start" x="170.5" y="-83.4333" font-family="Times Roman,serif" font-size="14.00">/cfg</text>
</g>
<!-- etc -->
<g id="node3" class="node"><title>etc</title>
<ellipse fill="none" stroke="black" cx="71" cy="-18" rx="27" ry="18"/>
<text text-anchor="middle" x="71" y="-13.9" font-family="Times Roman,serif" font-size="14.00">etc</text>
</g>
<!-- abc&#45;&gt;etc -->
<g id="edge2" class="edge"><title>abc&#45;&gt;etc</title>
<path fill="none" stroke="black" d="M90.7903,-71.8737C87.4468,-62.7718 84.02,-53.4434 80.9777,-45.1614"/>
<polygon fill="black" stroke="black" points="84.2223,-43.8435 77.4887,-35.6637 77.6516,-46.2573 84.2223,-43.8435"/>
</g>
<!-- var -->
<g id="node5" class="node"><title>var</title>
<ellipse fill="none" stroke="black" cx="143" cy="-18" rx="27.1004" ry="18"/>
<text text-anchor="middle" x="143" y="-13.9" font-family="Times Roman,serif" font-size="14.00">var</text>
</g>
<!-- abc&#45;&gt;var -->
<g id="edge4" class="edge"><title>abc&#45;&gt;var</title>
<path fill="none" stroke="black" d="M123.21,-71.8737C126.553,-62.7718 129.98,-53.4434 133.022,-45.1614"/>
<polygon fill="black" stroke="black" points="136.348,-46.2573 136.511,-35.6637 129.778,-43.8435 136.348,-46.2573"/>
</g>
</g>
</svg>
