<?xml version="1.0" encoding="UTF-8" standalone="no"?>
<!DOCTYPE svg PUBLIC "-//W3C//DTD SVG 1.1//EN"
 "http://www.w3.org/Graphics/SVG/1.1/DTD/svg11.dtd">
<!-- Generated by graphviz version 2.26.3 (20100126.1600)
 -->
<!-- Title: DNS Pages: 1 -->
<svg width="410pt" height="260pt"
 viewBox="0.00 0.00 410.00 260.00" xmlns="http://www.w3.org/2000/svg" xmlns:xlink="http://www.w3.org/1999/xlink">
<g id="graph1" class="graph" transform="scale(1 1) rotate(0) translate(4 256)">
<title>DNS</title>
<polygon fill="white" stroke="white" points="-4,5 -4,-256 407,-256 407,5 -4,5"/>
<!-- Internet -->
<g id="node1" class="node"><title>Internet</title>
<ellipse fill="none" stroke="black" cx="147" cy="-234" rx="50.2242" ry="18"/>
<text text-anchor="middle" x="147" y="-229.9" font-family="Times Roman,serif" font-size="14.00">Internet</text>
</g>
<!-- Unbound1 -->
<g id="node3" class="node"><title>Unbound1</title>
<ellipse fill="none" stroke="black" cx="61" cy="-162" rx="61.1496" ry="18"/>
<text text-anchor="middle" x="61" y="-157.9" font-family="Times Roman,serif" font-size="14.00">Unbound1</text>
</g>
<!-- Internet&#45;&gt;Unbound1 -->
<g id="edge2" class="edge"><title>Internet&#45;&gt;Unbound1</title>
<path fill="none" stroke="black" d="M127.054,-217.301C115.82,-207.895 101.605,-195.995 89.242,-185.644"/>
<polygon fill="black" stroke="black" points="91.3497,-182.844 81.4353,-179.109 86.8561,-188.212 91.3497,-182.844"/>
</g>
<!-- Unbound2 -->
<g id="node5" class="node"><title>Unbound2</title>
<ellipse fill="none" stroke="black" cx="201" cy="-162" rx="61.1496" ry="18"/>
<text text-anchor="middle" x="201" y="-157.9" font-family="Times Roman,serif" font-size="14.00">Unbound2</text>
</g>
<!-- Internet&#45;&gt;Unbound2 -->
<g id="edge4" class="edge"><title>Internet&#45;&gt;Unbound2</title>
<path fill="none" stroke="black" d="M160.072,-216.571C166.542,-207.944 174.481,-197.358 181.64,-187.813"/>
<polygon fill="black" stroke="black" points="184.473,-189.869 187.673,-179.769 178.873,-185.669 184.473,-189.869"/>
</g>
<!-- Unbound3 -->
<g id="node7" class="node"><title>Unbound3</title>
<ellipse fill="none" stroke="black" cx="341" cy="-162" rx="61.1496" ry="18"/>
<text text-anchor="middle" x="341" y="-157.9" font-family="Times Roman,serif" font-size="14.00">Unbound3</text>
</g>
<!-- Internet&#45;&gt;Unbound3 -->
<g id="edge6" class="edge"><title>Internet&#45;&gt;Unbound3</title>
<path fill="none" stroke="black" d="M182.132,-220.961C213.272,-209.404 259.011,-192.429 293.425,-179.657"/>
<polygon fill="black" stroke="black" points="294.652,-182.935 302.809,-176.174 292.216,-176.372 294.652,-182.935"/>
</g>
<!-- NSDMaster -->
<g id="node8" class="node"><title>NSDMaster</title>
<ellipse fill="none" stroke="black" cx="201" cy="-90" rx="66.0138" ry="18"/>
<text text-anchor="middle" x="201" y="-85.9" font-family="Times Roman,serif" font-size="14.00">NSDMaster</text>
</g>
<!-- Unbound1&#45;&gt;NSDMaster -->
<g id="edge10" class="edge"><title>Unbound1&#45;&gt;NSDMaster</title>
<path fill="none" stroke="black" d="M91.3779,-146.377C111.644,-135.955 138.516,-122.135 160.583,-110.786"/>
<polygon fill="black" stroke="black" points="162.42,-113.777 169.712,-106.091 159.218,-107.552 162.42,-113.777"/>
</g>
<!-- Unbound2&#45;&gt;NSDMaster -->
<g id="edge12" class="edge"><title>Unbound2&#45;&gt;NSDMaster</title>
<path fill="none" stroke="black" d="M201,-143.831C201,-136.131 201,-126.974 201,-118.417"/>
<polygon fill="black" stroke="black" points="204.5,-118.413 201,-108.413 197.5,-118.413 204.5,-118.413"/>
</g>
<!-- Unbound3&#45;&gt;NSDMaster -->
<g id="edge14" class="edge"><title>Unbound3&#45;&gt;NSDMaster</title>
<path fill="none" stroke="black" d="M310.622,-146.377C290.356,-135.955 263.484,-122.135 241.417,-110.786"/>
<polygon fill="black" stroke="black" points="242.782,-107.552 232.288,-106.091 239.58,-113.777 242.782,-107.552"/>
</g>
<!-- NSDSlave -->
<g id="node10" class="node"><title>NSDSlave</title>
<ellipse fill="none" stroke="black" cx="201" cy="-18" rx="59.065" ry="18"/>
<text text-anchor="middle" x="201" y="-13.9" font-family="Times Roman,serif" font-size="14.00">NSDSlave</text>
</g>
<!-- NSDMaster&#45;&gt;NSDSlave -->
<g id="edge8" class="edge"><title>NSDMaster&#45;&gt;NSDSlave</title>
<path fill="none" stroke="black" d="M201,-71.8314C201,-64.131 201,-54.9743 201,-46.4166"/>
<polygon fill="black" stroke="black" points="204.5,-46.4132 201,-36.4133 197.5,-46.4133 204.5,-46.4132"/>
</g>
<!-- Client -->
<g id="node14" class="node"><title>Client</title>
<ellipse fill="none" stroke="black" cx="254" cy="-234" rx="39.1069" ry="18"/>
<text text-anchor="middle" x="254" y="-229.9" font-family="Times Roman,serif" font-size="14.00">Client</text>
</g>
<!-- Client&#45;&gt;Unbound1 -->
<g id="edge16" class="edge"><title>Client&#45;&gt;Unbound1</title>
<path fill="none" stroke="black" d="M223.533,-222.563C217.713,-220.382 211.669,-218.119 206,-216 173.587,-203.887 137.081,-190.292 108.808,-179.773"/>
<polygon fill="black" stroke="black" points="109.763,-176.394 99.1704,-176.188 107.323,-182.955 109.763,-176.394"/>
</g>
<!-- Client&#45;&gt;Unbound2 -->
<g id="edge18" class="edge"><title>Client&#45;&gt;Unbound2</title>
<path fill="none" stroke="black" d="M241.44,-216.937C235.047,-208.253 227.142,-197.514 220.021,-187.84"/>
<polygon fill="black" stroke="black" points="222.77,-185.671 214.024,-179.692 217.133,-189.821 222.77,-185.671"/>
</g>
<!-- Client&#45;&gt;Unbound3 -->
<g id="edge20" class="edge"><title>Client&#45;&gt;Unbound3</title>
<path fill="none" stroke="black" d="M273.308,-218.021C284.724,-208.573 299.4,-196.428 312.167,-185.862"/>
<polygon fill="black" stroke="black" points="314.755,-188.264 320.227,-179.191 310.292,-182.871 314.755,-188.264"/>
</g>
</g>
</svg>
