<?xml version="1.0" encoding="UTF-8" standalone="no"?>
<!DOCTYPE svg PUBLIC "-//W3C//DTD SVG 1.1//EN"
 "http://www.w3.org/Graphics/SVG/1.1/DTD/svg11.dtd">
<!-- Generated by graphviz version 2.26.3 (20100126.1600)
 -->
<!-- Title: SecureInfrastructure Pages: 1 -->
<svg width="432pt" height="188pt"
 viewBox="0.00 0.00 432.00 188.00" xmlns="http://www.w3.org/2000/svg" xmlns:xlink="http://www.w3.org/1999/xlink">
<g id="graph1" class="graph" transform="scale(1 1) rotate(0) translate(4 184)">
<title>SecureInfrastructure</title>
<polygon fill="white" stroke="white" points="-4,5 -4,-184 429,-184 429,5 -4,5"/>
<!-- VC -->
<g id="node1" class="node"><title>VC</title>
<ellipse fill="none" stroke="black" cx="221" cy="-162" rx="84.7756" ry="18"/>
<text text-anchor="middle" x="221" y="-157.9" font-family="Times Roman,serif" font-size="14.00">Version Control</text>
</g>
<!-- GS -->
<g id="node2" class="node"><title>GS</title>
<ellipse fill="none" stroke="black" cx="221" cy="-90" rx="68.0985" ry="18"/>
<text text-anchor="middle" x="221" y="-85.9" font-family="Times Roman,serif" font-size="14.00">Gold Server</text>
</g>
<!-- VC&#45;&gt;GS -->
<g id="edge2" class="edge"><title>VC&#45;&gt;GS</title>
<path fill="none" stroke="black" d="M221,-143.831C221,-136.131 221,-126.974 221,-118.417"/>
<polygon fill="black" stroke="black" points="224.5,-118.413 221,-108.413 217.5,-118.413 224.5,-118.413"/>
</g>
<!-- AHCT -->
<g id="node3" class="node"><title>AHCT</title>
<ellipse fill="none" stroke="black" cx="111" cy="-18" rx="111.181" ry="18"/>
<text text-anchor="middle" x="111" y="-13.9" font-family="Times Roman,serif" font-size="14.00">Ad&#45;Hoc Change Tools</text>
</g>
<!-- GS&#45;&gt;AHCT -->
<g id="edge4" class="edge"><title>GS&#45;&gt;AHCT</title>
<path fill="none" stroke="black" d="M195.487,-73.3008C180.922,-63.7669 162.439,-51.6689 146.477,-41.221"/>
<polygon fill="black" stroke="black" points="148.193,-38.1614 137.909,-35.6132 144.359,-44.0183 148.193,-38.1614"/>
</g>
<!-- HIT -->
<g id="node4" class="node"><title>HIT</title>
<ellipse fill="none" stroke="black" cx="332" cy="-18" rx="91.9198" ry="18"/>
<text text-anchor="middle" x="332" y="-13.9" font-family="Times Roman,serif" font-size="14.00">Host Install Tools</text>
</g>
<!-- GS&#45;&gt;HIT -->
<g id="edge6" class="edge"><title>GS&#45;&gt;HIT</title>
<path fill="none" stroke="black" d="M246.745,-73.3008C261.551,-63.6968 280.368,-51.4908 296.556,-40.9908"/>
<polygon fill="black" stroke="black" points="298.751,-43.7387 305.236,-35.3603 294.942,-37.8659 298.751,-43.7387"/>
</g>
</g>
</svg>
