<?xml version="1.0" encoding="UTF-8" standalone="no"?>
<!DOCTYPE svg PUBLIC "-//W3C//DTD SVG 1.1//EN"
 "http://www.w3.org/Graphics/SVG/1.1/DTD/svg11.dtd">
<!-- Generated by graphviz version 2.26.3 (20100126.1600)
 -->
<!-- Title: structs Pages: 1 -->
<svg width="737pt" height="120pt"
 viewBox="0.00 0.00 737.00 120.00" xmlns="http://www.w3.org/2000/svg" xmlns:xlink="http://www.w3.org/1999/xlink">
<g id="graph1" class="graph" transform="scale(1 1) rotate(0) translate(4 116)">
<title>structs</title>
<polygon fill="white" stroke="white" points="-4,5 -4,-116 734,-116 734,5 -4,5"/>
<!-- Parent Zone -->
<g id="node1" class="node"><title>Parent Zone</title>
<polygon fill="none" stroke="black" points="0,-75 0,-111 102,-111 102,-75 0,-75"/>
<text text-anchor="middle" x="51" y="-88.9" font-family="Times Roman,serif" font-size="14.00">Parent Zone</text>
</g>
<!-- DNSKEY Hashed KSK -->
<g id="node2" class="node"><title>DNSKEY Hashed KSK</title>
<polygon fill="none" stroke="black" points="119.5,-75 119.5,-111 280.5,-111 280.5,-75 119.5,-75"/>
<text text-anchor="middle" x="200" y="-88.9" font-family="Times Roman,serif" font-size="14.00">DNSKEY Hashed KSK</text>
</g>
<!-- Child Zone -->
<g id="node3" class="node"><title>Child Zone</title>
<polygon fill="none" stroke="black" points="297.5,-75 297.5,-111 388.5,-111 388.5,-75 297.5,-75"/>
<text text-anchor="middle" x="343" y="-88.9" font-family="Times Roman,serif" font-size="14.00">Child Zone</text>
</g>
<!-- DNSKEY Public KSK -->
<g id="node4" class="node"><title>DNSKEY Public KSK</title>
<polygon fill="none" stroke="black" points="406,-75 406,-111 556,-111 556,-75 406,-75"/>
<text text-anchor="middle" x="481" y="-88.9" font-family="Times Roman,serif" font-size="14.00">DNSKEY Public KSK</text>
</g>
<!-- struct3 -->
<g id="node5" class="node"><title>struct3</title>
<polygon fill="none" stroke="black" points="568.5,-1 568.5,-37 729.5,-37 729.5,-1 568.5,-1"/>
<text text-anchor="middle" x="649" y="-14.9" font-family="Times Roman,serif" font-size="14.00">DNSKEY Hashed KSK</text>
</g>
<!-- struct4 -->
<g id="node6" class="node"><title>struct4</title>
<polygon fill="none" stroke="black" points="574,-75 574,-111 724,-111 724,-75 574,-75"/>
<text text-anchor="middle" x="649" y="-88.9" font-family="Times Roman,serif" font-size="14.00">DNSKEY Public KSK</text>
</g>
<!-- struct4&#45;&gt;struct3 -->
<g id="edge2" class="edge"><title>struct4&#45;&gt;struct3</title>
<path fill="none" stroke="black" d="M649,-74.7079C649,-66.4635 649,-56.5376 649,-47.3622"/>
<polygon fill="black" stroke="black" points="652.5,-47.0817 649,-37.0817 645.5,-47.0818 652.5,-47.0817"/>
</g>
</g>
</svg>
