<?xml version="1.0" encoding="UTF-8" standalone="no"?>
<!DOCTYPE svg PUBLIC "-//W3C//DTD SVG 1.1//EN"
 "http://www.w3.org/Graphics/SVG/1.1/DTD/svg11.dtd">
<!-- Generated by graphviz version 2.26.3 (20100126.1600)
 -->
<!-- Title: structs Pages: 1 -->
<svg width="276pt" height="194pt"
 viewBox="0.00 0.00 276.00 194.00" xmlns="http://www.w3.org/2000/svg" xmlns:xlink="http://www.w3.org/1999/xlink">
<g id="graph1" class="graph" transform="scale(1 1) rotate(0) translate(4 190)">
<title>structs</title>
<polygon fill="white" stroke="white" points="-4,5 -4,-190 273,-190 273,5 -4,5"/>
<!-- struct1 -->
<g id="node1" class="node"><title>struct1</title>
<polygon fill="none" stroke="black" points="29,-149 29,-185 131,-185 131,-149 29,-149"/>
<text text-anchor="middle" x="80" y="-162.9" font-family="Times Roman,serif" font-size="14.00">Parent Zone</text>
</g>
<!-- struct3 -->
<g id="node3" class="node"><title>struct3</title>
<polygon fill="none" stroke="black" points="-0.5,-75 -0.5,-111 160.5,-111 160.5,-75 -0.5,-75"/>
<text text-anchor="middle" x="80" y="-88.9" font-family="Times Roman,serif" font-size="14.00">DNSKEY Hashed KSK</text>
</g>
<!-- struct1&#45;&gt;struct3 -->
<g id="edge2" class="edge"><title>struct1&#45;&gt;struct3</title>
<path fill="none" stroke="black" stroke-dasharray="1,5" d="M80,-148.708C80,-140.464 80,-130.538 80,-121.362"/>
<polygon fill="black" stroke="black" points="83.5001,-121.082 80,-111.082 76.5001,-121.082 83.5001,-121.082"/>
</g>
<!-- struct2 -->
<g id="node2" class="node"><title>struct2</title>
<polygon fill="none" stroke="black" points="177.5,-75 177.5,-111 268.5,-111 268.5,-75 177.5,-75"/>
<text text-anchor="middle" x="223" y="-88.9" font-family="Times Roman,serif" font-size="14.00">Child Zone</text>
</g>
<!-- struct4 -->
<g id="node4" class="node"><title>struct4</title>
<polygon fill="none" stroke="black" points="76,-1 76,-37 226,-37 226,-1 76,-1"/>
<text text-anchor="middle" x="151" y="-14.9" font-family="Times Roman,serif" font-size="14.00">DNSKEY Public KSK</text>
</g>
<!-- struct2&#45;&gt;struct4 -->
<g id="edge4" class="edge"><title>struct2&#45;&gt;struct4</title>
<path fill="none" stroke="black" stroke-dasharray="1,5" d="M205.202,-74.7079C196.309,-65.5674 185.404,-54.3599 175.714,-44.4"/>
<polygon fill="black" stroke="black" points="178.075,-41.8083 168.593,-37.0817 173.058,-46.6898 178.075,-41.8083"/>
</g>
<!-- struct3&#45;&gt;struct4 -->
<g id="edge6" class="edge"><title>struct3&#45;&gt;struct4</title>
<path fill="none" stroke="black" d="M97.5506,-74.7079C106.32,-65.5674 117.074,-54.3599 126.63,-44.4"/>
<polygon fill="black" stroke="black" points="129.254,-46.7207 133.651,-37.0817 124.202,-41.8744 129.254,-46.7207"/>
</g>
</g>
</svg>
