<?xml version="1.0" encoding="UTF-8" standalone="no"?>
<!DOCTYPE svg PUBLIC "-//W3C//DTD SVG 1.1//EN"
 "http://www.w3.org/Graphics/SVG/1.1/DTD/svg11.dtd">
<!-- Generated by graphviz version 2.38.0 (20140413.2041)
 -->
<!-- Title: structs Pages: 1 -->
<svg width="237pt" height="118pt"
 viewBox="0.00 0.00 237.00 118.00" xmlns="http://www.w3.org/2000/svg" xmlns:xlink="http://www.w3.org/1999/xlink">
<g id="graph0" class="graph" transform="scale(1 1) rotate(0) translate(4 114)">
<title>structs</title>
<polygon fill="white" stroke="none" points="-4,4 -4,-114 233,-114 233,4 -4,4"/>
<!-- struct1 -->
<g id="node1" class="node"><title>struct1</title>
<polygon fill="none" stroke="black" points="0,-0.5 0,-36.5 229,-36.5 229,-0.5 0,-0.5"/>
<text text-anchor="middle" x="41.5" y="-14.8" font-family="Times,serif" font-size="14.00">Parent Zone</text>
<polyline fill="none" stroke="black" points="83,-0.5 83,-36.5 "/>
<text text-anchor="middle" x="156" y="-14.8" font-family="Times,serif" font-size="14.00">DNSKEY Hashed KSK</text>
</g>
<!-- struct2 -->
<g id="node2" class="node"><title>struct2</title>
<polygon fill="none" stroke="black" points="8.5,-73.5 8.5,-109.5 226.5,-109.5 226.5,-73.5 8.5,-73.5"/>
<text text-anchor="middle" x="47.5" y="-87.8" font-family="Times,serif" font-size="14.00">Child Zone</text>
<polyline fill="none" stroke="black" points="86.5,-73.5 86.5,-109.5 "/>
<text text-anchor="middle" x="156.5" y="-87.8" font-family="Times,serif" font-size="14.00">DNSKEY Public KSK</text>
</g>
<!-- struct2&#45;&gt;struct1 -->
<g id="edge1" class="edge"><title>struct2:f2&#45;&gt;struct1:f1</title>
<path fill="none" stroke="black" d="M156.5,-73C156.5,-61 156.5,-55.75 156.5,-47.125"/>
<polygon fill="black" stroke="black" points="160,-47 156.5,-37 153,-47 160,-47"/>
</g>
</g>
</svg>
