<?xml version="1.0" encoding="UTF-8" standalone="no"?>
<!DOCTYPE svg PUBLIC "-//W3C//DTD SVG 1.1//EN"
 "http://www.w3.org/Graphics/SVG/1.1/DTD/svg11.dtd">
<!-- Generated by graphviz version 2.26.3 (20100126.1600)
 -->
<!-- Title: structs Pages: 1 -->
<svg width="270pt" height="120pt"
 viewBox="0.00 0.00 270.00 120.00" xmlns="http://www.w3.org/2000/svg" xmlns:xlink="http://www.w3.org/1999/xlink">
<g id="graph1" class="graph" transform="scale(1 1) rotate(0) translate(4 116)">
<title>structs</title>
<polygon fill="white" stroke="white" points="-4,5 -4,-116 267,-116 267,5 -4,5"/>
<!-- struct1 -->
<g id="node1" class="node"><title>struct1</title>
<polygon fill="none" stroke="black" points="-0.5,-1 -0.5,-37 262.5,-37 262.5,-1 -0.5,-1"/>
<text text-anchor="middle" x="50.5" y="-14.9" font-family="Times Roman,serif" font-size="14.00">Parent Zone</text>
<polyline fill="none" stroke="black" points="101.5,-1 101.5,-37 "/>
<text text-anchor="middle" x="182" y="-14.9" font-family="Times Roman,serif" font-size="14.00">DNSKEY Hashed KSK</text>
</g>
<!-- struct2 -->
<g id="node2" class="node"><title>struct2</title>
<polygon fill="none" stroke="black" points="15.5,-75 15.5,-111 256.5,-111 256.5,-75 15.5,-75"/>
<text text-anchor="middle" x="61" y="-88.9" font-family="Times Roman,serif" font-size="14.00">Child Zone</text>
<polyline fill="none" stroke="black" points="106.5,-75 106.5,-111 "/>
<text text-anchor="middle" x="181.5" y="-88.9" font-family="Times Roman,serif" font-size="14.00">DNSKEY Public KSK</text>
</g>
<!-- struct2&#45;&gt;struct1 -->
<g id="edge2" class="edge"><title>struct2:f2&#45;&gt;struct1:f1</title>
<path fill="none" stroke="black" d="M182,-75C182,-62.0694 182,-56.5639 182,-47.1138"/>
<polygon fill="black" stroke="black" points="185.5,-47 182,-37 178.5,-47 185.5,-47"/>
</g>
</g>
</svg>
