<?xml version="1.0" encoding="UTF-8" standalone="no"?>
<!DOCTYPE svg PUBLIC "-//W3C//DTD SVG 1.1//EN"
 "http://www.w3.org/Graphics/SVG/1.1/DTD/svg11.dtd">
<!-- Generated by graphviz version 2.38.0 (20140413.2041)
 -->
<!-- Title: structs Pages: 1 -->
<svg width="1000pt" height="556pt"
 viewBox="0.00 0.00 1000.00 556.00" xmlns="http://www.w3.org/2000/svg" xmlns:xlink="http://www.w3.org/1999/xlink">
<g id="graph0" class="graph" transform="scale(1 1) rotate(0) translate(4 552)">
<title>structs</title>
<polygon fill="white" stroke="none" points="-4,4 -4,-552 996,-552 996,4 -4,4"/>
<!-- copperplate -->
<g id="node1" class="node"><title>copperplate</title>
<polygon fill="none" stroke="black" points="341,-438.5 341,-474.5 427,-474.5 427,-438.5 341,-438.5"/>
<text text-anchor="middle" x="384" y="-452.8" font-family="Times,serif" font-size="14.00">Copper plate</text>
</g>
<!-- lowdensitystructure -->
<g id="node10" class="node"><title>lowdensitystructure</title>
<polygon fill="none" stroke="black" points="499.5,-219.5 499.5,-255.5 634.5,-255.5 634.5,-219.5 499.5,-219.5"/>
<text text-anchor="middle" x="567" y="-233.8" font-family="Times,serif" font-size="14.00">Low density structure</text>
</g>
<!-- copperplate&#45;&gt;lowdensitystructure -->
<g id="edge4" class="edge"><title>copperplate&#45;&gt;lowdensitystructure</title>
<path fill="none" stroke="black" d="M390.199,-438.165C393.931,-427.7 398.764,-414.093 403,-402 420.1,-353.184 405.707,-329.813 441,-292 454.325,-277.723 472.079,-267.099 490.045,-259.254"/>
<polygon fill="black" stroke="black" points="491.514,-262.435 499.437,-255.401 488.857,-255.959 491.514,-262.435"/>
</g>
<!-- coppercable -->
<g id="node17" class="node"><title>coppercable</title>
<polygon fill="none" stroke="black" points="256.5,-365.5 256.5,-401.5 345.5,-401.5 345.5,-365.5 256.5,-365.5"/>
<text text-anchor="middle" x="301" y="-379.8" font-family="Times,serif" font-size="14.00">Copper cable</text>
</g>
<!-- copperplate&#45;&gt;coppercable -->
<g id="edge28" class="edge"><title>copperplate&#45;&gt;coppercable</title>
<path fill="none" stroke="black" d="M363.908,-438.313C353.305,-429.243 340.135,-417.977 328.589,-408.1"/>
<polygon fill="black" stroke="black" points="330.781,-405.37 320.907,-401.529 326.231,-410.689 330.781,-405.37"/>
</g>
<!-- battery -->
<g id="node27" class="node"><title>battery</title>
<polygon fill="none" stroke="black" points="687,-219.5 687,-255.5 743,-255.5 743,-219.5 687,-219.5"/>
<text text-anchor="middle" x="715" y="-233.8" font-family="Times,serif" font-size="14.00">Battery</text>
</g>
<!-- copperplate&#45;&gt;battery -->
<g id="edge42" class="edge"><title>copperplate&#45;&gt;battery</title>
<path fill="none" stroke="black" d="M427.05,-440.73C430.071,-439.781 433.076,-438.861 436,-438 498.455,-419.603 523.561,-437.713 578,-402 629.66,-368.11 622.515,-338.672 663,-292 671.487,-282.216 681.279,-271.912 690.06,-262.987"/>
<polygon fill="black" stroke="black" points="692.58,-265.417 697.148,-255.857 687.616,-260.482 692.58,-265.417"/>
</g>
<!-- solarpanel -->
<g id="node29" class="node"><title>solarpanel</title>
<polygon fill="none" stroke="black" points="403,-219.5 403,-255.5 481,-255.5 481,-219.5 403,-219.5"/>
<text text-anchor="middle" x="442" y="-233.8" font-family="Times,serif" font-size="14.00">Solar panel</text>
</g>
<!-- copperplate&#45;&gt;solarpanel -->
<g id="edge48" class="edge"><title>copperplate&#45;&gt;solarpanel</title>
<path fill="none" stroke="black" d="M384.189,-438.208C385.028,-407.721 389.105,-342.825 408,-292 411.586,-282.354 417.089,-272.616 422.63,-264.14"/>
<polygon fill="black" stroke="black" points="425.567,-266.047 428.34,-255.822 419.795,-262.086 425.567,-266.047"/>
</g>
<!-- plasticbar -->
<g id="node2" class="node"><title>plasticbar</title>
<polygon fill="none" stroke="black" points="450,-292.5 450,-328.5 524,-328.5 524,-292.5 450,-292.5"/>
<text text-anchor="middle" x="487" y="-306.8" font-family="Times,serif" font-size="14.00">Plastic bar</text>
</g>
<!-- plasticbar&#45;&gt;lowdensitystructure -->
<g id="edge5" class="edge"><title>plasticbar&#45;&gt;lowdensitystructure</title>
<path fill="none" stroke="black" d="M506.366,-292.313C516.487,-283.33 529.036,-272.193 540.087,-262.386"/>
<polygon fill="black" stroke="black" points="542.657,-264.784 547.813,-255.529 538.01,-259.549 542.657,-264.784"/>
</g>
<!-- advancedcircuit -->
<g id="node14" class="node"><title>advancedcircuit</title>
<polygon fill="none" stroke="black" points="237,-219.5 237,-255.5 347,-255.5 347,-219.5 237,-219.5"/>
<text text-anchor="middle" x="292" y="-233.8" font-family="Times,serif" font-size="14.00">Advanced cicruit</text>
</g>
<!-- plasticbar&#45;&gt;advancedcircuit -->
<g id="edge18" class="edge"><title>plasticbar&#45;&gt;advancedcircuit</title>
<path fill="none" stroke="black" d="M449.863,-295.978C421.199,-285.542 381.06,-270.927 348.43,-259.046"/>
<polygon fill="black" stroke="black" points="349.599,-255.747 339.005,-255.615 347.204,-262.325 349.599,-255.747"/>
</g>
<!-- steelplate -->
<g id="node3" class="node"><title>steelplate</title>
<polygon fill="none" stroke="black" points="542,-292.5 542,-328.5 616,-328.5 616,-292.5 542,-292.5"/>
<text text-anchor="middle" x="579" y="-306.8" font-family="Times,serif" font-size="14.00">Steel plate</text>
</g>
<!-- steelplate&#45;&gt;lowdensitystructure -->
<g id="edge6" class="edge"><title>steelplate&#45;&gt;lowdensitystructure</title>
<path fill="none" stroke="black" d="M576.095,-292.313C574.739,-284.289 573.093,-274.547 571.575,-265.569"/>
<polygon fill="black" stroke="black" points="574.996,-264.806 569.878,-255.529 568.094,-265.972 574.996,-264.806"/>
</g>
<!-- steelplate&#45;&gt;solarpanel -->
<g id="edge50" class="edge"><title>steelplate&#45;&gt;solarpanel</title>
<path fill="none" stroke="black" d="M546.185,-292.494C527.513,-282.817 503.933,-270.597 483.93,-260.23"/>
<polygon fill="black" stroke="black" points="485.511,-257.107 475.022,-255.614 482.29,-263.322 485.511,-257.107"/>
</g>
<!-- copperore -->
<g id="node4" class="node"><title>copperore</title>
<polygon fill="none" stroke="black" points="345.5,-511.5 345.5,-547.5 422.5,-547.5 422.5,-511.5 345.5,-511.5"/>
<text text-anchor="middle" x="384" y="-525.8" font-family="Times,serif" font-size="14.00">Copper ore</text>
</g>
<!-- copperore&#45;&gt;copperplate -->
<g id="edge7" class="edge"><title>copperore&#45;&gt;copperplate</title>
<path fill="none" stroke="black" d="M384,-511.313C384,-503.289 384,-493.547 384,-484.569"/>
<polygon fill="black" stroke="black" points="387.5,-484.529 384,-474.529 380.5,-484.529 387.5,-484.529"/>
</g>
<!-- ironplate -->
<g id="node5" class="node"><title>ironplate</title>
<polygon fill="none" stroke="black" points="782.5,-365.5 782.5,-401.5 851.5,-401.5 851.5,-365.5 782.5,-365.5"/>
<text text-anchor="middle" x="817" y="-379.8" font-family="Times,serif" font-size="14.00">Iron plate</text>
</g>
<!-- ironplate&#45;&gt;steelplate -->
<g id="edge9" class="edge"><title>ironplate&#45;&gt;steelplate</title>
<path fill="none" stroke="black" d="M782.393,-372.176C741.195,-359.886 672.194,-339.302 626.143,-325.564"/>
<polygon fill="black" stroke="black" points="626.98,-322.161 616.397,-322.656 624.979,-328.869 626.98,-322.161"/>
</g>
<!-- electroniccircuit -->
<g id="node15" class="node"><title>electroniccircuit</title>
<polygon fill="none" stroke="black" points="246,-292.5 246,-328.5 356,-328.5 356,-292.5 246,-292.5"/>
<text text-anchor="middle" x="301" y="-306.8" font-family="Times,serif" font-size="14.00">Electronic circuit</text>
</g>
<!-- ironplate&#45;&gt;electroniccircuit -->
<g id="edge20" class="edge"><title>ironplate&#45;&gt;electroniccircuit</title>
<path fill="none" stroke="black" d="M782.417,-374.41C767.837,-371.184 750.649,-367.623 735,-365 605.168,-343.241 571.646,-345.164 441,-329 416.648,-325.987 389.917,-322.652 366.398,-319.709"/>
<polygon fill="black" stroke="black" points="366.543,-316.2 356.185,-318.431 365.673,-323.146 366.543,-316.2"/>
</g>
<!-- irongearwheel -->
<g id="node16" class="node"><title>irongearwheel</title>
<polygon fill="none" stroke="black" points="890,-292.5 890,-328.5 992,-328.5 992,-292.5 890,-292.5"/>
<text text-anchor="middle" x="941" y="-306.8" font-family="Times,serif" font-size="14.00">Iron gear wheel</text>
</g>
<!-- ironplate&#45;&gt;irongearwheel -->
<g id="edge44" class="edge"><title>ironplate&#45;&gt;irongearwheel</title>
<path fill="none" stroke="black" d="M846.701,-365.494C863.297,-355.991 884.176,-344.036 902.067,-333.792"/>
<polygon fill="black" stroke="black" points="904.173,-336.62 911.111,-328.614 900.694,-330.545 904.173,-336.62"/>
</g>
<!-- sulfuricacid -->
<g id="node18" class="node"><title>sulfuricacid</title>
<polygon fill="none" stroke="black" points="672,-292.5 672,-328.5 758,-328.5 758,-292.5 672,-292.5"/>
<text text-anchor="middle" x="715" y="-306.8" font-family="Times,serif" font-size="14.00">Sulfuric acid</text>
</g>
<!-- ironplate&#45;&gt;sulfuricacid -->
<g id="edge21" class="edge"><title>ironplate&#45;&gt;sulfuricacid</title>
<path fill="none" stroke="black" d="M792.568,-365.494C779.168,-356.166 762.371,-344.474 747.838,-334.358"/>
<polygon fill="black" stroke="black" points="749.793,-331.454 739.586,-328.614 745.794,-337.199 749.793,-331.454"/>
</g>
<!-- accumulator -->
<g id="node26" class="node"><title>accumulator</title>
<polygon fill="none" stroke="black" points="671,-146.5 671,-182.5 759,-182.5 759,-146.5 671,-146.5"/>
<text text-anchor="middle" x="715" y="-160.8" font-family="Times,serif" font-size="14.00">Accumulator</text>
</g>
<!-- ironplate&#45;&gt;accumulator -->
<g id="edge40" class="edge"><title>ironplate&#45;&gt;accumulator</title>
<path fill="none" stroke="black" d="M813.813,-365.407C810.054,-346.896 803.024,-316.702 793,-292 779.008,-257.519 771.716,-250.559 752,-219 746.166,-209.662 739.409,-199.676 733.278,-190.891"/>
<polygon fill="black" stroke="black" points="736.037,-188.73 727.414,-182.574 730.316,-192.764 736.037,-188.73"/>
</g>
<!-- ironplate&#45;&gt;battery -->
<g id="edge41" class="edge"><title>ironplate&#45;&gt;battery</title>
<path fill="none" stroke="black" d="M809.225,-365.343C800.312,-346.51 784.639,-315.792 767,-292 759.482,-281.86 750.153,-271.687 741.48,-262.976"/>
<polygon fill="black" stroke="black" points="743.682,-260.233 734.09,-255.735 738.783,-265.233 743.682,-260.233"/>
</g>
<!-- radar -->
<g id="node28" class="node"><title>radar</title>
<polygon fill="none" stroke="black" points="852,-219.5 852,-255.5 906,-255.5 906,-219.5 852,-219.5"/>
<text text-anchor="middle" x="879" y="-233.8" font-family="Times,serif" font-size="14.00">Radar</text>
</g>
<!-- ironplate&#45;&gt;radar -->
<g id="edge47" class="edge"><title>ironplate&#45;&gt;radar</title>
<path fill="none" stroke="black" d="M824.356,-365.416C835.076,-340.516 855.085,-294.044 867.688,-264.773"/>
<polygon fill="black" stroke="black" points="870.914,-266.131 871.654,-255.562 864.485,-263.363 870.914,-266.131"/>
</g>
<!-- ironore -->
<g id="node6" class="node"><title>ironore</title>
<polygon fill="none" stroke="black" points="787,-438.5 787,-474.5 847,-474.5 847,-438.5 787,-438.5"/>
<text text-anchor="middle" x="817" y="-452.8" font-family="Times,serif" font-size="14.00">Iron ore</text>
</g>
<!-- ironore&#45;&gt;ironplate -->
<g id="edge8" class="edge"><title>ironore&#45;&gt;ironplate</title>
<path fill="none" stroke="black" d="M817,-438.313C817,-430.289 817,-420.547 817,-411.569"/>
<polygon fill="black" stroke="black" points="820.5,-411.529 817,-401.529 813.5,-411.529 820.5,-411.529"/>
</g>
<!-- coal -->
<g id="node7" class="node"><title>coal</title>
<polygon fill="none" stroke="black" points="515,-365.5 515,-401.5 569,-401.5 569,-365.5 515,-365.5"/>
<text text-anchor="middle" x="542" y="-379.8" font-family="Times,serif" font-size="14.00">Coal</text>
</g>
<!-- coal&#45;&gt;plasticbar -->
<g id="edge10" class="edge"><title>coal&#45;&gt;plasticbar</title>
<path fill="none" stroke="black" d="M528.686,-365.313C521.998,-356.679 513.768,-346.055 506.393,-336.534"/>
<polygon fill="black" stroke="black" points="509.082,-334.291 500.191,-328.529 503.548,-338.578 509.082,-334.291"/>
</g>
<!-- petroleumgas -->
<g id="node8" class="node"><title>petroleumgas</title>
<polygon fill="none" stroke="black" points="445.5,-438.5 445.5,-474.5 540.5,-474.5 540.5,-438.5 445.5,-438.5"/>
<text text-anchor="middle" x="493" y="-452.8" font-family="Times,serif" font-size="14.00">Petroleum gas</text>
</g>
<!-- petroleumgas&#45;&gt;plasticbar -->
<g id="edge11" class="edge"><title>petroleumgas&#45;&gt;plasticbar</title>
<path fill="none" stroke="black" d="M492.288,-438.416C491.264,-413.841 489.365,-368.253 488.143,-338.927"/>
<polygon fill="black" stroke="black" points="491.624,-338.408 487.711,-328.562 484.63,-338.699 491.624,-338.408"/>
</g>
<!-- sulfur -->
<g id="node20" class="node"><title>sulfur</title>
<polygon fill="none" stroke="black" points="672,-365.5 672,-401.5 726,-401.5 726,-365.5 672,-365.5"/>
<text text-anchor="middle" x="699" y="-379.8" font-family="Times,serif" font-size="14.00">Sulfur</text>
</g>
<!-- petroleumgas&#45;&gt;sulfur -->
<g id="edge25" class="edge"><title>petroleumgas&#45;&gt;sulfur</title>
<path fill="none" stroke="black" d="M540.688,-441.282C573.852,-431.092 618.943,-416.633 658,-402 659.404,-401.474 660.831,-400.927 662.268,-400.366"/>
<polygon fill="black" stroke="black" points="663.831,-403.509 671.791,-396.517 661.208,-397.019 663.831,-403.509"/>
</g>
<!-- solidfuel -->
<g id="node22" class="node"><title>solidfuel</title>
<polygon fill="none" stroke="black" points="94,-219.5 94,-255.5 164,-255.5 164,-219.5 94,-219.5"/>
<text text-anchor="middle" x="129" y="-233.8" font-family="Times,serif" font-size="14.00">Solid fuel</text>
</g>
<!-- petroleumgas&#45;&gt;solidfuel -->
<g id="edge32" class="edge"><title>petroleumgas&#45;&gt;solidfuel</title>
<path fill="none" stroke="black" d="M445.212,-440.412C442.105,-439.56 439.014,-438.747 436,-438 353.003,-417.421 319.132,-447.923 247,-402 219.478,-384.478 169.474,-305.789 144.32,-264.298"/>
<polygon fill="black" stroke="black" points="147.217,-262.325 139.059,-255.564 141.221,-265.936 147.217,-262.325"/>
</g>
<!-- rocket -->
<g id="node9" class="node"><title>rocket</title>
<polygon fill="none" stroke="black" points="272,-0.5 272,-36.5 352,-36.5 352,-0.5 272,-0.5"/>
<text text-anchor="middle" x="312" y="-14.8" font-family="Times,serif" font-size="14.00">Rocket part</text>
</g>
<!-- lowdensitystructure&#45;&gt;rocket -->
<g id="edge1" class="edge"><title>lowdensitystructure&#45;&gt;rocket</title>
<path fill="none" stroke="black" d="M566.338,-219.372C564.103,-186.156 554.359,-112.766 512,-73 471.522,-34.9995 407.076,-23.379 362.324,-20.1388"/>
<polygon fill="black" stroke="black" points="362.439,-16.6394 352.245,-19.5257 362.014,-23.6265 362.439,-16.6394"/>
</g>
<!-- satellite -->
<g id="node25" class="node"><title>satellite</title>
<polygon fill="none" stroke="black" points="442.5,-73.5 442.5,-109.5 503.5,-109.5 503.5,-73.5 442.5,-73.5"/>
<text text-anchor="middle" x="473" y="-87.8" font-family="Times,serif" font-size="14.00">Satellite</text>
</g>
<!-- lowdensitystructure&#45;&gt;satellite -->
<g id="edge34" class="edge"><title>lowdensitystructure&#45;&gt;satellite</title>
<path fill="none" stroke="black" d="M555.848,-219.416C539.453,-194.3 508.729,-147.234 489.655,-118.014"/>
<polygon fill="black" stroke="black" points="492.535,-116.023 484.138,-109.562 486.673,-119.849 492.535,-116.023"/>
</g>
<!-- rocketcontrolunit -->
<g id="node11" class="node"><title>rocketcontrolunit</title>
<polygon fill="none" stroke="black" points="251,-73.5 251,-109.5 373,-109.5 373,-73.5 251,-73.5"/>
<text text-anchor="middle" x="312" y="-87.8" font-family="Times,serif" font-size="14.00">Rocket control unit</text>
</g>
<!-- rocketcontrolunit&#45;&gt;rocket -->
<g id="edge2" class="edge"><title>rocketcontrolunit&#45;&gt;rocket</title>
<path fill="none" stroke="black" d="M312,-73.3129C312,-65.2895 312,-55.5475 312,-46.5691"/>
<polygon fill="black" stroke="black" points="315.5,-46.5288 312,-36.5288 308.5,-46.5289 315.5,-46.5288"/>
</g>
<!-- rocketfuel -->
<g id="node12" class="node"><title>rocketfuel</title>
<polygon fill="none" stroke="black" points="115,-146.5 115,-182.5 195,-182.5 195,-146.5 115,-146.5"/>
<text text-anchor="middle" x="155" y="-160.8" font-family="Times,serif" font-size="14.00">Rocket fuel</text>
</g>
<!-- rocketfuel&#45;&gt;rocket -->
<g id="edge3" class="edge"><title>rocketfuel&#45;&gt;rocket</title>
<path fill="none" stroke="black" d="M169.995,-146.403C186.788,-127.623 215.175,-96.9503 242,-73 253.773,-62.4881 267.429,-51.7583 279.536,-42.694"/>
<polygon fill="black" stroke="black" points="281.67,-45.4688 287.628,-36.708 277.507,-39.8411 281.67,-45.4688"/>
</g>
<!-- rocketfuel&#45;&gt;satellite -->
<g id="edge37" class="edge"><title>rocketfuel&#45;&gt;satellite</title>
<path fill="none" stroke="black" d="M195.227,-148.605C198.18,-147.674 201.127,-146.794 204,-146 214.977,-142.966 359.819,-114.58 432.287,-100.434"/>
<polygon fill="black" stroke="black" points="433.284,-103.806 442.429,-98.4554 431.944,-96.9354 433.284,-103.806"/>
</g>
<!-- processingunit -->
<g id="node13" class="node"><title>processingunit</title>
<polygon fill="none" stroke="black" points="327,-146.5 327,-182.5 427,-182.5 427,-146.5 327,-146.5"/>
<text text-anchor="middle" x="377" y="-160.8" font-family="Times,serif" font-size="14.00">Processing unit</text>
</g>
<!-- processingunit&#45;&gt;rocketcontrolunit -->
<g id="edge12" class="edge"><title>processingunit&#45;&gt;rocketcontrolunit</title>
<path fill="none" stroke="black" d="M361.265,-146.313C353.201,-137.505 343.241,-126.625 334.392,-116.958"/>
<polygon fill="black" stroke="black" points="336.924,-114.541 327.59,-109.529 331.761,-119.268 336.924,-114.541"/>
</g>
<!-- processingunit&#45;&gt;satellite -->
<g id="edge35" class="edge"><title>processingunit&#45;&gt;satellite</title>
<path fill="none" stroke="black" d="M400.239,-146.313C412.738,-137.069 428.322,-125.543 441.858,-115.532"/>
<polygon fill="black" stroke="black" points="444.016,-118.289 449.975,-109.529 439.854,-112.661 444.016,-118.289"/>
</g>
<!-- advancedcircuit&#45;&gt;processingunit -->
<g id="edge14" class="edge"><title>advancedcircuit&#45;&gt;processingunit</title>
<path fill="none" stroke="black" d="M312.576,-219.313C323.434,-210.243 336.922,-198.977 348.746,-189.1"/>
<polygon fill="black" stroke="black" points="351.182,-191.626 356.613,-182.529 346.695,-186.253 351.182,-191.626"/>
</g>
<!-- speedmodule -->
<g id="node21" class="node"><title>speedmodule</title>
<polygon fill="none" stroke="black" points="213.5,-146.5 213.5,-182.5 308.5,-182.5 308.5,-146.5 213.5,-146.5"/>
<text text-anchor="middle" x="261" y="-160.8" font-family="Times,serif" font-size="14.00">Speed module</text>
</g>
<!-- advancedcircuit&#45;&gt;speedmodule -->
<g id="edge26" class="edge"><title>advancedcircuit&#45;&gt;speedmodule</title>
<path fill="none" stroke="black" d="M284.496,-219.313C280.916,-211.115 276.554,-201.123 272.564,-191.985"/>
<polygon fill="black" stroke="black" points="275.644,-190.293 268.435,-182.529 269.229,-193.094 275.644,-190.293"/>
</g>
<!-- electroniccircuit&#45;&gt;processingunit -->
<g id="edge15" class="edge"><title>electroniccircuit&#45;&gt;processingunit</title>
<path fill="none" stroke="black" d="M324.147,-292.27C335.36,-282.758 348.081,-270.039 356,-256 367.048,-236.415 372.291,-211.321 374.775,-192.528"/>
<polygon fill="black" stroke="black" points="378.258,-192.878 375.916,-182.545 371.303,-192.083 378.258,-192.878"/>
</g>
<!-- electroniccircuit&#45;&gt;advancedcircuit -->
<g id="edge17" class="edge"><title>electroniccircuit&#45;&gt;advancedcircuit</title>
<path fill="none" stroke="black" d="M298.821,-292.313C297.804,-284.289 296.569,-274.547 295.431,-265.569"/>
<polygon fill="black" stroke="black" points="298.888,-265.009 294.159,-255.529 291.944,-265.89 298.888,-265.009"/>
</g>
<!-- electroniccircuit&#45;&gt;speedmodule -->
<g id="edge27" class="edge"><title>electroniccircuit&#45;&gt;speedmodule</title>
<path fill="none" stroke="black" d="M264.861,-292.425C250.658,-283.681 235.886,-271.557 228,-256 217.294,-234.881 228.523,-209.442 240.7,-190.92"/>
<polygon fill="black" stroke="black" points="243.598,-192.883 246.473,-182.685 237.866,-188.864 243.598,-192.883"/>
</g>
<!-- electroniccircuit&#45;&gt;radar -->
<g id="edge45" class="edge"><title>electroniccircuit&#45;&gt;radar</title>
<path fill="none" stroke="black" d="M356.175,-302.485C381.941,-299.24 413.033,-295.367 441,-292 579.148,-275.37 613.959,-273.498 752,-256 782.274,-252.162 816.55,-247.416 841.856,-243.834"/>
<polygon fill="black" stroke="black" points="842.363,-247.298 851.771,-242.426 841.378,-240.367 842.363,-247.298"/>
</g>
<!-- electroniccircuit&#45;&gt;solarpanel -->
<g id="edge49" class="edge"><title>electroniccircuit&#45;&gt;solarpanel</title>
<path fill="none" stroke="black" d="M334.773,-292.494C353.99,-282.817 378.259,-270.597 398.845,-260.23"/>
<polygon fill="black" stroke="black" points="400.656,-263.237 408.014,-255.614 397.508,-256.985 400.656,-263.237"/>
</g>
<!-- irongearwheel&#45;&gt;radar -->
<g id="edge46" class="edge"><title>irongearwheel&#45;&gt;radar</title>
<path fill="none" stroke="black" d="M925.992,-292.313C918.376,-283.592 908.987,-272.84 900.609,-263.246"/>
<polygon fill="black" stroke="black" points="903.084,-260.759 893.87,-255.529 897.811,-265.363 903.084,-260.759"/>
</g>
<!-- coppercable&#45;&gt;advancedcircuit -->
<g id="edge16" class="edge"><title>coppercable&#45;&gt;advancedcircuit</title>
<path fill="none" stroke="black" d="M270.56,-365.42C257.684,-356.416 244.052,-344.087 237,-329 230.036,-314.103 230.602,-307.149 237,-292 241.77,-280.706 250.219,-270.617 259.086,-262.327"/>
<polygon fill="black" stroke="black" points="261.66,-264.727 266.903,-255.52 257.063,-259.448 261.66,-264.727"/>
</g>
<!-- coppercable&#45;&gt;electroniccircuit -->
<g id="edge19" class="edge"><title>coppercable&#45;&gt;electroniccircuit</title>
<path fill="none" stroke="black" d="M301,-365.313C301,-357.289 301,-347.547 301,-338.569"/>
<polygon fill="black" stroke="black" points="304.5,-338.529 301,-328.529 297.5,-338.529 304.5,-338.529"/>
</g>
<!-- sulfuricacid&#45;&gt;battery -->
<g id="edge43" class="edge"><title>sulfuricacid&#45;&gt;battery</title>
<path fill="none" stroke="black" d="M715,-292.313C715,-284.289 715,-274.547 715,-265.569"/>
<polygon fill="black" stroke="black" points="718.5,-265.529 715,-255.529 711.5,-265.529 718.5,-265.529"/>
</g>
<!-- water -->
<g id="node19" class="node"><title>water</title>
<polygon fill="none" stroke="black" points="693,-438.5 693,-474.5 747,-474.5 747,-438.5 693,-438.5"/>
<text text-anchor="middle" x="720" y="-452.8" font-family="Times,serif" font-size="14.00">Water</text>
</g>
<!-- water&#45;&gt;sulfuricacid -->
<g id="edge23" class="edge"><title>water&#45;&gt;sulfuricacid</title>
<path fill="none" stroke="black" d="M726.082,-438.405C729.45,-428.025 733.291,-414.423 735,-402 737.241,-385.709 737.926,-381.182 735,-365 733.377,-356.023 730.337,-346.588 727.109,-338.185"/>
<polygon fill="black" stroke="black" points="730.33,-336.815 723.306,-328.883 723.851,-339.463 730.33,-336.815"/>
</g>
<!-- water&#45;&gt;sulfur -->
<g id="edge24" class="edge"><title>water&#45;&gt;sulfur</title>
<path fill="none" stroke="black" d="M714.916,-438.313C712.518,-430.202 709.599,-420.336 706.92,-411.277"/>
<polygon fill="black" stroke="black" points="710.229,-410.125 704.037,-401.529 703.517,-412.111 710.229,-410.125"/>
</g>
<!-- sulfur&#45;&gt;sulfuricacid -->
<g id="edge22" class="edge"><title>sulfur&#45;&gt;sulfuricacid</title>
<path fill="none" stroke="black" d="M702.873,-365.313C704.681,-357.289 706.877,-347.547 708.9,-338.569"/>
<polygon fill="black" stroke="black" points="712.378,-339.054 711.163,-328.529 705.55,-337.515 712.378,-339.054"/>
</g>
<!-- speedmodule&#45;&gt;rocketcontrolunit -->
<g id="edge13" class="edge"><title>speedmodule&#45;&gt;rocketcontrolunit</title>
<path fill="none" stroke="black" d="M273.346,-146.313C279.485,-137.766 287.025,-127.269 293.81,-117.823"/>
<polygon fill="black" stroke="black" points="296.777,-119.693 299.768,-109.529 291.091,-115.609 296.777,-119.693"/>
</g>
<!-- solidfuel&#45;&gt;rocketfuel -->
<g id="edge29" class="edge"><title>solidfuel&#45;&gt;rocketfuel</title>
<path fill="none" stroke="black" d="M135.294,-219.313C138.296,-211.115 141.955,-201.123 145.301,-191.985"/>
<polygon fill="black" stroke="black" points="148.612,-193.123 148.764,-182.529 142.039,-190.715 148.612,-193.123"/>
</g>
<!-- heavyoil -->
<g id="node23" class="node"><title>heavyoil</title>
<polygon fill="none" stroke="black" points="0,-292.5 0,-328.5 70,-328.5 70,-292.5 0,-292.5"/>
<text text-anchor="middle" x="35" y="-306.8" font-family="Times,serif" font-size="14.00">Heavy oil</text>
</g>
<!-- heavyoil&#45;&gt;solidfuel -->
<g id="edge30" class="edge"><title>heavyoil&#45;&gt;solidfuel</title>
<path fill="none" stroke="black" d="M57.7548,-292.313C69.8783,-283.156 84.9656,-271.76 98.1311,-261.816"/>
<polygon fill="black" stroke="black" points="100.585,-264.349 106.455,-255.529 96.3657,-258.763 100.585,-264.349"/>
</g>
<!-- lightoil -->
<g id="node24" class="node"><title>lightoil</title>
<polygon fill="none" stroke="black" points="88,-292.5 88,-328.5 152,-328.5 152,-292.5 88,-292.5"/>
<text text-anchor="middle" x="120" y="-306.8" font-family="Times,serif" font-size="14.00">Light oil</text>
</g>
<!-- lightoil&#45;&gt;solidfuel -->
<g id="edge31" class="edge"><title>lightoil&#45;&gt;solidfuel</title>
<path fill="none" stroke="black" d="M122.179,-292.313C123.196,-284.289 124.431,-274.547 125.569,-265.569"/>
<polygon fill="black" stroke="black" points="129.056,-265.89 126.841,-255.529 122.112,-265.009 129.056,-265.89"/>
</g>
<!-- accumulator&#45;&gt;satellite -->
<g id="edge33" class="edge"><title>accumulator&#45;&gt;satellite</title>
<path fill="none" stroke="black" d="M670.895,-150.56C625.995,-137.387 556.975,-117.137 513.444,-104.366"/>
<polygon fill="black" stroke="black" points="514.34,-100.981 503.759,-101.524 512.37,-107.698 514.34,-100.981"/>
</g>
<!-- battery&#45;&gt;accumulator -->
<g id="edge39" class="edge"><title>battery&#45;&gt;accumulator</title>
<path fill="none" stroke="black" d="M715,-219.313C715,-211.289 715,-201.547 715,-192.569"/>
<polygon fill="black" stroke="black" points="718.5,-192.529 715,-182.529 711.5,-192.529 718.5,-192.529"/>
</g>
<!-- radar&#45;&gt;satellite -->
<g id="edge36" class="edge"><title>radar&#45;&gt;satellite</title>
<path fill="none" stroke="black" d="M863.536,-219.443C843.598,-198.596 806.843,-163.894 768,-146 683.265,-106.963 572.572,-96.3635 513.809,-93.5165"/>
<polygon fill="black" stroke="black" points="513.945,-90.0192 503.802,-93.0831 513.642,-97.0127 513.945,-90.0192"/>
</g>
<!-- solarpanel&#45;&gt;satellite -->
<g id="edge38" class="edge"><title>solarpanel&#45;&gt;satellite</title>
<path fill="none" stroke="black" d="M445.678,-219.416C450.992,-194.733 460.869,-148.851 467.179,-119.541"/>
<polygon fill="black" stroke="black" points="470.644,-120.075 469.327,-109.562 463.801,-118.601 470.644,-120.075"/>
</g>
</g>
</svg>
