<?xml version="1.0" encoding="UTF-8" standalone="no"?>
<!DOCTYPE svg PUBLIC "-//W3C//DTD SVG 1.1//EN"
 "http://www.w3.org/Graphics/SVG/1.1/DTD/svg11.dtd">
<!-- Generated by graphviz version 2.38.0 (20140413.2041)
 -->
<!-- Title: structs Pages: 1 -->
<svg width="415pt" height="451pt"
 viewBox="0.00 0.00 415.19 451.00" xmlns="http://www.w3.org/2000/svg" xmlns:xlink="http://www.w3.org/1999/xlink">
<g id="graph0" class="graph" transform="scale(1 1) rotate(0) translate(4 447)">
<title>structs</title>
<polygon fill="white" stroke="none" points="-4,4 -4,-447 411.188,-447 411.188,4 -4,4"/>
<!-- NGINX -->
<g id="node1" class="node"><title>NGINX</title>
<ellipse fill="lightgrey" stroke="black" cx="230.443" cy="-338" rx="38.9931" ry="18"/>
<text text-anchor="middle" x="230.443" y="-334.3" font-family="Times,serif" font-size="14.00">NGINX</text>
</g>
<!-- NGINX Unit -->
<g id="node2" class="node"><title>NGINX Unit</title>
<ellipse fill="lightgrey" stroke="black" cx="252.443" cy="-265" rx="57.3905" ry="18"/>
<text text-anchor="middle" x="252.443" y="-261.3" font-family="Times,serif" font-size="14.00">NGINX Unit</text>
</g>
<!-- NGINX&#45;&gt;NGINX Unit -->
<g id="edge1" class="edge"><title>NGINX&#45;&gt;NGINX Unit</title>
<path fill="none" stroke="black" d="M235.769,-319.813C238.282,-311.702 241.34,-301.836 244.146,-292.777"/>
<polygon fill="black" stroke="black" points="247.55,-293.617 247.167,-283.029 240.864,-291.545 247.55,-293.617"/>
</g>
<!-- Application(s) -->
<g id="node3" class="node"><title>Application(s)</title>
<ellipse fill="lightgrey" stroke="black" cx="345.443" cy="-192" rx="61.99" ry="18"/>
<text text-anchor="middle" x="345.443" y="-188.3" font-family="Times,serif" font-size="14.00">Application(s)</text>
</g>
<!-- NGINX Unit&#45;&gt;Application(s) -->
<g id="edge2" class="edge"><title>NGINX Unit&#45;&gt;Application(s)</title>
<path fill="none" stroke="black" d="M273.547,-247.889C286.151,-238.267 302.346,-225.902 316.173,-215.346"/>
<polygon fill="black" stroke="black" points="318.599,-217.897 324.424,-209.047 314.352,-212.333 318.599,-217.897"/>
</g>
<!-- Base -->
<g id="node4" class="node"><title>Base</title>
<ellipse fill="lightgrey" stroke="black" cx="192.443" cy="-105" rx="27.8951" ry="18"/>
<text text-anchor="middle" x="192.443" y="-101.3" font-family="Times,serif" font-size="14.00">Base</text>
</g>
<!-- NGINX Unit&#45;&gt;Base -->
<g id="edge8" class="edge"><title>NGINX Unit&#45;&gt;Base</title>
<path fill="none" stroke="black" d="M231.75,-248.067C220.749,-238.35 208.145,-224.943 201.443,-210 190.532,-185.668 189.19,-154.95 190.022,-133.224"/>
<polygon fill="black" stroke="black" points="193.527,-133.238 190.595,-123.057 186.538,-132.844 193.527,-133.238"/>
<text text-anchor="middle" x="237.943" y="-188.3" font-family="Times,serif" font-size="14.00">Daemontools</text>
</g>
<!-- Application(s)&#45;&gt;Base -->
<g id="edge3" class="edge"><title>Application(s)&#45;&gt;Base</title>
<path fill="none" stroke="black" d="M318.09,-175.804C291.062,-160.788 249.839,-137.887 222.053,-122.45"/>
<polygon fill="black" stroke="black" points="223.626,-119.32 213.185,-117.523 220.226,-125.439 223.626,-119.32"/>
</g>
<!-- Kernel -->
<g id="node5" class="node"><title>Kernel</title>
<ellipse fill="lightgrey" stroke="black" cx="125.443" cy="-18" rx="34.394" ry="18"/>
<text text-anchor="middle" x="125.443" y="-14.3" font-family="Times,serif" font-size="14.00">Kernel</text>
</g>
<!-- Base&#45;&gt;Kernel -->
<g id="edge4" class="edge"><title>Base&#45;&gt;Kernel</title>
<path fill="none" stroke="black" d="M184.457,-87.4443C179.183,-77.3034 171.732,-64.3329 163.443,-54 159.704,-49.3386 155.338,-44.7328 150.924,-40.4695"/>
<polygon fill="black" stroke="black" points="153.275,-37.877 143.552,-33.6686 148.528,-43.0219 153.275,-37.877"/>
</g>
<!-- DNS(SEC) / DANE -->
<g id="node6" class="node"><title>DNS(SEC) / DANE</title>
<ellipse fill="none" stroke="black" cx="230.443" cy="-425" rx="81.7856" ry="18"/>
<text text-anchor="middle" x="230.443" y="-421.3" font-family="Times,serif" font-size="14.00">DNS(SEC) / DANE</text>
</g>
<!-- DNS(SEC) / DANE&#45;&gt;NGINX -->
<g id="edge5" class="edge"><title>DNS(SEC) / DANE&#45;&gt;NGINX</title>
<path fill="none" stroke="black" d="M230.443,-406.799C230.443,-395.163 230.443,-379.548 230.443,-366.237"/>
<polygon fill="black" stroke="black" points="233.944,-366.175 230.443,-356.175 226.944,-366.175 233.944,-366.175"/>
<text text-anchor="middle" x="304.943" y="-377.8" font-family="Times,serif" font-size="14.00">TLS certificate / TLSA RR</text>
</g>
<!-- Buildbot (CI) -->
<g id="node7" class="node"><title>Buildbot (CI)</title>
<ellipse fill="none" stroke="black" cx="345.443" cy="-338" rx="58.4896" ry="18"/>
<text text-anchor="middle" x="345.443" y="-334.3" font-family="Times,serif" font-size="14.00">Buildbot (CI)</text>
</g>
<!-- Buildbot (CI)&#45;&gt;NGINX Unit -->
<g id="edge7" class="edge"><title>Buildbot (CI)&#45;&gt;NGINX Unit</title>
<path fill="none" stroke="black" d="M324.34,-320.889C311.648,-311.199 295.313,-298.728 281.422,-288.123"/>
<polygon fill="black" stroke="black" points="283.215,-285.089 273.143,-281.803 278.967,-290.653 283.215,-285.089"/>
</g>
<!-- Buildbot (CI)&#45;&gt;Application(s) -->
<g id="edge6" class="edge"><title>Buildbot (CI)&#45;&gt;Application(s)</title>
<path fill="none" stroke="black" d="M345.443,-319.916C345.443,-295.341 345.443,-249.753 345.443,-220.427"/>
<polygon fill="black" stroke="black" points="348.944,-220.062 345.443,-210.062 341.944,-220.062 348.944,-220.062"/>
</g>
<!-- OpenBSD Router -->
<g id="node8" class="node"><title>OpenBSD Router</title>
<ellipse fill="none" stroke="black" cx="73.4435" cy="-105" rx="73.387" ry="18"/>
<text text-anchor="middle" x="73.4435" y="-101.3" font-family="Times,serif" font-size="14.00">OpenBSD Router</text>
</g>
<!-- OpenBSD Router&#45;&gt;Kernel -->
<g id="edge9" class="edge"><title>OpenBSD Router&#45;&gt;Kernel</title>
<path fill="none" stroke="black" d="M76.7216,-86.9061C79.1757,-76.8088 83.2041,-64.0725 89.4435,-54 92.3698,-49.2759 96.0711,-44.7341 99.98,-40.5769"/>
<polygon fill="black" stroke="black" points="102.445,-43.0617 107.118,-33.5528 97.5351,-38.0724 102.445,-43.0617"/>
<text text-anchor="middle" x="126.443" y="-57.8" font-family="Times,serif" font-size="14.00">IPv6 SLAAC</text>
</g>
<!-- OpenBSD Postfix -->
<g id="node9" class="node"><title>OpenBSD Postfix</title>
<ellipse fill="none" stroke="black" cx="82.4435" cy="-192" rx="74.187" ry="18"/>
<text text-anchor="middle" x="82.4435" y="-188.3" font-family="Times,serif" font-size="14.00">OpenBSD Postfix</text>
</g>
<!-- OpenBSD Postfix&#45;&gt;Base -->
<g id="edge10" class="edge"><title>OpenBSD Postfix&#45;&gt;Base</title>
<path fill="none" stroke="black" d="M80.4099,-173.763C80.1286,-163.102 81.6827,-149.816 89.4435,-141 109.533,-118.178 126.866,-133.382 155.443,-123 157.337,-122.312 159.268,-121.567 161.204,-120.785"/>
<polygon fill="black" stroke="black" points="162.971,-123.835 170.78,-116.674 160.21,-117.403 162.971,-123.835"/>
<text text-anchor="middle" x="133.943" y="-144.8" font-family="Times,serif" font-size="14.00">(S/MIME) Mail</text>
</g>
</g>
</svg>
