<?xml version="1.0" encoding="UTF-8" standalone="no"?>
<!DOCTYPE svg PUBLIC "-//W3C//DTD SVG 1.1//EN"
 "http://www.w3.org/Graphics/SVG/1.1/DTD/svg11.dtd">
<!-- Generated by graphviz version 2.26.3 (20100126.1600)
 -->
<!-- Title: structs Pages: 1 -->
<svg width="326pt" height="194pt"
 viewBox="0.00 0.00 326.00 194.00" xmlns="http://www.w3.org/2000/svg" xmlns:xlink="http://www.w3.org/1999/xlink">
<g id="graph1" class="graph" transform="scale(1 1) rotate(0) translate(4 190)">
<title>structs</title>
<polygon fill="white" stroke="white" points="-4,5 -4,-190 323,-190 323,5 -4,5"/>
<!-- dnskey -->
<g id="node1" class="node"><title>dnskey</title>
<polygon fill="none" stroke="black" points="99.5,-75 99.5,-111 218.5,-111 218.5,-75 99.5,-75"/>
<text text-anchor="middle" x="159" y="-88.9" font-family="Times Roman,serif" font-size="14.00">DNSKEY RRset</text>
</g>
<!-- verified -->
<g id="node4" class="node"><title>verified</title>
<polygon fill="none" stroke="black" points="93,-1 93,-37 225,-37 225,-1 93,-1"/>
<text text-anchor="middle" x="159" y="-14.9" font-family="Times Roman,serif" font-size="14.00">RRSIG Signature</text>
</g>
<!-- dnskey&#45;&gt;verified -->
<g id="edge6" class="edge"><title>dnskey&#45;&gt;verified</title>
<path fill="none" stroke="black" d="M159,-74.7079C159,-66.4635 159,-56.5376 159,-47.3622"/>
<polygon fill="black" stroke="black" points="162.5,-47.0817 159,-37.0817 155.5,-47.0818 162.5,-47.0817"/>
</g>
<!-- struct1 -->
<g id="node2" class="node"><title>struct1</title>
<polygon fill="none" stroke="black" points="0,-149 0,-185 150,-185 150,-149 0,-149"/>
<text text-anchor="middle" x="75" y="-162.9" font-family="Times Roman,serif" font-size="14.00">DNSKEY Public KSK</text>
</g>
<!-- struct1&#45;&gt;dnskey -->
<g id="edge2" class="edge"><title>struct1&#45;&gt;dnskey</title>
<path fill="none" stroke="black" stroke-dasharray="1,5" d="M95.7641,-148.708C106.343,-139.388 119.362,-127.92 130.831,-117.816"/>
<polygon fill="black" stroke="black" points="133.285,-120.318 138.475,-111.082 128.658,-115.066 133.285,-120.318"/>
</g>
<!-- struct2 -->
<g id="node3" class="node"><title>struct2</title>
<polygon fill="none" stroke="black" points="167.5,-149 167.5,-185 318.5,-185 318.5,-149 167.5,-149"/>
<text text-anchor="middle" x="243" y="-162.9" font-family="Times Roman,serif" font-size="14.00">DNSKEY Public ZSK</text>
</g>
<!-- struct2&#45;&gt;dnskey -->
<g id="edge4" class="edge"><title>struct2&#45;&gt;dnskey</title>
<path fill="none" stroke="black" stroke-dasharray="1,5" d="M222.236,-148.708C211.657,-139.388 198.638,-127.92 187.169,-117.816"/>
<polygon fill="black" stroke="black" points="189.342,-115.066 179.525,-111.082 184.715,-120.318 189.342,-115.066"/>
</g>
</g>
</svg>
