<?xml version="1.0" encoding="UTF-8" standalone="no"?>
<!DOCTYPE svg PUBLIC "-//W3C//DTD SVG 1.1//EN"
 "http://www.w3.org/Graphics/SVG/1.1/DTD/svg11.dtd">
<!-- Generated by graphviz version 2.26.3 (20100126.1600)
 -->
<!-- Title: structs Pages: 1 -->
<svg width="553pt" height="120pt"
 viewBox="0.00 0.00 553.00 120.00" xmlns="http://www.w3.org/2000/svg" xmlns:xlink="http://www.w3.org/1999/xlink">
<g id="graph1" class="graph" transform="scale(1 1) rotate(0) translate(4 116)">
<title>structs</title>
<polygon fill="white" stroke="white" points="-4,5 -4,-116 550,-116 550,5 -4,5"/>
<!-- dnskey -->
<g id="node1" class="node"><title>dnskey</title>
<polygon fill="none" stroke="black" points="6.5,-75 6.5,-111 125.5,-111 125.5,-75 6.5,-75"/>
<text text-anchor="middle" x="66" y="-88.9" font-family="Times Roman,serif" font-size="14.00">DNSKEY RRset</text>
</g>
<!-- verified -->
<g id="node4" class="node"><title>verified</title>
<polygon fill="none" stroke="black" points="0,-1 0,-37 132,-37 132,-1 0,-1"/>
<text text-anchor="middle" x="66" y="-14.9" font-family="Times Roman,serif" font-size="14.00">RRSIG Signature</text>
</g>
<!-- dnskey&#45;&gt;verified -->
<g id="edge8" class="edge"><title>dnskey&#45;&gt;verified</title>
<path fill="none" stroke="black" d="M66,-74.7079C66,-66.4635 66,-56.5376 66,-47.3622"/>
<polygon fill="black" stroke="black" points="69.5001,-47.0817 66,-37.0817 62.5001,-47.0818 69.5001,-47.0817"/>
</g>
<!-- struct1 -->
<g id="node2" class="node"><title>struct1</title>
<polygon fill="none" stroke="black" points="143,-75 143,-111 293,-111 293,-75 143,-75"/>
<text text-anchor="middle" x="218" y="-88.9" font-family="Times Roman,serif" font-size="14.00">DNSKEY Public KSK</text>
</g>
<!-- resolve -->
<g id="node6" class="node"><title>resolve</title>
<polygon fill="none" stroke="black" points="353,-1 353,-37 419,-37 419,-1 353,-1"/>
<text text-anchor="middle" x="386" y="-14.9" font-family="Times Roman,serif" font-size="14.00">resolve</text>
</g>
<!-- struct1&#45;&gt;resolve -->
<g id="edge2" class="edge"><title>struct1&#45;&gt;resolve</title>
<path fill="none" stroke="black" stroke-dasharray="1,5" d="M259.097,-74.8976C284.793,-63.5794 317.809,-49.0363 343.724,-37.6215"/>
<polygon fill="black" stroke="black" points="345.183,-40.8034 352.924,-33.5693 342.361,-34.3973 345.183,-40.8034"/>
</g>
<!-- struct2 -->
<g id="node3" class="node"><title>struct2</title>
<polygon fill="none" stroke="black" points="310.5,-75 310.5,-111 461.5,-111 461.5,-75 310.5,-75"/>
<text text-anchor="middle" x="386" y="-88.9" font-family="Times Roman,serif" font-size="14.00">DNSKEY Public ZSK</text>
</g>
<!-- struct2&#45;&gt;resolve -->
<g id="edge4" class="edge"><title>struct2&#45;&gt;resolve</title>
<path fill="none" stroke="black" stroke-dasharray="1,5" d="M386,-74.7079C386,-66.4635 386,-56.5376 386,-47.3622"/>
<polygon fill="black" stroke="black" points="389.5,-47.0817 386,-37.0817 382.5,-47.0818 389.5,-47.0817"/>
</g>
<!-- struct3 -->
<g id="node8" class="node"><title>struct3</title>
<polygon fill="none" stroke="black" points="479,-75 479,-111 545,-111 545,-75 479,-75"/>
<text text-anchor="middle" x="512" y="-88.9" font-family="Times Roman,serif" font-size="14.00">struct3</text>
</g>
<!-- struct3&#45;&gt;resolve -->
<g id="edge6" class="edge"><title>struct3&#45;&gt;resolve</title>
<path fill="none" stroke="black" stroke-dasharray="1,5" d="M481.177,-74.8976C464.55,-65.1325 443.835,-52.9668 425.981,-42.4808"/>
<polygon fill="black" stroke="black" points="427.337,-39.2183 416.942,-37.172 423.792,-45.2543 427.337,-39.2183"/>
</g>
</g>
</svg>
