<?xml version="1.0" encoding="UTF-8" standalone="no"?>
<!DOCTYPE svg PUBLIC "-//W3C//DTD SVG 1.1//EN"
 "http://www.w3.org/Graphics/SVG/1.1/DTD/svg11.dtd">
<!-- Generated by graphviz version 2.38.0 (20140413.2041)
 -->
<!-- Title: structs Pages: 1 -->
<svg width="558pt" height="191pt"
 viewBox="0.00 0.00 558.00 191.00" xmlns="http://www.w3.org/2000/svg" xmlns:xlink="http://www.w3.org/1999/xlink">
<g id="graph0" class="graph" transform="scale(1 1) rotate(0) translate(4 187)">
<title>structs</title>
<polygon fill="white" stroke="none" points="-4,4 -4,-187 554,-187 554,4 -4,4"/>
<!-- pubzsk -->
<g id="node1" class="node"><title>pubzsk</title>
<polygon fill="none" stroke="black" points="256,-73.5 256,-109.5 444,-109.5 444,-73.5 256,-73.5"/>
<text text-anchor="middle" x="350" y="-87.8" font-family="Times,serif" font-size="14.00">DNSKEY Verified Public ZSK</text>
</g>
<!-- verified -->
<g id="node7" class="node"><title>verified</title>
<polygon fill="none" stroke="black" points="111.5,-0.5 111.5,-36.5 252.5,-36.5 252.5,-0.5 111.5,-0.5"/>
<text text-anchor="middle" x="182" y="-14.8" font-family="Times,serif" font-size="14.00">Verified AAAA RRset</text>
</g>
<!-- pubzsk&#45;&gt;verified -->
<g id="edge6" class="edge"><title>pubzsk&#45;&gt;verified</title>
<path fill="none" stroke="black" stroke-dasharray="1,5" d="M309.76,-73.4937C286.347,-63.5991 256.642,-51.045 231.768,-40.5327"/>
<polygon fill="black" stroke="black" points="233.068,-37.2825 222.494,-36.6136 230.343,-43.7304 233.068,-37.2825"/>
</g>
<!-- struct1 -->
<g id="node2" class="node"><title>struct1</title>
<polygon fill="none" stroke="black" points="154,-146.5 154,-182.5 262,-182.5 262,-146.5 154,-146.5"/>
<text text-anchor="middle" x="208" y="-160.8" font-family="Times,serif" font-size="14.00">DNSKEY RRset</text>
</g>
<!-- struct1&#45;&gt;pubzsk -->
<g id="edge1" class="edge"><title>struct1&#45;&gt;pubzsk</title>
<path fill="none" stroke="black" stroke-dasharray="1,5" d="M242.013,-146.494C261.453,-136.773 286.027,-124.487 306.819,-114.09"/>
<polygon fill="black" stroke="black" points="308.394,-117.216 315.773,-109.614 305.263,-110.955 308.394,-117.216"/>
</g>
<!-- struct2 -->
<g id="node3" class="node"><title>struct2</title>
<polygon fill="none" stroke="black" points="280,-146.5 280,-182.5 420,-182.5 420,-146.5 280,-146.5"/>
<text text-anchor="middle" x="350" y="-160.8" font-family="Times,serif" font-size="14.00">DNSKEY Public KSK</text>
</g>
<!-- struct2&#45;&gt;pubzsk -->
<g id="edge2" class="edge"><title>struct2&#45;&gt;pubzsk</title>
<path fill="none" stroke="black" stroke-dasharray="1,5" d="M350,-146.313C350,-138.289 350,-128.547 350,-119.569"/>
<polygon fill="black" stroke="black" points="353.5,-119.529 350,-109.529 346.5,-119.529 353.5,-119.529"/>
</g>
<!-- struct3 -->
<g id="node4" class="node"><title>struct3</title>
<polygon fill="none" stroke="black" points="438,-146.5 438,-182.5 550,-182.5 550,-146.5 438,-146.5"/>
<text text-anchor="middle" x="494" y="-160.8" font-family="Times,serif" font-size="14.00">RRSIG Signature</text>
</g>
<!-- struct3&#45;&gt;pubzsk -->
<g id="edge3" class="edge"><title>struct3&#45;&gt;pubzsk</title>
<path fill="none" stroke="black" stroke-dasharray="1,5" d="M459.508,-146.494C439.794,-136.773 414.874,-124.487 393.789,-114.09"/>
<polygon fill="black" stroke="black" points="395.226,-110.897 384.709,-109.614 392.13,-117.175 395.226,-110.897"/>
</g>
<!-- struct4 -->
<g id="node5" class="node"><title>struct4</title>
<polygon fill="none" stroke="black" points="0,-73.5 0,-109.5 108,-109.5 108,-73.5 0,-73.5"/>
<text text-anchor="middle" x="54" y="-87.8" font-family="Times,serif" font-size="14.00">DNSKEY RRset</text>
</g>
<!-- struct4&#45;&gt;verified -->
<g id="edge4" class="edge"><title>struct4&#45;&gt;verified</title>
<path fill="none" stroke="black" stroke-dasharray="1,5" d="M84.6592,-73.4937C101.947,-63.9042 123.739,-51.8167 142.318,-41.5109"/>
<polygon fill="black" stroke="black" points="144.1,-44.5249 151.147,-36.6136 140.705,-38.4036 144.1,-44.5249"/>
</g>
<!-- struct5 -->
<g id="node6" class="node"><title>struct5</title>
<polygon fill="none" stroke="black" points="126,-73.5 126,-109.5 238,-109.5 238,-73.5 126,-73.5"/>
<text text-anchor="middle" x="182" y="-87.8" font-family="Times,serif" font-size="14.00">RRSIG Signature</text>
</g>
<!-- struct5&#45;&gt;verified -->
<g id="edge5" class="edge"><title>struct5&#45;&gt;verified</title>
<path fill="none" stroke="black" stroke-dasharray="1,5" d="M182,-73.3129C182,-65.2895 182,-55.5475 182,-46.5691"/>
<polygon fill="black" stroke="black" points="185.5,-46.5288 182,-36.5288 178.5,-46.5289 185.5,-46.5288"/>
</g>
</g>
</svg>
