<?xml version="1.0" encoding="UTF-8" standalone="no"?>
<!DOCTYPE svg PUBLIC "-//W3C//DTD SVG 1.1//EN"
 "http://www.w3.org/Graphics/SVG/1.1/DTD/svg11.dtd">
<!-- Generated by graphviz version 2.26.3 (20100126.1600)
 -->
<!-- Title: structs Pages: 1 -->
<svg width="622pt" height="194pt"
 viewBox="0.00 0.00 622.00 194.00" xmlns="http://www.w3.org/2000/svg" xmlns:xlink="http://www.w3.org/1999/xlink">
<g id="graph1" class="graph" transform="scale(1 1) rotate(0) translate(4 190)">
<title>structs</title>
<polygon fill="white" stroke="white" points="-4,5 -4,-190 619,-190 619,5 -4,5"/>
<!-- pubzsk -->
<g id="node1" class="node"><title>pubzsk</title>
<polygon fill="none" stroke="black" points="285.5,-75 285.5,-111 492.5,-111 492.5,-75 285.5,-75"/>
<text text-anchor="middle" x="389" y="-88.9" font-family="Times Roman,serif" font-size="14.00">DNSKEY Verified Public ZSK</text>
</g>
<!-- verified -->
<g id="node7" class="node"><title>verified</title>
<polygon fill="none" stroke="black" points="123,-1 123,-37 281,-37 281,-1 123,-1"/>
<text text-anchor="middle" x="202" y="-14.9" font-family="Times Roman,serif" font-size="14.00">Verified AAAA RRset</text>
</g>
<!-- pubzsk&#45;&gt;verified -->
<g id="edge12" class="edge"><title>pubzsk&#45;&gt;verified</title>
<path fill="none" stroke="black" stroke-dasharray="1,5" d="M343.255,-74.8976C317.236,-64.6015 284.474,-51.6366 257.053,-40.7857"/>
<polygon fill="black" stroke="black" points="258.183,-37.4688 247.597,-37.0436 255.607,-43.9777 258.183,-37.4688"/>
</g>
<!-- struct1 -->
<g id="node2" class="node"><title>struct1</title>
<polygon fill="none" stroke="black" points="177.5,-149 177.5,-185 296.5,-185 296.5,-149 177.5,-149"/>
<text text-anchor="middle" x="237" y="-162.9" font-family="Times Roman,serif" font-size="14.00">DNSKEY RRset</text>
</g>
<!-- struct1&#45;&gt;pubzsk -->
<g id="edge2" class="edge"><title>struct1&#45;&gt;pubzsk</title>
<path fill="none" stroke="black" stroke-dasharray="1,5" d="M274.183,-148.898C294.87,-138.826 320.802,-126.202 342.785,-115.499"/>
<polygon fill="black" stroke="black" points="344.478,-118.568 351.937,-111.044 341.414,-112.274 344.478,-118.568"/>
</g>
<!-- struct2 -->
<g id="node3" class="node"><title>struct2</title>
<polygon fill="none" stroke="black" points="314,-149 314,-185 464,-185 464,-149 314,-149"/>
<text text-anchor="middle" x="389" y="-162.9" font-family="Times Roman,serif" font-size="14.00">DNSKEY Public KSK</text>
</g>
<!-- struct2&#45;&gt;pubzsk -->
<g id="edge4" class="edge"><title>struct2&#45;&gt;pubzsk</title>
<path fill="none" stroke="black" stroke-dasharray="1,5" d="M389,-148.708C389,-140.464 389,-130.538 389,-121.362"/>
<polygon fill="black" stroke="black" points="392.5,-121.082 389,-111.082 385.5,-121.082 392.5,-121.082"/>
</g>
<!-- struct3 -->
<g id="node4" class="node"><title>struct3</title>
<polygon fill="none" stroke="black" points="482,-149 482,-185 614,-185 614,-149 482,-149"/>
<text text-anchor="middle" x="548" y="-162.9" font-family="Times Roman,serif" font-size="14.00">RRSIG Signature</text>
</g>
<!-- struct3&#45;&gt;pubzsk -->
<g id="edge6" class="edge"><title>struct3&#45;&gt;pubzsk</title>
<path fill="none" stroke="black" stroke-dasharray="1,5" d="M509.104,-148.898C487.368,-138.781 460.096,-126.089 437.036,-115.356"/>
<polygon fill="black" stroke="black" points="438.313,-112.09 427.769,-111.044 435.359,-118.436 438.313,-112.09"/>
</g>
<!-- struct4 -->
<g id="node5" class="node"><title>struct4</title>
<polygon fill="none" stroke="black" points="-0.5,-75 -0.5,-111 118.5,-111 118.5,-75 -0.5,-75"/>
<text text-anchor="middle" x="59" y="-88.9" font-family="Times Roman,serif" font-size="14.00">DNSKEY RRset</text>
</g>
<!-- struct4&#45;&gt;verified -->
<g id="edge8" class="edge"><title>struct4&#45;&gt;verified</title>
<path fill="none" stroke="black" stroke-dasharray="1,5" d="M93.9817,-74.8976C113.198,-64.9533 137.226,-52.5196 157.737,-41.9053"/>
<polygon fill="black" stroke="black" points="159.611,-44.8765 166.884,-37.172 156.394,-38.6595 159.611,-44.8765"/>
</g>
<!-- struct5 -->
<g id="node6" class="node"><title>struct5</title>
<polygon fill="none" stroke="black" points="136,-75 136,-111 268,-111 268,-75 136,-75"/>
<text text-anchor="middle" x="202" y="-88.9" font-family="Times Roman,serif" font-size="14.00">RRSIG Signature</text>
</g>
<!-- struct5&#45;&gt;verified -->
<g id="edge10" class="edge"><title>struct5&#45;&gt;verified</title>
<path fill="none" stroke="black" stroke-dasharray="1,5" d="M202,-74.7079C202,-66.4635 202,-56.5376 202,-47.3622"/>
<polygon fill="black" stroke="black" points="205.5,-47.0817 202,-37.0817 198.5,-47.0818 205.5,-47.0817"/>
</g>
</g>
</svg>
