<?xml version="1.0" encoding="UTF-8" standalone="no"?>
<!DOCTYPE svg PUBLIC "-//W3C//DTD SVG 1.1//EN"
 "http://www.w3.org/Graphics/SVG/1.1/DTD/svg11.dtd">
<!-- Generated by graphviz version 2.26.3 (20100126.1600)
 -->
<!-- Title: disklayout Pages: 1 -->
<svg width="570pt" height="200pt"
 viewBox="0.00 0.00 570.00 200.00" xmlns="http://www.w3.org/2000/svg" xmlns:xlink="http://www.w3.org/1999/xlink">
<g id="graph1" class="graph" transform="scale(1 1) rotate(0) translate(4 196)">
<title>disklayout</title>
<polygon fill="white" stroke="white" points="-4,5 -4,-196 567,-196 567,5 -4,5"/>
<!-- abc -->
<g id="node1" class="node"><title>abc</title>
<polygon fill="lightgrey" stroke="lightgrey" points="0,-167 0,-192 563,-192 563,-167 0,-167"/>
<polygon fill="none" stroke="black" points="0,-167 0,-192 563,-192 563,-167 0,-167"/>
<text text-anchor="start" x="225" y="-176.233" font-family="Times Roman,serif" font-size="14.00">Control Machine</text>
<polygon fill="none" stroke="black" points="0,-131 0,-167 117,-167 117,-131 0,-131"/>
<text text-anchor="start" x="5.5" y="-145.733" font-family="Times Roman,serif" font-size="14.00">Version Control</text>
<polygon fill="none" stroke="black" points="117,-131 117,-167 209,-167 209,-131 117,-131"/>
<text text-anchor="start" x="122" y="-145.733" font-family="Times Roman,serif" font-size="14.00">Gold Server</text>
<polygon fill="none" stroke="black" points="209,-131 209,-167 362,-167 362,-131 209,-131"/>
<text text-anchor="start" x="214" y="-145.733" font-family="Times Roman,serif" font-size="14.00">Ad Hoc Change Tools</text>
<polygon fill="none" stroke="black" points="362,-131 362,-167 489,-167 489,-131 362,-131"/>
<text text-anchor="start" x="367" y="-145.733" font-family="Times Roman,serif" font-size="14.00">Host Install Tools</text>
<polygon fill="lightgrey" stroke="lightgrey" points="489,-104 489,-149 525,-149 525,-104 489,-104"/>
<polygon fill="none" stroke="black" points="489,-104 489,-149 525,-149 525,-104 489,-104"/>
<text text-anchor="start" x="496" y="-132.733" font-family="Times Roman,serif" font-size="14.00">md</text>
<text text-anchor="start" x="494" y="-115.933" font-family="Times Roman,serif" font-size="14.00">/etc</text>
<polygon fill="lightgrey" stroke="lightgrey" points="525,-104 525,-149 563,-149 563,-104 525,-104"/>
<polygon fill="none" stroke="black" points="525,-104 525,-149 563,-149 563,-104 525,-104"/>
<text text-anchor="start" x="533" y="-132.733" font-family="Times Roman,serif" font-size="14.00">md</text>
<text text-anchor="start" x="530" y="-115.933" font-family="Times Roman,serif" font-size="14.00">/var</text>
</g>
<!-- jails -->
<g id="node3" class="node"><title>jails</title>
<polygon fill="lightgrey" stroke="lightgrey" points="204,-24 204,-68 358,-68 358,-24 204,-24"/>
<polygon fill="none" stroke="black" points="204,-24 204,-68 358,-68 358,-24 204,-24"/>
<text text-anchor="start" x="265" y="-52.2333" font-family="Times Roman,serif" font-size="14.00">base</text>
<text text-anchor="start" x="263" y="-35.4333" font-family="Times Roman,serif" font-size="14.00">ports</text>
<polygon fill="none" stroke="black" points="204,-0 204,-24 257,-24 257,-0 204,-0"/>
<text text-anchor="start" x="215.5" y="-8.73333" font-family="Times Roman,serif" font-size="14.00">Jail1</text>
<polygon fill="none" stroke="black" points="257,-0 257,-24 303,-24 303,-0 257,-0"/>
<text text-anchor="start" x="265" y="-8.73333" font-family="Times Roman,serif" font-size="14.00">Jail2</text>
<polygon fill="none" stroke="black" points="303,-0 303,-24 355,-24 355,-0 303,-0"/>
<text text-anchor="start" x="309.5" y="-8.73333" font-family="Times Roman,serif" font-size="14.00">Jail..n</text>
</g>
<!-- abc&#45;&gt;jails -->
<g id="edge3" class="edge"><title>abc&#45;&gt;jails</title>
<path fill="none" stroke="black" d="M281,-103.925C281,-95.4612 281,-86.5966 281,-78.1314"/>
<polygon fill="black" stroke="black" points="284.5,-78.0577 281,-68.0578 277.5,-78.0578 284.5,-78.0577"/>
</g>
</g>
</svg>
