<?xml version="1.0" encoding="UTF-8" standalone="no"?>
<!DOCTYPE svg PUBLIC "-//W3C//DTD SVG 1.1//EN"
 "http://www.w3.org/Graphics/SVG/1.1/DTD/svg11.dtd">
<!-- Generated by graphviz version 2.38.0 (20140413.2041)
 -->
<!-- Title: structs Pages: 1 -->
<svg width="312pt" height="118pt"
 viewBox="0.00 0.00 311.50 118.00" xmlns="http://www.w3.org/2000/svg" xmlns:xlink="http://www.w3.org/1999/xlink">
<g id="graph0" class="graph" transform="scale(1 1) rotate(0) translate(4 114)">
<title>structs</title>
<polygon fill="white" stroke="none" points="-4,4 -4,-114 307.5,-114 307.5,4 -4,4"/>
<!-- struct1 -->
<g id="node1" class="node"><title>struct1</title>
<polygon fill="none" stroke="black" points="0,-73.5 0,-109.5 168,-109.5 168,-73.5 0,-73.5"/>
<text text-anchor="middle" x="28" y="-87.8" font-family="Times,serif" font-size="14.00">AAAA</text>
<polyline fill="none" stroke="black" points="56,-73.5 56,-109.5 "/>
<text text-anchor="middle" x="84" y="-87.8" font-family="Times,serif" font-size="14.00">AAAA</text>
<polyline fill="none" stroke="black" points="112,-73.5 112,-109.5 "/>
<text text-anchor="middle" x="140" y="-87.8" font-family="Times,serif" font-size="14.00">AAAA</text>
</g>
<!-- struct3 -->
<g id="node3" class="node"><title>struct3</title>
<polygon fill="none" stroke="black" points="38,-0.5 38,-36.5 130,-36.5 130,-0.5 38,-0.5"/>
<text text-anchor="middle" x="84" y="-14.8" font-family="Times,serif" font-size="14.00">AAAA RRset</text>
</g>
<!-- struct1&#45;&gt;struct3 -->
<g id="edge1" class="edge"><title>struct1&#45;&gt;struct3</title>
<path fill="none" stroke="black" d="M84,-73.3129C84,-65.2895 84,-55.5475 84,-46.5691"/>
<polygon fill="black" stroke="black" points="87.5001,-46.5288 84,-36.5288 80.5001,-46.5289 87.5001,-46.5288"/>
</g>
<!-- struct2 -->
<g id="node2" class="node"><title>struct2</title>
<polygon fill="none" stroke="black" points="186.5,-73.5 186.5,-109.5 303.5,-109.5 303.5,-73.5 186.5,-73.5"/>
<text text-anchor="middle" x="206" y="-87.8" font-family="Times,serif" font-size="14.00">MX</text>
<polyline fill="none" stroke="black" points="225.5,-73.5 225.5,-109.5 "/>
<text text-anchor="middle" x="245" y="-87.8" font-family="Times,serif" font-size="14.00">MX</text>
<polyline fill="none" stroke="black" points="264.5,-73.5 264.5,-109.5 "/>
<text text-anchor="middle" x="284" y="-87.8" font-family="Times,serif" font-size="14.00">MX</text>
</g>
<!-- struct4 -->
<g id="node4" class="node"><title>struct4</title>
<polygon fill="none" stroke="black" points="207,-0.5 207,-36.5 283,-36.5 283,-0.5 207,-0.5"/>
<text text-anchor="middle" x="245" y="-14.8" font-family="Times,serif" font-size="14.00">MX RRset</text>
</g>
<!-- struct2&#45;&gt;struct4 -->
<g id="edge2" class="edge"><title>struct2&#45;&gt;struct4</title>
<path fill="none" stroke="black" d="M245,-73.3129C245,-65.2895 245,-55.5475 245,-46.5691"/>
<polygon fill="black" stroke="black" points="248.5,-46.5288 245,-36.5288 241.5,-46.5289 248.5,-46.5288"/>
</g>
</g>
</svg>
