<?xml version="1.0" encoding="UTF-8" standalone="no"?>
<!DOCTYPE svg PUBLIC "-//W3C//DTD SVG 1.1//EN"
 "http://www.w3.org/Graphics/SVG/1.1/DTD/svg11.dtd">
<!-- Generated by graphviz version 2.26.3 (20100126.1600)
 -->
<!-- Title: structs Pages: 1 -->
<svg width="312pt" height="120pt"
 viewBox="0.00 0.00 312.00 120.00" xmlns="http://www.w3.org/2000/svg" xmlns:xlink="http://www.w3.org/1999/xlink">
<g id="graph1" class="graph" transform="scale(1 1) rotate(0) translate(4 116)">
<title>structs</title>
<polygon fill="white" stroke="white" points="-4,5 -4,-116 309,-116 309,5 -4,5"/>
<!-- struct1 -->
<g id="node2" class="node"><title>struct1</title>
<polygon fill="none" stroke="black" points="-0.5,-75 -0.5,-111 170.5,-111 170.5,-75 -0.5,-75"/>
<text text-anchor="middle" x="28" y="-88.9" font-family="Times Roman,serif" font-size="14.00">AAAA</text>
<polyline fill="none" stroke="black" points="56.5,-75 56.5,-111 "/>
<text text-anchor="middle" x="85" y="-88.9" font-family="Times Roman,serif" font-size="14.00">AAAA</text>
<polyline fill="none" stroke="black" points="113.5,-75 113.5,-111 "/>
<text text-anchor="middle" x="142" y="-88.9" font-family="Times Roman,serif" font-size="14.00">AAAA</text>
</g>
<!-- struct3 -->
<g id="node5" class="node"><title>struct3</title>
<polygon fill="none" stroke="black" points="34,-1 34,-37 136,-37 136,-1 34,-1"/>
<text text-anchor="middle" x="85" y="-14.9" font-family="Times Roman,serif" font-size="14.00">AAAA RRset</text>
</g>
<!-- struct1&#45;&gt;struct3 -->
<g id="edge4" class="edge"><title>struct1&#45;&gt;struct3</title>
<path fill="none" stroke="black" d="M85,-74.7079C85,-66.4635 85,-56.5376 85,-47.3622"/>
<polygon fill="black" stroke="black" points="88.5001,-47.0817 85,-37.0817 81.5001,-47.0818 88.5001,-47.0817"/>
</g>
<!-- struct2 -->
<g id="node4" class="node"><title>struct2</title>
<polygon fill="none" stroke="black" points="187.5,-75 187.5,-111 304.5,-111 304.5,-75 187.5,-75"/>
<text text-anchor="middle" x="207" y="-88.9" font-family="Times Roman,serif" font-size="14.00">MX</text>
<polyline fill="none" stroke="black" points="226.5,-75 226.5,-111 "/>
<text text-anchor="middle" x="246" y="-88.9" font-family="Times Roman,serif" font-size="14.00">MX</text>
<polyline fill="none" stroke="black" points="265.5,-75 265.5,-111 "/>
<text text-anchor="middle" x="285" y="-88.9" font-family="Times Roman,serif" font-size="14.00">MX</text>
</g>
<!-- struct4 -->
<g id="node6" class="node"><title>struct4</title>
<polygon fill="none" stroke="black" points="204,-1 204,-37 288,-37 288,-1 204,-1"/>
<text text-anchor="middle" x="246" y="-14.9" font-family="Times Roman,serif" font-size="14.00">MX RRset</text>
</g>
<!-- struct2&#45;&gt;struct4 -->
<g id="edge6" class="edge"><title>struct2&#45;&gt;struct4</title>
<path fill="none" stroke="black" d="M246,-74.7079C246,-66.4635 246,-56.5376 246,-47.3622"/>
<polygon fill="black" stroke="black" points="249.5,-47.0817 246,-37.0817 242.5,-47.0818 249.5,-47.0817"/>
</g>
</g>
</svg>
