<?xml version="1.0" encoding="UTF-8" standalone="no"?>
<!DOCTYPE svg PUBLIC "-//W3C//DTD SVG 1.1//EN"
 "http://www.w3.org/Graphics/SVG/1.1/DTD/svg11.dtd">
<!-- Generated by graphviz version 2.26.3 (20100126.1600)
 -->
<!-- Title: SecureInfrastructure Pages: 1 -->
<svg width="547pt" height="780pt"
 viewBox="0.00 0.00 547.00 780.00" xmlns="http://www.w3.org/2000/svg" xmlns:xlink="http://www.w3.org/1999/xlink">
<g id="graph1" class="graph" transform="scale(1 1) rotate(0) translate(4 776)">
<title>SecureInfrastructure</title>
<polygon fill="white" stroke="white" points="-4,5 -4,-776 544,-776 544,5 -4,5"/>
<g id="graph2" class="cluster"><title>cluster1</title>
<polygon fill="none" stroke="blue" points="58,-615 58,-764 196,-764 196,-615 58,-615"/>
<text text-anchor="middle" x="127" y="-747.4" font-family="Times Roman,serif" font-size="14.00">Control Machine</text>
</g>
<g id="graph3" class="cluster"><title>cluster2</title>
<polygon fill="none" stroke="black" points="45,-322 45,-543 415,-543 415,-322 45,-322"/>
<text text-anchor="middle" x="230" y="-526.4" font-family="Times Roman,serif" font-size="14.00">Master/Slave</text>
</g>
<g id="graph4" class="cluster"><title>cluster3</title>
<polygon fill="none" stroke="black" points="100,-237 100,-314 276,-314 276,-237 100,-237"/>
<text text-anchor="middle" x="188" y="-297.4" font-family="Times Roman,serif" font-size="14.00">File Replication Servers</text>
</g>
<g id="graph5" class="cluster"><title>cluster4</title>
<polygon fill="none" stroke="black" points="15,-8 15,-229 531,-229 531,-8 15,-8"/>
<text text-anchor="middle" x="273" y="-212.4" font-family="Times Roman,serif" font-size="14.00">Clients</text>
</g>
<!-- VC -->
<g id="node1" class="node"><title>VC</title>
<polygon fill="none" stroke="black" points="188,-731 66,-731 66,-695 188,-695 188,-731"/>
<text text-anchor="middle" x="127" y="-708.9" font-family="Times Roman,serif" font-size="14.00">Version Control</text>
</g>
<!-- GS -->
<g id="node2" class="node"><title>GS</title>
<polygon fill="none" stroke="black" points="176,-659 78,-659 78,-623 176,-623 176,-659"/>
<text text-anchor="middle" x="127" y="-636.9" font-family="Times Roman,serif" font-size="14.00">Gold Server</text>
</g>
<!-- VC&#45;&gt;GS -->
<g id="edge3" class="edge"><title>VC&#45;&gt;GS</title>
<path fill="none" stroke="black" d="M127,-694.831C127,-687.131 127,-677.974 127,-669.417"/>
<polygon fill="black" stroke="black" points="130.5,-669.413 127,-659.413 123.5,-669.413 130.5,-669.413"/>
</g>
<!-- AHCT -->
<g id="node3" class="node"><title>AHCT</title>
<polygon fill="none" stroke="black" points="160,-587 7.10543e-14,-587 0,-551 160,-551 160,-587"/>
<text text-anchor="middle" x="80" y="-564.9" font-family="Times Roman,serif" font-size="14.00">Ad&#45;Hoc Change Tools</text>
</g>
<!-- GS&#45;&gt;AHCT -->
<g id="edge5" class="edge"><title>GS&#45;&gt;AHCT</title>
<path fill="none" stroke="black" d="M115.14,-622.831C109.837,-614.708 103.476,-604.964 97.6327,-596.012"/>
<polygon fill="black" stroke="black" points="100.417,-593.874 92.0198,-587.413 94.5552,-597.7 100.417,-593.874"/>
</g>
<!-- HIT -->
<g id="node4" class="node"><title>HIT</title>
<polygon fill="none" stroke="black" points="310,-587 178,-587 178,-551 310,-551 310,-587"/>
<text text-anchor="middle" x="244" y="-564.9" font-family="Times Roman,serif" font-size="14.00">Host Install Tools</text>
</g>
<!-- GS&#45;&gt;HIT -->
<g id="edge7" class="edge"><title>GS&#45;&gt;HIT</title>
<path fill="none" stroke="black" d="M156.524,-622.831C171.489,-613.622 189.839,-602.33 205.86,-592.471"/>
<polygon fill="black" stroke="black" points="207.803,-595.385 214.485,-587.163 204.134,-589.423 207.803,-595.385"/>
</g>
<!-- DIR -->
<g id="node5" class="node"><title>DIR</title>
<polygon fill="none" stroke="black" points="234,-510 96,-510 96,-474 234,-474 234,-510"/>
<text text-anchor="middle" x="165" y="-487.9" font-family="Times Roman,serif" font-size="14.00">Directory Servers</text>
</g>
<!-- AHCT&#45;&gt;DIR -->
<g id="edge9" class="edge"><title>AHCT&#45;&gt;DIR</title>
<path fill="none" stroke="black" d="M100.144,-550.752C111.259,-540.683 125.226,-528.031 137.349,-517.049"/>
<polygon fill="black" stroke="black" points="139.939,-519.425 145.001,-510.117 135.24,-514.237 139.939,-519.425"/>
</g>
<!-- HIT&#45;&gt;DIR -->
<g id="edge11" class="edge"><title>HIT&#45;&gt;DIR</title>
<path fill="none" stroke="black" d="M225.278,-550.752C215.046,-540.779 202.214,-528.272 191.022,-517.363"/>
<polygon fill="black" stroke="black" points="193.192,-514.59 183.588,-510.117 188.306,-519.603 193.192,-514.59"/>
</g>
<!-- AUTH -->
<g id="node6" class="node"><title>AUTH</title>
<polygon fill="none" stroke="black" points="229,-438 53,-438 53,-402 229,-402 229,-438"/>
<text text-anchor="middle" x="141" y="-415.9" font-family="Times Roman,serif" font-size="14.00">Authentication Servers</text>
</g>
<!-- DIR&#45;&gt;AUTH -->
<g id="edge14" class="edge"><title>DIR&#45;&gt;AUTH</title>
<path fill="none" stroke="black" d="M158.944,-473.831C156.349,-466.046 153.258,-456.773 150.378,-448.135"/>
<polygon fill="black" stroke="black" points="153.62,-446.793 147.138,-438.413 146.98,-449.007 153.62,-446.793"/>
</g>
<!-- TIME -->
<g id="node7" class="node"><title>TIME</title>
<polygon fill="none" stroke="black" points="353,-438 247,-438 247,-402 353,-402 353,-438"/>
<text text-anchor="middle" x="300" y="-415.9" font-family="Times Roman,serif" font-size="14.00">Time Servers</text>
</g>
<!-- DIR&#45;&gt;TIME -->
<g id="edge16" class="edge"><title>DIR&#45;&gt;TIME</title>
<path fill="none" stroke="black" d="M199.066,-473.831C216.653,-464.452 238.292,-452.911 257.017,-442.924"/>
<polygon fill="black" stroke="black" points="258.768,-445.957 265.945,-438.163 255.474,-439.781 258.768,-445.957"/>
</g>
<!-- NFS -->
<g id="node8" class="node"><title>NFS</title>
<polygon fill="none" stroke="black" points="213,-366 53,-366 53,-330 213,-330 213,-366"/>
<text text-anchor="middle" x="133" y="-343.9" font-family="Times Roman,serif" font-size="14.00">Network File Servers</text>
</g>
<!-- AUTH&#45;&gt;NFS -->
<g id="edge18" class="edge"><title>AUTH&#45;&gt;NFS</title>
<path fill="none" stroke="black" d="M138.981,-401.831C138.126,-394.131 137.108,-384.974 136.157,-376.417"/>
<polygon fill="black" stroke="black" points="139.629,-375.966 135.046,-366.413 132.672,-376.739 139.629,-375.966"/>
</g>
<!-- TIME&#45;&gt;NFS -->
<g id="edge20" class="edge"><title>TIME&#45;&gt;NFS</title>
<path fill="none" stroke="black" d="M257.859,-401.831C235.524,-392.202 207.906,-380.295 184.329,-370.13"/>
<polygon fill="black" stroke="black" points="185.407,-366.783 174.838,-366.038 182.635,-373.211 185.407,-366.783"/>
</g>
<!-- FRS -->
<g id="node9" class="node"><title>FRS</title>
<polygon fill="none" stroke="black" points="407,-366 231,-366 231,-330 407,-330 407,-366"/>
<text text-anchor="middle" x="319" y="-343.9" font-family="Times Roman,serif" font-size="14.00">File Replication Servers</text>
</g>
<!-- TIME&#45;&gt;FRS -->
<g id="edge22" class="edge"><title>TIME&#45;&gt;FRS</title>
<path fill="none" stroke="black" d="M304.795,-401.831C306.849,-394.046 309.296,-384.773 311.576,-376.135"/>
<polygon fill="black" stroke="black" points="314.973,-376.975 314.141,-366.413 308.205,-375.189 314.973,-376.975"/>
</g>
<!-- CFA -->
<g id="node10" class="node"><title>CFA</title>
<polygon fill="none" stroke="black" points="255,-281 121,-281 121,-245 255,-245 255,-281"/>
<text text-anchor="middle" x="188" y="-258.9" font-family="Times Roman,serif" font-size="14.00">Client File Access</text>
</g>
<!-- NFS&#45;&gt;CFA -->
<g id="edge25" class="edge"><title>NFS&#45;&gt;CFA</title>
<path fill="none" stroke="black" d="M144.664,-329.974C152.248,-318.254 162.269,-302.767 170.764,-289.638"/>
<polygon fill="black" stroke="black" points="173.859,-291.297 176.353,-281 167.982,-287.495 173.859,-291.297"/>
</g>
<!-- FRS&#45;&gt;CFA -->
<g id="edge27" class="edge"><title>FRS&#45;&gt;CFA</title>
<path fill="none" stroke="black" d="M291.218,-329.974C271.679,-317.296 245.347,-300.21 224.17,-286.469"/>
<polygon fill="black" stroke="black" points="226.036,-283.507 215.742,-281 222.225,-289.38 226.036,-283.507"/>
</g>
<!-- COSU -->
<g id="node11" class="node"><title>COSU</title>
<polygon fill="none" stroke="black" points="256,-196 120,-196 120,-160 256,-160 256,-196"/>
<text text-anchor="middle" x="188" y="-173.9" font-family="Times Roman,serif" font-size="14.00">Client OS Update</text>
</g>
<!-- CFA&#45;&gt;COSU -->
<g id="edge30" class="edge"><title>CFA&#45;&gt;COSU</title>
<path fill="none" stroke="black" d="M188,-244.974C188,-233.704 188,-218.952 188,-206.163"/>
<polygon fill="black" stroke="black" points="191.5,-206 188,-196 184.5,-206 191.5,-206"/>
</g>
<!-- CCM -->
<g id="node12" class="node"><title>CCM</title>
<polygon fill="none" stroke="black" points="313,-124 63,-124 63,-88 313,-88 313,-124"/>
<text text-anchor="middle" x="188" y="-101.9" font-family="Times Roman,serif" font-size="14.00">Client Configuration Management</text>
</g>
<!-- COSU&#45;&gt;CCM -->
<g id="edge32" class="edge"><title>COSU&#45;&gt;CCM</title>
<path fill="none" stroke="black" d="M188,-159.831C188,-152.131 188,-142.974 188,-134.417"/>
<polygon fill="black" stroke="black" points="191.5,-134.413 188,-124.413 184.5,-134.413 191.5,-134.413"/>
</g>
<!-- MAIL -->
<g id="node13" class="node"><title>MAIL</title>
<polygon fill="none" stroke="black" points="77,-52 23,-52 23,-16 77,-16 77,-52"/>
<text text-anchor="middle" x="50" y="-29.9" font-family="Times Roman,serif" font-size="14.00">Mail</text>
</g>
<!-- CCM&#45;&gt;MAIL -->
<g id="edge34" class="edge"><title>CCM&#45;&gt;MAIL</title>
<path fill="none" stroke="black" d="M153.177,-87.8314C132.82,-77.2103 107.153,-63.8188 86.5119,-53.0497"/>
<polygon fill="black" stroke="black" points="87.9039,-49.8282 77.419,-48.3056 84.6659,-56.0343 87.9039,-49.8282"/>
</g>
<!-- PRNT -->
<g id="node14" class="node"><title>PRNT</title>
<polygon fill="none" stroke="black" points="165,-52 95,-52 95,-16 165,-16 165,-52"/>
<text text-anchor="middle" x="130" y="-29.9" font-family="Times Roman,serif" font-size="14.00">Printing</text>
</g>
<!-- CCM&#45;&gt;PRNT -->
<g id="edge36" class="edge"><title>CCM&#45;&gt;PRNT</title>
<path fill="none" stroke="black" d="M173.364,-87.8314C166.684,-79.5386 158.643,-69.557 151.31,-60.4533"/>
<polygon fill="black" stroke="black" points="153.832,-58.0052 144.833,-52.4133 148.381,-62.3965 153.832,-58.0052"/>
</g>
<!-- MONT -->
<g id="node15" class="node"><title>MONT</title>
<polygon fill="none" stroke="black" points="273,-52 183,-52 183,-16 273,-16 273,-52"/>
<text text-anchor="middle" x="228" y="-29.9" font-family="Times Roman,serif" font-size="14.00">Monitoring</text>
</g>
<!-- CCM&#45;&gt;MONT -->
<g id="edge38" class="edge"><title>CCM&#45;&gt;MONT</title>
<path fill="none" stroke="black" d="M198.094,-87.8314C202.56,-79.7925 207.907,-70.1666 212.838,-61.2918"/>
<polygon fill="black" stroke="black" points="215.973,-62.8546 217.77,-52.4133 209.854,-59.4551 215.973,-62.8546"/>
</g>
<!-- CAM -->
<g id="node16" class="node"><title>CAM</title>
<polygon fill="none" stroke="black" points="523,-52 291,-52 291,-16 523,-16 523,-52"/>
<text text-anchor="middle" x="407" y="-29.9" font-family="Times Roman,serif" font-size="14.00">Client Application Management</text>
</g>
<!-- CCM&#45;&gt;CAM -->
<g id="edge40" class="edge"><title>CCM&#45;&gt;CAM</title>
<path fill="none" stroke="black" d="M242.98,-87.9243C273.179,-77.9959 310.806,-65.6255 342.4,-55.2382"/>
<polygon fill="black" stroke="black" points="343.59,-58.5313 351.997,-52.0831 341.404,-51.8815 343.59,-58.5313"/>
</g>
</g>
</svg>
