<?xml version="1.0" encoding="UTF-8" standalone="no"?>
<!DOCTYPE svg PUBLIC "-//W3C//DTD SVG 1.1//EN"
 "http://www.w3.org/Graphics/SVG/1.1/DTD/svg11.dtd">
<!-- Generated by graphviz version 2.26.3 (20100126.1600)
 -->
<!-- Title: SecureInfrastructure Pages: 1 -->
<svg width="533pt" height="692pt"
 viewBox="0.00 0.00 533.00 692.00" xmlns="http://www.w3.org/2000/svg" xmlns:xlink="http://www.w3.org/1999/xlink">
<g id="graph1" class="graph" transform="scale(1 1) rotate(0) translate(4 688)">
<title>SecureInfrastructure</title>
<polygon fill="white" stroke="white" points="-4,5 -4,-688 530,-688 530,5 -4,5"/>
<!-- VC -->
<g id="node1" class="node"><title>VC</title>
<polygon fill="none" stroke="black" points="228,-684 106,-684 106,-648 228,-648 228,-684"/>
<text text-anchor="middle" x="167" y="-661.9" font-family="Times Roman,serif" font-size="14.00">Version Control</text>
</g>
<!-- CM -->
<g id="node2" class="node"><title>CM</title>
<polygon fill="none" stroke="black" points="269,-612 65,-612 65,-576 269,-576 269,-612"/>
<text text-anchor="middle" x="167" y="-589.9" font-family="Times Roman,serif" font-size="14.00">Configuration Management</text>
</g>
<!-- VC&#45;&gt;CM -->
<g id="edge2" class="edge"><title>VC&#45;&gt;CM</title>
<path fill="none" stroke="black" d="M167,-647.831C167,-640.131 167,-630.974 167,-622.417"/>
<polygon fill="black" stroke="black" points="170.5,-622.413 167,-612.413 163.5,-622.413 170.5,-622.413"/>
</g>
<!-- AHCT -->
<g id="node3" class="node"><title>AHCT</title>
<polygon fill="none" stroke="black" points="165,-540 5,-540 5,-504 165,-504 165,-540"/>
<text text-anchor="middle" x="85" y="-517.9" font-family="Times Roman,serif" font-size="14.00">Ad&#45;Hoc Change Tools</text>
</g>
<!-- CM&#45;&gt;AHCT -->
<g id="edge4" class="edge"><title>CM&#45;&gt;AHCT</title>
<path fill="none" stroke="black" d="M146.308,-575.831C136.305,-567.048 124.145,-556.371 113.3,-546.849"/>
<polygon fill="black" stroke="black" points="115.509,-544.131 105.685,-540.163 110.891,-549.391 115.509,-544.131"/>
</g>
<!-- HIT -->
<g id="node4" class="node"><title>HIT</title>
<polygon fill="none" stroke="black" points="315,-540 183,-540 183,-504 315,-504 315,-540"/>
<text text-anchor="middle" x="249" y="-517.9" font-family="Times Roman,serif" font-size="14.00">Host Install Tools</text>
</g>
<!-- CM&#45;&gt;HIT -->
<g id="edge6" class="edge"><title>CM&#45;&gt;HIT</title>
<path fill="none" stroke="black" d="M187.692,-575.831C197.695,-567.048 209.855,-556.371 220.7,-546.849"/>
<polygon fill="black" stroke="black" points="223.109,-549.391 228.315,-540.163 218.491,-544.131 223.109,-549.391"/>
</g>
<!-- DIR -->
<g id="node5" class="node"><title>DIR</title>
<polygon fill="none" stroke="black" points="236,-468 98,-468 98,-432 236,-432 236,-468"/>
<text text-anchor="middle" x="167" y="-445.9" font-family="Times Roman,serif" font-size="14.00">Directory Servers</text>
</g>
<!-- AHCT&#45;&gt;DIR -->
<g id="edge8" class="edge"><title>AHCT&#45;&gt;DIR</title>
<path fill="none" stroke="black" d="M105.692,-503.831C115.695,-495.048 127.855,-484.371 138.7,-474.849"/>
<polygon fill="black" stroke="black" points="141.109,-477.391 146.315,-468.163 136.491,-472.131 141.109,-477.391"/>
</g>
<!-- HIT&#45;&gt;DIR -->
<g id="edge10" class="edge"><title>HIT&#45;&gt;DIR</title>
<path fill="none" stroke="black" d="M228.308,-503.831C218.305,-495.048 206.145,-484.371 195.3,-474.849"/>
<polygon fill="black" stroke="black" points="197.509,-472.131 187.685,-468.163 192.891,-477.391 197.509,-472.131"/>
</g>
<!-- AUTH -->
<g id="node6" class="node"><title>AUTH</title>
<polygon fill="none" stroke="black" points="176,-396 8.52651e-14,-396 0,-360 176,-360 176,-396"/>
<text text-anchor="middle" x="88" y="-373.9" font-family="Times Roman,serif" font-size="14.00">Authentication Servers</text>
</g>
<!-- DIR&#45;&gt;AUTH -->
<g id="edge12" class="edge"><title>DIR&#45;&gt;AUTH</title>
<path fill="none" stroke="black" d="M147.065,-431.831C137.522,-423.134 125.94,-412.578 115.569,-403.127"/>
<polygon fill="black" stroke="black" points="117.677,-400.312 107.929,-396.163 112.962,-405.486 117.677,-400.312"/>
</g>
<!-- TIME -->
<g id="node7" class="node"><title>TIME</title>
<polygon fill="none" stroke="black" points="300,-396 194,-396 194,-360 300,-360 300,-396"/>
<text text-anchor="middle" x="247" y="-373.9" font-family="Times Roman,serif" font-size="14.00">Time Servers</text>
</g>
<!-- DIR&#45;&gt;TIME -->
<g id="edge14" class="edge"><title>DIR&#45;&gt;TIME</title>
<path fill="none" stroke="black" d="M187.187,-431.831C196.851,-423.134 208.58,-412.578 219.082,-403.127"/>
<polygon fill="black" stroke="black" points="221.728,-405.454 226.819,-396.163 217.045,-400.251 221.728,-405.454"/>
</g>
<!-- NFS -->
<g id="node8" class="node"><title>NFS</title>
<polygon fill="none" stroke="black" points="168,-324 8,-324 8,-288 168,-288 168,-324"/>
<text text-anchor="middle" x="88" y="-301.9" font-family="Times Roman,serif" font-size="14.00">Network File Servers</text>
</g>
<!-- AUTH&#45;&gt;NFS -->
<g id="edge16" class="edge"><title>AUTH&#45;&gt;NFS</title>
<path fill="none" stroke="black" d="M88,-359.831C88,-352.131 88,-342.974 88,-334.417"/>
<polygon fill="black" stroke="black" points="91.5001,-334.413 88,-324.413 84.5001,-334.413 91.5001,-334.413"/>
</g>
<!-- TIME&#45;&gt;NFS -->
<g id="edge18" class="edge"><title>TIME&#45;&gt;NFS</title>
<path fill="none" stroke="black" d="M206.878,-359.831C185.707,-350.245 159.552,-338.401 137.17,-328.266"/>
<polygon fill="black" stroke="black" points="138.387,-324.975 127.834,-324.038 135.5,-331.351 138.387,-324.975"/>
</g>
<!-- FRS -->
<g id="node9" class="node"><title>FRS</title>
<polygon fill="none" stroke="black" points="362,-324 186,-324 186,-288 362,-288 362,-324"/>
<text text-anchor="middle" x="274" y="-301.9" font-family="Times Roman,serif" font-size="14.00">File Replication Servers</text>
</g>
<!-- TIME&#45;&gt;FRS -->
<g id="edge20" class="edge"><title>TIME&#45;&gt;FRS</title>
<path fill="none" stroke="black" d="M253.813,-359.831C256.764,-351.962 260.286,-342.571 263.555,-333.853"/>
<polygon fill="black" stroke="black" points="266.861,-335.006 267.095,-324.413 260.307,-332.548 266.861,-335.006"/>
</g>
<!-- CFA -->
<g id="node10" class="node"><title>CFA</title>
<polygon fill="none" stroke="black" points="248,-252 114,-252 114,-216 248,-216 248,-252"/>
<text text-anchor="middle" x="181" y="-229.9" font-family="Times Roman,serif" font-size="14.00">Client File Access</text>
</g>
<!-- NFS&#45;&gt;CFA -->
<g id="edge22" class="edge"><title>NFS&#45;&gt;CFA</title>
<path fill="none" stroke="black" d="M111.468,-287.831C123.033,-278.878 137.14,-267.956 149.618,-258.295"/>
<polygon fill="black" stroke="black" points="151.775,-261.052 157.54,-252.163 147.49,-255.517 151.775,-261.052"/>
</g>
<!-- FRS&#45;&gt;CFA -->
<g id="edge24" class="edge"><title>FRS&#45;&gt;CFA</title>
<path fill="none" stroke="black" d="M250.532,-287.831C238.967,-278.878 224.86,-267.956 212.382,-258.295"/>
<polygon fill="black" stroke="black" points="214.51,-255.517 204.46,-252.163 210.225,-261.052 214.51,-255.517"/>
</g>
<!-- COSU -->
<g id="node11" class="node"><title>COSU</title>
<polygon fill="none" stroke="black" points="249,-180 113,-180 113,-144 249,-144 249,-180"/>
<text text-anchor="middle" x="181" y="-157.9" font-family="Times Roman,serif" font-size="14.00">Client OS Update</text>
</g>
<!-- CFA&#45;&gt;COSU -->
<g id="edge26" class="edge"><title>CFA&#45;&gt;COSU</title>
<path fill="none" stroke="black" d="M181,-215.831C181,-208.131 181,-198.974 181,-190.417"/>
<polygon fill="black" stroke="black" points="184.5,-190.413 181,-180.413 177.5,-190.413 184.5,-190.413"/>
</g>
<!-- CCM -->
<g id="node12" class="node"><title>CCM</title>
<polygon fill="none" stroke="black" points="306,-108 56,-108 56,-72 306,-72 306,-108"/>
<text text-anchor="middle" x="181" y="-85.9" font-family="Times Roman,serif" font-size="14.00">Client Configuration Management</text>
</g>
<!-- COSU&#45;&gt;CCM -->
<g id="edge28" class="edge"><title>COSU&#45;&gt;CCM</title>
<path fill="none" stroke="black" d="M181,-143.831C181,-136.131 181,-126.974 181,-118.417"/>
<polygon fill="black" stroke="black" points="184.5,-118.413 181,-108.413 177.5,-118.413 184.5,-118.413"/>
</g>
<!-- MAIL -->
<g id="node13" class="node"><title>MAIL</title>
<polygon fill="none" stroke="black" points="79,-36 25,-36 25,-1.77636e-14 79,-3.55271e-15 79,-36"/>
<text text-anchor="middle" x="52" y="-13.9" font-family="Times Roman,serif" font-size="14.00">Mail</text>
</g>
<!-- CCM&#45;&gt;MAIL -->
<g id="edge30" class="edge"><title>CCM&#45;&gt;MAIL</title>
<path fill="none" stroke="black" d="M148.448,-71.8314C130.103,-61.5924 107.145,-48.7788 88.2308,-38.2219"/>
<polygon fill="black" stroke="black" points="89.7461,-35.0594 79.3083,-33.2418 86.3345,-41.1717 89.7461,-35.0594"/>
</g>
<!-- PRNT -->
<g id="node14" class="node"><title>PRNT</title>
<polygon fill="none" stroke="black" points="167,-36 97,-36 97,-1.77636e-14 167,-3.55271e-15 167,-36"/>
<text text-anchor="middle" x="132" y="-13.9" font-family="Times Roman,serif" font-size="14.00">Printing</text>
</g>
<!-- CCM&#45;&gt;PRNT -->
<g id="edge32" class="edge"><title>CCM&#45;&gt;PRNT</title>
<path fill="none" stroke="black" d="M168.635,-71.8314C163.049,-63.6232 156.337,-53.7606 150.193,-44.7323"/>
<polygon fill="black" stroke="black" points="153.051,-42.7112 144.531,-36.4133 147.264,-46.6496 153.051,-42.7112"/>
</g>
<!-- MONT -->
<g id="node15" class="node"><title>MONT</title>
<polygon fill="none" stroke="black" points="275,-36 185,-36 185,-1.77636e-14 275,-3.55271e-15 275,-36"/>
<text text-anchor="middle" x="230" y="-13.9" font-family="Times Roman,serif" font-size="14.00">Monitoring</text>
</g>
<!-- CCM&#45;&gt;MONT -->
<g id="edge34" class="edge"><title>CCM&#45;&gt;MONT</title>
<path fill="none" stroke="black" d="M193.365,-71.8314C198.951,-63.6232 205.663,-53.7606 211.807,-44.7323"/>
<polygon fill="black" stroke="black" points="214.736,-46.6496 217.469,-36.4133 208.949,-42.7112 214.736,-46.6496"/>
</g>
<!-- CAM -->
<g id="node16" class="node"><title>CAM</title>
<polygon fill="none" stroke="black" points="525,-36 293,-36 293,-1.77636e-14 525,-3.55271e-15 525,-36"/>
<text text-anchor="middle" x="409" y="-13.9" font-family="Times Roman,serif" font-size="14.00">Client Application Management</text>
</g>
<!-- CCM&#45;&gt;CAM -->
<g id="edge36" class="edge"><title>CCM&#45;&gt;CAM</title>
<path fill="none" stroke="black" d="M238.24,-71.9243C269.815,-61.9531 309.19,-49.5188 342.171,-39.104"/>
<polygon fill="black" stroke="black" points="343.255,-42.4321 351.737,-36.0831 341.147,-35.757 343.255,-42.4321"/>
</g>
</g>
</svg>
