<?xml version="1.0" encoding="UTF-8" standalone="no"?>
<!DOCTYPE svg PUBLIC "-//W3C//DTD SVG 1.1//EN"
 "http://www.w3.org/Graphics/SVG/1.1/DTD/svg11.dtd">
<!-- Generated by graphviz version 2.26.3 (20100126.1600)
 -->
<!-- Title: SecureInfrastructure Pages: 1 -->
<svg width="540pt" height="788pt"
 viewBox="0.00 0.00 540.00 788.00" xmlns="http://www.w3.org/2000/svg" xmlns:xlink="http://www.w3.org/1999/xlink">
<g id="graph1" class="graph" transform="scale(1 1) rotate(0) translate(4 784)">
<title>SecureInfrastructure</title>
<polygon fill="white" stroke="white" points="-4,5 -4,-784 537,-784 537,5 -4,5"/>
<g id="graph2" class="cluster"><title>cluster1</title>
<polygon fill="none" stroke="blue" points="91,-479 91,-772 417,-772 417,-479 91,-479"/>
<text text-anchor="middle" x="254" y="-755.4" font-family="Times Roman,serif" font-size="14.00">Control Machine</text>
</g>
<g id="graph3" class="cluster"><title>cluster2</title>
<polygon fill="none" stroke="black" points="47,-322 47,-471 417,-471 417,-322 47,-322"/>
<text text-anchor="middle" x="232" y="-454.4" font-family="Times Roman,serif" font-size="14.00">Master/Slave</text>
</g>
<g id="graph4" class="cluster"><title>cluster3</title>
<polygon fill="none" stroke="black" points="93,-237 93,-314 269,-314 269,-237 93,-237"/>
<text text-anchor="middle" x="181" y="-297.4" font-family="Times Roman,serif" font-size="14.00">File Replication Servers</text>
</g>
<g id="graph5" class="cluster"><title>cluster4</title>
<polygon fill="none" stroke="black" points="8,-8 8,-229 524,-229 524,-8 8,-8"/>
<text text-anchor="middle" x="266" y="-212.4" font-family="Times Roman,serif" font-size="14.00">Clients</text>
</g>
<!-- VC -->
<g id="node1" class="node"><title>VC</title>
<polygon fill="none" stroke="black" points="322,-739 200,-739 200,-703 322,-703 322,-739"/>
<text text-anchor="middle" x="261" y="-716.9" font-family="Times Roman,serif" font-size="14.00">Version Control</text>
</g>
<!-- GS -->
<g id="node2" class="node"><title>GS</title>
<polygon fill="none" stroke="black" points="310,-667 212,-667 212,-631 310,-631 310,-667"/>
<text text-anchor="middle" x="261" y="-644.9" font-family="Times Roman,serif" font-size="14.00">Gold Server</text>
</g>
<!-- VC&#45;&gt;GS -->
<g id="edge3" class="edge"><title>VC&#45;&gt;GS</title>
<path fill="none" stroke="black" d="M261,-702.831C261,-695.131 261,-685.974 261,-677.417"/>
<polygon fill="black" stroke="black" points="264.5,-677.413 261,-667.413 257.5,-677.413 264.5,-677.413"/>
</g>
<!-- AHCT -->
<g id="node3" class="node"><title>AHCT</title>
<polygon fill="none" stroke="black" points="259,-595 99,-595 99,-559 259,-559 259,-595"/>
<text text-anchor="middle" x="179" y="-572.9" font-family="Times Roman,serif" font-size="14.00">Ad&#45;Hoc Change Tools</text>
</g>
<!-- GS&#45;&gt;AHCT -->
<g id="edge5" class="edge"><title>GS&#45;&gt;AHCT</title>
<path fill="none" stroke="black" d="M240.308,-630.831C230.305,-622.048 218.145,-611.371 207.3,-601.849"/>
<polygon fill="black" stroke="black" points="209.509,-599.131 199.685,-595.163 204.891,-604.391 209.509,-599.131"/>
</g>
<!-- HIT -->
<g id="node4" class="node"><title>HIT</title>
<polygon fill="none" stroke="black" points="409,-595 277,-595 277,-559 409,-559 409,-595"/>
<text text-anchor="middle" x="343" y="-572.9" font-family="Times Roman,serif" font-size="14.00">Host Install Tools</text>
</g>
<!-- GS&#45;&gt;HIT -->
<g id="edge7" class="edge"><title>GS&#45;&gt;HIT</title>
<path fill="none" stroke="black" d="M281.692,-630.831C291.695,-622.048 303.855,-611.371 314.7,-601.849"/>
<polygon fill="black" stroke="black" points="317.109,-604.391 322.315,-595.163 312.491,-599.131 317.109,-604.391"/>
</g>
<!-- DIR -->
<g id="node5" class="node"><title>DIR</title>
<polygon fill="none" stroke="black" points="300,-523 162,-523 162,-487 300,-487 300,-523"/>
<text text-anchor="middle" x="231" y="-500.9" font-family="Times Roman,serif" font-size="14.00">Directory Servers</text>
</g>
<!-- AHCT&#45;&gt;DIR -->
<g id="edge9" class="edge"><title>AHCT&#45;&gt;DIR</title>
<path fill="none" stroke="black" d="M192.122,-558.831C198.05,-550.623 205.173,-540.761 211.693,-531.732"/>
<polygon fill="black" stroke="black" points="214.684,-533.569 217.702,-523.413 209.009,-529.471 214.684,-533.569"/>
</g>
<!-- HIT&#45;&gt;DIR -->
<g id="edge11" class="edge"><title>HIT&#45;&gt;DIR</title>
<path fill="none" stroke="black" d="M314.738,-558.831C300.545,-549.707 283.172,-538.539 267.936,-528.745"/>
<polygon fill="black" stroke="black" points="269.558,-525.626 259.253,-523.163 265.772,-531.515 269.558,-525.626"/>
</g>
<!-- AUTH -->
<g id="node6" class="node"><title>AUTH</title>
<polygon fill="none" stroke="black" points="409,-438 233,-438 233,-402 409,-402 409,-438"/>
<text text-anchor="middle" x="321" y="-415.9" font-family="Times Roman,serif" font-size="14.00">Authentication Servers</text>
</g>
<!-- DIR&#45;&gt;AUTH -->
<g id="edge14" class="edge"><title>DIR&#45;&gt;AUTH</title>
<path fill="none" stroke="black" d="M250.087,-486.974C262.974,-474.803 280.161,-458.57 294.388,-445.134"/>
<polygon fill="black" stroke="black" points="297.074,-447.411 301.941,-438 292.267,-442.322 297.074,-447.411"/>
</g>
<!-- TIME -->
<g id="node7" class="node"><title>TIME</title>
<polygon fill="none" stroke="black" points="215,-438 109,-438 109,-402 215,-402 215,-438"/>
<text text-anchor="middle" x="162" y="-415.9" font-family="Times Roman,serif" font-size="14.00">Time Servers</text>
</g>
<!-- DIR&#45;&gt;TIME -->
<g id="edge16" class="edge"><title>DIR&#45;&gt;TIME</title>
<path fill="none" stroke="black" d="M216.367,-486.974C206.67,-475.028 193.797,-459.17 183.011,-445.883"/>
<polygon fill="black" stroke="black" points="185.632,-443.558 176.612,-438 180.197,-447.97 185.632,-443.558"/>
</g>
<!-- NFS -->
<g id="node8" class="node"><title>NFS</title>
<polygon fill="none" stroke="black" points="409,-366 249,-366 249,-330 409,-330 409,-366"/>
<text text-anchor="middle" x="329" y="-343.9" font-family="Times Roman,serif" font-size="14.00">Network File Servers</text>
</g>
<!-- AUTH&#45;&gt;NFS -->
<g id="edge25" class="edge"><title>AUTH&#45;&gt;NFS</title>
<path fill="none" stroke="black" d="M317.066,-401.831C317.172,-394.131 317.968,-384.974 319.228,-376.417"/>
<polygon fill="black" stroke="black" points="322.702,-376.867 320.978,-366.413 315.807,-375.66 322.702,-376.867"/>
</g>
<!-- AUTH&#45;&gt;NFS -->
<g id="edge18" class="edge"><title>AUTH&#45;&gt;NFS</title>
<path fill="none" stroke="black" d="M328.971,-401.831C330.577,-394.131 331.815,-384.974 332.458,-376.417"/>
<polygon fill="black" stroke="black" points="335.954,-376.567 332.93,-366.413 328.962,-376.237 335.954,-376.567"/>
</g>
<!-- TIME&#45;&gt;NFS -->
<g id="edge27" class="edge"><title>TIME&#45;&gt;NFS</title>
<path fill="none" stroke="black" d="M198.189,-401.831C219.681,-392.159 247.337,-380.189 271.711,-369.994"/>
<polygon fill="black" stroke="black" points="273.334,-373.11 281.222,-366.038 270.645,-366.647 273.334,-373.11"/>
</g>
<!-- TIME&#45;&gt;NFS -->
<g id="edge20" class="edge"><title>TIME&#45;&gt;NFS</title>
<path fill="none" stroke="black" d="M210.094,-401.831C233.367,-392.202 261.095,-380.295 283.954,-370.13"/>
<polygon fill="black" stroke="black" points="285.402,-373.316 293.101,-366.038 282.544,-366.927 285.402,-373.316"/>
</g>
<!-- FRS -->
<g id="node9" class="node"><title>FRS</title>
<polygon fill="none" stroke="black" points="231,-366 55,-366 55,-330 231,-330 231,-366"/>
<text text-anchor="middle" x="143" y="-343.9" font-family="Times Roman,serif" font-size="14.00">File Replication Servers</text>
</g>
<!-- TIME&#45;&gt;FRS -->
<g id="edge29" class="edge"><title>TIME&#45;&gt;FRS</title>
<path fill="none" stroke="black" d="M151.253,-401.831C148.471,-394.131 145.833,-384.974 143.884,-376.417"/>
<polygon fill="black" stroke="black" points="147.276,-375.533 141.883,-366.413 140.412,-376.906 147.276,-375.533"/>
</g>
<!-- TIME&#45;&gt;FRS -->
<g id="edge22" class="edge"><title>TIME&#45;&gt;FRS</title>
<path fill="none" stroke="black" d="M163.158,-401.831C161.862,-394.046 159.632,-384.773 157.029,-376.135"/>
<polygon fill="black" stroke="black" points="160.282,-374.821 153.835,-366.413 153.631,-377.006 160.282,-374.821"/>
</g>
<!-- CFA -->
<g id="node10" class="node"><title>CFA</title>
<polygon fill="none" stroke="black" points="248,-281 114,-281 114,-245 248,-245 248,-281"/>
<text text-anchor="middle" x="181" y="-258.9" font-family="Times Roman,serif" font-size="14.00">Client File Access</text>
</g>
<!-- NFS&#45;&gt;CFA -->
<g id="edge31" class="edge"><title>NFS&#45;&gt;CFA</title>
<path fill="none" stroke="black" d="M297.613,-329.974C275.342,-317.183 245.26,-299.906 221.227,-286.104"/>
<polygon fill="black" stroke="black" points="222.756,-282.946 212.342,-281 219.27,-289.016 222.756,-282.946"/>
</g>
<!-- FRS&#45;&gt;CFA -->
<g id="edge33" class="edge"><title>FRS&#45;&gt;CFA</title>
<path fill="none" stroke="black" d="M151.059,-329.974C156.198,-318.479 162.956,-303.361 168.752,-290.398"/>
<polygon fill="black" stroke="black" points="172.067,-291.558 172.953,-281 165.676,-288.701 172.067,-291.558"/>
</g>
<!-- COSU -->
<g id="node11" class="node"><title>COSU</title>
<polygon fill="none" stroke="black" points="249,-196 113,-196 113,-160 249,-160 249,-196"/>
<text text-anchor="middle" x="181" y="-173.9" font-family="Times Roman,serif" font-size="14.00">Client OS Update</text>
</g>
<!-- CFA&#45;&gt;COSU -->
<g id="edge36" class="edge"><title>CFA&#45;&gt;COSU</title>
<path fill="none" stroke="black" d="M181,-244.974C181,-233.704 181,-218.952 181,-206.163"/>
<polygon fill="black" stroke="black" points="184.5,-206 181,-196 177.5,-206 184.5,-206"/>
</g>
<!-- CCM -->
<g id="node12" class="node"><title>CCM</title>
<polygon fill="none" stroke="black" points="306,-124 56,-124 56,-88 306,-88 306,-124"/>
<text text-anchor="middle" x="181" y="-101.9" font-family="Times Roman,serif" font-size="14.00">Client Configuration Management</text>
</g>
<!-- COSU&#45;&gt;CCM -->
<g id="edge38" class="edge"><title>COSU&#45;&gt;CCM</title>
<path fill="none" stroke="black" d="M181,-159.831C181,-152.131 181,-142.974 181,-134.417"/>
<polygon fill="black" stroke="black" points="184.5,-134.413 181,-124.413 177.5,-134.413 184.5,-134.413"/>
</g>
<!-- MAIL -->
<g id="node13" class="node"><title>MAIL</title>
<polygon fill="none" stroke="black" points="70,-52 16,-52 16,-16 70,-16 70,-52"/>
<text text-anchor="middle" x="43" y="-29.9" font-family="Times Roman,serif" font-size="14.00">Mail</text>
</g>
<!-- CCM&#45;&gt;MAIL -->
<g id="edge40" class="edge"><title>CCM&#45;&gt;MAIL</title>
<path fill="none" stroke="black" d="M146.177,-87.8314C125.82,-77.2103 100.153,-63.8188 79.5119,-53.0497"/>
<polygon fill="black" stroke="black" points="80.9039,-49.8282 70.419,-48.3056 77.6659,-56.0343 80.9039,-49.8282"/>
</g>
<!-- PRNT -->
<g id="node14" class="node"><title>PRNT</title>
<polygon fill="none" stroke="black" points="158,-52 88,-52 88,-16 158,-16 158,-52"/>
<text text-anchor="middle" x="123" y="-29.9" font-family="Times Roman,serif" font-size="14.00">Printing</text>
</g>
<!-- CCM&#45;&gt;PRNT -->
<g id="edge42" class="edge"><title>CCM&#45;&gt;PRNT</title>
<path fill="none" stroke="black" d="M166.364,-87.8314C159.684,-79.5386 151.643,-69.557 144.31,-60.4533"/>
<polygon fill="black" stroke="black" points="146.832,-58.0052 137.833,-52.4133 141.381,-62.3965 146.832,-58.0052"/>
</g>
<!-- MONT -->
<g id="node15" class="node"><title>MONT</title>
<polygon fill="none" stroke="black" points="266,-52 176,-52 176,-16 266,-16 266,-52"/>
<text text-anchor="middle" x="221" y="-29.9" font-family="Times Roman,serif" font-size="14.00">Monitoring</text>
</g>
<!-- CCM&#45;&gt;MONT -->
<g id="edge44" class="edge"><title>CCM&#45;&gt;MONT</title>
<path fill="none" stroke="black" d="M191.094,-87.8314C195.56,-79.7925 200.907,-70.1666 205.838,-61.2918"/>
<polygon fill="black" stroke="black" points="208.973,-62.8546 210.77,-52.4133 202.854,-59.4551 208.973,-62.8546"/>
</g>
<!-- CAM -->
<g id="node16" class="node"><title>CAM</title>
<polygon fill="none" stroke="black" points="516,-52 284,-52 284,-16 516,-16 516,-52"/>
<text text-anchor="middle" x="400" y="-29.9" font-family="Times Roman,serif" font-size="14.00">Client Application Management</text>
</g>
<!-- CCM&#45;&gt;CAM -->
<g id="edge46" class="edge"><title>CCM&#45;&gt;CAM</title>
<path fill="none" stroke="black" d="M235.98,-87.9243C266.179,-77.9959 303.806,-65.6255 335.4,-55.2382"/>
<polygon fill="black" stroke="black" points="336.59,-58.5313 344.997,-52.0831 334.404,-51.8815 336.59,-58.5313"/>
</g>
</g>
</svg>
