<?xml version="1.0" encoding="UTF-8" standalone="no"?>
<!DOCTYPE svg PUBLIC "-//W3C//DTD SVG 1.1//EN"
 "http://www.w3.org/Graphics/SVG/1.1/DTD/svg11.dtd">
<!-- Generated by graphviz version 2.26.3 (20100126.1600)
 -->
<!-- Title: SecureInfrastructure Pages: 1 -->
<svg width="541pt" height="746pt"
 viewBox="0.00 0.00 541.00 746.00" xmlns="http://www.w3.org/2000/svg" xmlns:xlink="http://www.w3.org/1999/xlink">
<g id="graph1" class="graph" transform="scale(1 1) rotate(0) translate(4 742)">
<title>SecureInfrastructure</title>
<polygon fill="white" stroke="white" points="-4,5 -4,-742 538,-742 538,5 -4,5"/>
<g id="graph2" class="cluster"><title>cluster1</title>
<polygon fill="none" stroke="blue" points="106,-581 106,-730 244,-730 244,-581 106,-581"/>
<text text-anchor="middle" x="175" y="-713.4" font-family="Times Roman,serif" font-size="14.00">Control Machine</text>
</g>
<g id="graph3" class="cluster"><title>cluster2</title>
<polygon fill="none" stroke="black" points="8,-280 8,-573 378,-573 378,-280 8,-280"/>
<text text-anchor="middle" x="193" y="-556.4" font-family="Times Roman,serif" font-size="14.00">Master/Slave</text>
</g>
<!-- VC -->
<g id="node1" class="node"><title>VC</title>
<polygon fill="none" stroke="black" points="236,-697 114,-697 114,-661 236,-661 236,-697"/>
<text text-anchor="middle" x="175" y="-674.9" font-family="Times Roman,serif" font-size="14.00">Version Control</text>
</g>
<!-- GS -->
<g id="node2" class="node"><title>GS</title>
<polygon fill="none" stroke="black" points="224,-625 126,-625 126,-589 224,-589 224,-625"/>
<text text-anchor="middle" x="175" y="-602.9" font-family="Times Roman,serif" font-size="14.00">Gold Server</text>
</g>
<!-- VC&#45;&gt;GS -->
<g id="edge3" class="edge"><title>VC&#45;&gt;GS</title>
<path fill="none" stroke="black" d="M175,-660.831C175,-653.131 175,-643.974 175,-635.417"/>
<polygon fill="black" stroke="black" points="178.5,-635.413 175,-625.413 171.5,-635.413 178.5,-635.413"/>
</g>
<!-- AHCT -->
<g id="node3" class="node"><title>AHCT</title>
<polygon fill="none" stroke="black" points="337,-540 177,-540 177,-504 337,-504 337,-540"/>
<text text-anchor="middle" x="257" y="-517.9" font-family="Times Roman,serif" font-size="14.00">Ad&#45;Hoc Change Tools</text>
</g>
<!-- GS&#45;&gt;AHCT -->
<g id="edge6" class="edge"><title>GS&#45;&gt;AHCT</title>
<path fill="none" stroke="black" d="M192.39,-588.974C204.023,-576.915 219.502,-560.87 232.393,-547.508"/>
<polygon fill="black" stroke="black" points="235.211,-549.627 239.635,-540 230.173,-544.767 235.211,-549.627"/>
</g>
<!-- HIT -->
<g id="node4" class="node"><title>HIT</title>
<polygon fill="none" stroke="black" points="159,-540 27,-540 27,-504 159,-504 159,-540"/>
<text text-anchor="middle" x="93" y="-517.9" font-family="Times Roman,serif" font-size="14.00">Host Install Tools</text>
</g>
<!-- GS&#45;&gt;HIT -->
<g id="edge8" class="edge"><title>GS&#45;&gt;HIT</title>
<path fill="none" stroke="black" d="M157.61,-588.974C145.977,-576.915 130.498,-560.87 117.607,-547.508"/>
<polygon fill="black" stroke="black" points="119.827,-544.767 110.365,-540 114.789,-549.627 119.827,-544.767"/>
</g>
<!-- DIR -->
<g id="node5" class="node"><title>DIR</title>
<polygon fill="none" stroke="black" points="249,-468 111,-468 111,-432 249,-432 249,-468"/>
<text text-anchor="middle" x="180" y="-445.9" font-family="Times Roman,serif" font-size="14.00">Directory Servers</text>
</g>
<!-- AHCT&#45;&gt;DIR -->
<g id="edge10" class="edge"><title>AHCT&#45;&gt;DIR</title>
<path fill="none" stroke="black" d="M237.57,-503.831C228.268,-495.134 216.98,-484.578 206.871,-475.127"/>
<polygon fill="black" stroke="black" points="209.119,-472.436 199.424,-468.163 204.338,-477.549 209.119,-472.436"/>
</g>
<!-- HIT&#45;&gt;DIR -->
<g id="edge12" class="edge"><title>HIT&#45;&gt;DIR</title>
<path fill="none" stroke="black" d="M114.954,-503.831C125.669,-494.963 138.719,-484.164 150.309,-474.572"/>
<polygon fill="black" stroke="black" points="152.581,-477.235 158.053,-468.163 148.118,-471.842 152.581,-477.235"/>
</g>
<!-- AUTH -->
<g id="node6" class="node"><title>AUTH</title>
<polygon fill="none" stroke="black" points="192,-396 16,-396 16,-360 192,-360 192,-396"/>
<text text-anchor="middle" x="104" y="-373.9" font-family="Times Roman,serif" font-size="14.00">Authentication Servers</text>
</g>
<!-- DIR&#45;&gt;AUTH -->
<g id="edge14" class="edge"><title>DIR&#45;&gt;AUTH</title>
<path fill="none" stroke="black" d="M160.822,-431.831C151.641,-423.134 140.499,-412.578 130.522,-403.127"/>
<polygon fill="black" stroke="black" points="132.839,-400.499 123.172,-396.163 128.024,-405.581 132.839,-400.499"/>
</g>
<!-- TIME -->
<g id="node7" class="node"><title>TIME</title>
<polygon fill="none" stroke="black" points="316,-396 210,-396 210,-360 316,-360 316,-396"/>
<text text-anchor="middle" x="263" y="-373.9" font-family="Times Roman,serif" font-size="14.00">Time Servers</text>
</g>
<!-- DIR&#45;&gt;TIME -->
<g id="edge16" class="edge"><title>DIR&#45;&gt;TIME</title>
<path fill="none" stroke="black" d="M200.944,-431.831C211.069,-423.048 223.378,-412.371 234.355,-402.849"/>
<polygon fill="black" stroke="black" points="236.802,-405.359 242.062,-396.163 232.215,-400.072 236.802,-405.359"/>
</g>
<!-- NFS -->
<g id="node8" class="node"><title>NFS</title>
<polygon fill="none" stroke="black" points="176,-324 16,-324 16,-288 176,-288 176,-324"/>
<text text-anchor="middle" x="96" y="-301.9" font-family="Times Roman,serif" font-size="14.00">Network File Servers</text>
</g>
<!-- AUTH&#45;&gt;NFS -->
<g id="edge18" class="edge"><title>AUTH&#45;&gt;NFS</title>
<path fill="none" stroke="black" d="M101.981,-359.831C101.126,-352.131 100.108,-342.974 99.1574,-334.417"/>
<polygon fill="black" stroke="black" points="102.629,-333.966 98.0459,-324.413 95.6717,-334.739 102.629,-333.966"/>
</g>
<!-- TIME&#45;&gt;NFS -->
<g id="edge20" class="edge"><title>TIME&#45;&gt;NFS</title>
<path fill="none" stroke="black" d="M220.859,-359.831C198.524,-350.202 170.906,-338.295 147.329,-328.13"/>
<polygon fill="black" stroke="black" points="148.407,-324.783 137.838,-324.038 145.635,-331.211 148.407,-324.783"/>
</g>
<!-- FRS -->
<g id="node9" class="node"><title>FRS</title>
<polygon fill="none" stroke="black" points="370,-324 194,-324 194,-288 370,-288 370,-324"/>
<text text-anchor="middle" x="282" y="-301.9" font-family="Times Roman,serif" font-size="14.00">File Replication Servers</text>
</g>
<!-- TIME&#45;&gt;FRS -->
<g id="edge22" class="edge"><title>TIME&#45;&gt;FRS</title>
<path fill="none" stroke="black" d="M267.795,-359.831C269.849,-352.046 272.296,-342.773 274.576,-334.135"/>
<polygon fill="black" stroke="black" points="277.973,-334.975 277.141,-324.413 271.205,-333.189 277.973,-334.975"/>
</g>
<!-- CFA -->
<g id="node10" class="node"><title>CFA</title>
<polygon fill="none" stroke="black" points="256,-252 122,-252 122,-216 256,-216 256,-252"/>
<text text-anchor="middle" x="189" y="-229.9" font-family="Times Roman,serif" font-size="14.00">Client File Access</text>
</g>
<!-- NFS&#45;&gt;CFA -->
<g id="edge24" class="edge"><title>NFS&#45;&gt;CFA</title>
<path fill="none" stroke="black" d="M119.468,-287.831C131.033,-278.878 145.14,-267.956 157.618,-258.295"/>
<polygon fill="black" stroke="black" points="159.775,-261.052 165.54,-252.163 155.49,-255.517 159.775,-261.052"/>
</g>
<!-- FRS&#45;&gt;CFA -->
<g id="edge26" class="edge"><title>FRS&#45;&gt;CFA</title>
<path fill="none" stroke="black" d="M258.532,-287.831C246.967,-278.878 232.86,-267.956 220.382,-258.295"/>
<polygon fill="black" stroke="black" points="222.51,-255.517 212.46,-252.163 218.225,-261.052 222.51,-255.517"/>
</g>
<!-- COSU -->
<g id="node11" class="node"><title>COSU</title>
<polygon fill="none" stroke="black" points="257,-180 121,-180 121,-144 257,-144 257,-180"/>
<text text-anchor="middle" x="189" y="-157.9" font-family="Times Roman,serif" font-size="14.00">Client OS Update</text>
</g>
<!-- CFA&#45;&gt;COSU -->
<g id="edge28" class="edge"><title>CFA&#45;&gt;COSU</title>
<path fill="none" stroke="black" d="M189,-215.831C189,-208.131 189,-198.974 189,-190.417"/>
<polygon fill="black" stroke="black" points="192.5,-190.413 189,-180.413 185.5,-190.413 192.5,-190.413"/>
</g>
<!-- CCM -->
<g id="node12" class="node"><title>CCM</title>
<polygon fill="none" stroke="black" points="314,-108 64,-108 64,-72 314,-72 314,-108"/>
<text text-anchor="middle" x="189" y="-85.9" font-family="Times Roman,serif" font-size="14.00">Client Configuration Management</text>
</g>
<!-- COSU&#45;&gt;CCM -->
<g id="edge30" class="edge"><title>COSU&#45;&gt;CCM</title>
<path fill="none" stroke="black" d="M189,-143.831C189,-136.131 189,-126.974 189,-118.417"/>
<polygon fill="black" stroke="black" points="192.5,-118.413 189,-108.413 185.5,-118.413 192.5,-118.413"/>
</g>
<!-- MAIL -->
<g id="node13" class="node"><title>MAIL</title>
<polygon fill="none" stroke="black" points="87,-36 33,-36 33,-1.77636e-14 87,-3.55271e-15 87,-36"/>
<text text-anchor="middle" x="60" y="-13.9" font-family="Times Roman,serif" font-size="14.00">Mail</text>
</g>
<!-- CCM&#45;&gt;MAIL -->
<g id="edge32" class="edge"><title>CCM&#45;&gt;MAIL</title>
<path fill="none" stroke="black" d="M156.448,-71.8314C138.103,-61.5924 115.145,-48.7788 96.2308,-38.2219"/>
<polygon fill="black" stroke="black" points="97.7461,-35.0594 87.3083,-33.2418 94.3345,-41.1717 97.7461,-35.0594"/>
</g>
<!-- PRNT -->
<g id="node14" class="node"><title>PRNT</title>
<polygon fill="none" stroke="black" points="175,-36 105,-36 105,-1.77636e-14 175,-3.55271e-15 175,-36"/>
<text text-anchor="middle" x="140" y="-13.9" font-family="Times Roman,serif" font-size="14.00">Printing</text>
</g>
<!-- CCM&#45;&gt;PRNT -->
<g id="edge34" class="edge"><title>CCM&#45;&gt;PRNT</title>
<path fill="none" stroke="black" d="M176.635,-71.8314C171.049,-63.6232 164.337,-53.7606 158.193,-44.7323"/>
<polygon fill="black" stroke="black" points="161.051,-42.7112 152.531,-36.4133 155.264,-46.6496 161.051,-42.7112"/>
</g>
<!-- MONT -->
<g id="node15" class="node"><title>MONT</title>
<polygon fill="none" stroke="black" points="283,-36 193,-36 193,-1.77636e-14 283,-3.55271e-15 283,-36"/>
<text text-anchor="middle" x="238" y="-13.9" font-family="Times Roman,serif" font-size="14.00">Monitoring</text>
</g>
<!-- CCM&#45;&gt;MONT -->
<g id="edge36" class="edge"><title>CCM&#45;&gt;MONT</title>
<path fill="none" stroke="black" d="M201.365,-71.8314C206.951,-63.6232 213.663,-53.7606 219.807,-44.7323"/>
<polygon fill="black" stroke="black" points="222.736,-46.6496 225.469,-36.4133 216.949,-42.7112 222.736,-46.6496"/>
</g>
<!-- CAM -->
<g id="node16" class="node"><title>CAM</title>
<polygon fill="none" stroke="black" points="533,-36 301,-36 301,-1.77636e-14 533,-3.55271e-15 533,-36"/>
<text text-anchor="middle" x="417" y="-13.9" font-family="Times Roman,serif" font-size="14.00">Client Application Management</text>
</g>
<!-- CCM&#45;&gt;CAM -->
<g id="edge38" class="edge"><title>CCM&#45;&gt;CAM</title>
<path fill="none" stroke="black" d="M246.24,-71.9243C277.815,-61.9531 317.19,-49.5188 350.171,-39.104"/>
<polygon fill="black" stroke="black" points="351.255,-42.4321 359.737,-36.0831 349.147,-35.757 351.255,-42.4321"/>
</g>
</g>
</svg>
