<?xml version="1.0" encoding="UTF-8" standalone="no"?>
<!DOCTYPE svg PUBLIC "-//W3C//DTD SVG 1.1//EN"
 "http://www.w3.org/Graphics/SVG/1.1/DTD/svg11.dtd">
<!-- Generated by graphviz version 2.26.3 (20100126.1600)
 -->
<!-- Title: SecureInfrastructure Pages: 1 -->
<svg width="574pt" height="432pt"
 viewBox="0.00 0.00 574.38 432.00" xmlns="http://www.w3.org/2000/svg" xmlns:xlink="http://www.w3.org/1999/xlink">
<g id="graph1" class="graph" transform="scale(0.606742 0.606742) rotate(0) translate(4 708)">
<title>SecureInfrastructure</title>
<polygon fill="white" stroke="white" points="-4,5 -4,-708 943.667,-708 943.667,5 -4,5"/>
<!-- VC -->
<g id="node1" class="node"><title>VC</title>
<polygon fill="none" stroke="black" points="398.216,-703.5 198.216,-703.5 198.216,-666.5 398.216,-666.5 398.216,-703.5"/>
<text text-anchor="middle" x="298.216" y="-677.9" font-family="Times Roman,serif" font-size="24.00">Version Control</text>
</g>
<!-- GS -->
<g id="node2" class="node"><title>GS</title>
<polygon fill="none" stroke="black" points="377.216,-629.5 219.216,-629.5 219.216,-592.5 377.216,-592.5 377.216,-629.5"/>
<text text-anchor="middle" x="298.216" y="-603.9" font-family="Times Roman,serif" font-size="24.00">Gold Server</text>
</g>
<!-- VC&#45;&gt;GS -->
<g id="edge2" class="edge"><title>VC&#45;&gt;GS</title>
<path fill="none" stroke="black" d="M298.216,-666.327C298.216,-658.264 298.216,-648.648 298.216,-639.711"/>
<polygon fill="black" stroke="black" points="301.717,-639.667 298.216,-629.667 294.717,-639.667 301.717,-639.667"/>
</g>
<!-- AHCT -->
<g id="node3" class="node"><title>AHCT</title>
<polygon fill="none" stroke="black" points="289.216,-555.5 19.2165,-555.5 19.2165,-518.5 289.216,-518.5 289.216,-555.5"/>
<text text-anchor="middle" x="154.216" y="-529.9" font-family="Times Roman,serif" font-size="24.00">Ad&#45;Hoc Change Tools</text>
</g>
<!-- GS&#45;&gt;AHCT -->
<g id="edge4" class="edge"><title>GS&#45;&gt;AHCT</title>
<path fill="none" stroke="black" d="M261.879,-592.327C242.877,-582.562 219.441,-570.518 199.291,-560.163"/>
<polygon fill="black" stroke="black" points="200.787,-556.997 190.292,-555.539 197.587,-563.223 200.787,-556.997"/>
</g>
<!-- HIT -->
<g id="node4" class="node"><title>HIT</title>
<polygon fill="none" stroke="black" points="553.216,-555.5 333.216,-555.5 333.216,-518.5 553.216,-518.5 553.216,-555.5"/>
<text text-anchor="middle" x="443.216" y="-529.9" font-family="Times Roman,serif" font-size="24.00">Host Install Tools</text>
</g>
<!-- GS&#45;&gt;HIT -->
<g id="edge6" class="edge"><title>GS&#45;&gt;HIT</title>
<path fill="none" stroke="black" d="M334.806,-592.327C353.94,-582.562 377.539,-570.518 397.829,-560.163"/>
<polygon fill="black" stroke="black" points="399.574,-563.202 406.89,-555.539 396.392,-556.967 399.574,-563.202"/>
</g>
<!-- DIR -->
<g id="node5" class="node"><title>DIR</title>
<polygon fill="none" stroke="black" points="411.216,-481.5 185.216,-481.5 185.216,-444.5 411.216,-444.5 411.216,-481.5"/>
<text text-anchor="middle" x="298.216" y="-455.9" font-family="Times Roman,serif" font-size="24.00">Directory Servers</text>
</g>
<!-- AHCT&#45;&gt;DIR -->
<g id="edge8" class="edge"><title>AHCT&#45;&gt;DIR</title>
<path fill="none" stroke="black" d="M190.554,-518.327C209.556,-508.562 232.992,-496.518 253.142,-486.163"/>
<polygon fill="black" stroke="black" points="254.846,-489.223 262.141,-481.539 251.646,-482.997 254.846,-489.223"/>
</g>
<!-- HIT&#45;&gt;DIR -->
<g id="edge10" class="edge"><title>HIT&#45;&gt;DIR</title>
<path fill="none" stroke="black" d="M406.627,-518.327C387.493,-508.562 363.894,-496.518 343.604,-486.163"/>
<polygon fill="black" stroke="black" points="345.041,-482.967 334.543,-481.539 341.859,-489.202 345.041,-482.967"/>
</g>
<!-- AUTH -->
<g id="node6" class="node"><title>AUTH</title>
<polygon fill="none" stroke="black" points="306.216,-407.5 14.2165,-407.5 14.2165,-370.5 306.216,-370.5 306.216,-407.5"/>
<text text-anchor="middle" x="160.216" y="-381.9" font-family="Times Roman,serif" font-size="24.00">Authentication Servers</text>
</g>
<!-- DIR&#45;&gt;AUTH -->
<g id="edge12" class="edge"><title>DIR&#45;&gt;AUTH</title>
<path fill="none" stroke="black" d="M263.393,-444.327C245.334,-434.643 223.095,-422.717 203.894,-412.421"/>
<polygon fill="black" stroke="black" points="205.496,-409.309 195.029,-407.667 202.187,-415.478 205.496,-409.309"/>
</g>
<!-- TIME -->
<g id="node7" class="node"><title>TIME</title>
<polygon fill="none" stroke="black" points="524.216,-407.5 350.216,-407.5 350.216,-370.5 524.216,-370.5 524.216,-407.5"/>
<text text-anchor="middle" x="437.216" y="-381.9" font-family="Times Roman,serif" font-size="24.00">Time Servers</text>
</g>
<!-- DIR&#45;&gt;TIME -->
<g id="edge14" class="edge"><title>DIR&#45;&gt;TIME</title>
<path fill="none" stroke="black" d="M333.292,-444.327C351.483,-434.643 373.882,-422.717 393.222,-412.421"/>
<polygon fill="black" stroke="black" points="394.97,-415.456 402.152,-407.667 391.68,-409.277 394.97,-415.456"/>
</g>
<!-- NFS -->
<g id="node8" class="node"><title>NFS</title>
<polygon fill="none" stroke="black" points="292.216,-333.5 28.2165,-333.5 28.2165,-296.5 292.216,-296.5 292.216,-333.5"/>
<text text-anchor="middle" x="160.216" y="-307.9" font-family="Times Roman,serif" font-size="24.00">Network File Servers</text>
</g>
<!-- AUTH&#45;&gt;NFS -->
<g id="edge16" class="edge"><title>AUTH&#45;&gt;NFS</title>
<path fill="none" stroke="black" d="M160.216,-370.327C160.216,-362.264 160.216,-352.648 160.216,-343.711"/>
<polygon fill="black" stroke="black" points="163.717,-343.667 160.216,-333.667 156.717,-343.667 163.717,-343.667"/>
</g>
<!-- TIME&#45;&gt;NFS -->
<g id="edge18" class="edge"><title>TIME&#45;&gt;NFS</title>
<path fill="none" stroke="black" d="M367.675,-370.422C328.738,-360.02 280.037,-347.01 239.608,-336.209"/>
<polygon fill="black" stroke="black" points="240.351,-332.785 229.786,-333.585 238.544,-339.548 240.351,-332.785"/>
</g>
<!-- FRS -->
<g id="node9" class="node"><title>FRS</title>
<polygon fill="none" stroke="black" points="636.216,-333.5 340.216,-333.5 340.216,-296.5 636.216,-296.5 636.216,-333.5"/>
<text text-anchor="middle" x="488.216" y="-307.9" font-family="Times Roman,serif" font-size="24.00">File Replication Servers</text>
</g>
<!-- TIME&#45;&gt;FRS -->
<g id="edge20" class="edge"><title>TIME&#45;&gt;FRS</title>
<path fill="none" stroke="black" d="M450.086,-370.327C456.005,-361.738 463.139,-351.387 469.627,-341.972"/>
<polygon fill="black" stroke="black" points="472.558,-343.887 475.351,-333.667 466.795,-339.915 472.558,-343.887"/>
</g>
<!-- CFA -->
<g id="node10" class="node"><title>CFA</title>
<polygon fill="none" stroke="black" points="436.216,-259.5 212.216,-259.5 212.216,-222.5 436.216,-222.5 436.216,-259.5"/>
<text text-anchor="middle" x="324.216" y="-233.9" font-family="Times Roman,serif" font-size="24.00">Client File Access</text>
</g>
<!-- NFS&#45;&gt;CFA -->
<g id="edge22" class="edge"><title>NFS&#45;&gt;CFA</title>
<path fill="none" stroke="black" d="M201.601,-296.327C223.535,-286.43 250.656,-274.192 273.81,-263.745"/>
<polygon fill="black" stroke="black" points="275.454,-266.842 283.13,-259.539 272.575,-260.462 275.454,-266.842"/>
</g>
<!-- FRS&#45;&gt;CFA -->
<g id="edge24" class="edge"><title>FRS&#45;&gt;CFA</title>
<path fill="none" stroke="black" d="M446.832,-296.327C424.898,-286.43 397.777,-274.192 374.623,-263.745"/>
<polygon fill="black" stroke="black" points="375.858,-260.462 365.303,-259.539 372.979,-266.842 375.858,-260.462"/>
</g>
<!-- COSU -->
<g id="node11" class="node"><title>COSU</title>
<polygon fill="none" stroke="black" points="435.216,-185.5 213.216,-185.5 213.216,-148.5 435.216,-148.5 435.216,-185.5"/>
<text text-anchor="middle" x="324.216" y="-159.9" font-family="Times Roman,serif" font-size="24.00">Client OS Update</text>
</g>
<!-- CFA&#45;&gt;COSU -->
<g id="edge26" class="edge"><title>CFA&#45;&gt;COSU</title>
<path fill="none" stroke="black" d="M324.216,-222.327C324.216,-214.264 324.216,-204.648 324.216,-195.711"/>
<polygon fill="black" stroke="black" points="327.717,-195.667 324.216,-185.667 320.717,-195.667 327.717,-195.667"/>
</g>
<!-- CCM -->
<g id="node12" class="node"><title>CCM</title>
<polygon fill="none" stroke="black" points="535.216,-111.5 113.216,-111.5 113.216,-74.5 535.216,-74.5 535.216,-111.5"/>
<text text-anchor="middle" x="324.216" y="-85.9" font-family="Times Roman,serif" font-size="24.00">Client Configuration Management</text>
</g>
<!-- COSU&#45;&gt;CCM -->
<g id="edge28" class="edge"><title>COSU&#45;&gt;CCM</title>
<path fill="none" stroke="black" d="M324.216,-148.327C324.216,-140.264 324.216,-130.648 324.216,-121.711"/>
<polygon fill="black" stroke="black" points="327.717,-121.667 324.216,-111.667 320.717,-121.667 327.717,-121.667"/>
</g>
<!-- MAIL -->
<g id="node13" class="node"><title>MAIL</title>
<polygon fill="none" stroke="black" points="163.216,-37.5 97.2165,-37.5 97.2165,-0.5 163.216,-0.5 163.216,-37.5"/>
<text text-anchor="middle" x="130.216" y="-11.9" font-family="Times Roman,serif" font-size="24.00">Mail</text>
</g>
<!-- CCM&#45;&gt;MAIL -->
<g id="edge30" class="edge"><title>CCM&#45;&gt;MAIL</title>
<path fill="none" stroke="black" d="M275.262,-74.3267C243.661,-62.2726 202.958,-46.7466 172.717,-35.2115"/>
<polygon fill="black" stroke="black" points="173.882,-31.9098 163.291,-31.616 171.387,-38.4502 173.882,-31.9098"/>
</g>
<!-- PRNT -->
<g id="node14" class="node"><title>PRNT</title>
<polygon fill="none" stroke="black" points="299.216,-37.5 191.216,-37.5 191.216,-0.5 299.216,-0.5 299.216,-37.5"/>
<text text-anchor="middle" x="245.216" y="-11.9" font-family="Times Roman,serif" font-size="24.00">Printing</text>
</g>
<!-- CCM&#45;&gt;PRNT -->
<g id="edge32" class="edge"><title>CCM&#45;&gt;PRNT</title>
<path fill="none" stroke="black" d="M304.281,-74.3267C294.645,-65.2998 282.929,-54.3259 272.481,-44.5391"/>
<polygon fill="black" stroke="black" points="274.836,-41.9493 265.145,-37.6674 270.051,-47.0581 274.836,-41.9493"/>
</g>
<!-- MONT -->
<g id="node15" class="node"><title>MONT</title>
<polygon fill="none" stroke="black" points="478.216,-37.5 332.216,-37.5 332.216,-0.5 478.216,-0.5 478.216,-37.5"/>
<text text-anchor="middle" x="405.216" y="-11.9" font-family="Times Roman,serif" font-size="24.00">Monitoring</text>
</g>
<!-- CCM&#45;&gt;MONT -->
<g id="edge34" class="edge"><title>CCM&#45;&gt;MONT</title>
<path fill="none" stroke="black" d="M344.656,-74.3267C354.537,-65.2998 366.549,-54.3259 377.262,-44.5391"/>
<polygon fill="black" stroke="black" points="379.761,-46.9963 384.783,-37.6674 375.04,-41.8282 379.761,-46.9963"/>
</g>
<!-- CAM -->
<g id="node16" class="node"><title>CAM</title>
<polygon fill="none" stroke="black" points="919.216,-37.5 525.216,-37.5 525.216,-0.5 919.216,-0.5 919.216,-37.5"/>
<text text-anchor="middle" x="722.216" y="-11.9" font-family="Times Roman,serif" font-size="24.00">Client Application Management</text>
</g>
<!-- CCM&#45;&gt;CAM -->
<g id="edge36" class="edge"><title>CCM&#45;&gt;CAM</title>
<path fill="none" stroke="black" d="M423.878,-74.4699C481.232,-63.8061 553.393,-50.3893 612.378,-39.4222"/>
<polygon fill="black" stroke="black" points="613.286,-42.8135 622.478,-37.5444 612.006,-35.9314 613.286,-42.8135"/>
</g>
</g>
</svg>
