<?xml version="1.0" encoding="UTF-8" standalone="no"?>
<!DOCTYPE svg PUBLIC "-//W3C//DTD SVG 1.1//EN"
 "http://www.w3.org/Graphics/SVG/1.1/DTD/svg11.dtd">
<!-- Generated by graphviz version 2.26.3 (20100126.1600)
 -->
<!-- Title: SecureInfrastructure Pages: 1 -->
<svg width="575pt" height="432pt"
 viewBox="0.00 0.00 574.65 432.00" xmlns="http://www.w3.org/2000/svg" xmlns:xlink="http://www.w3.org/1999/xlink">
<g id="graph1" class="graph" transform="scale(0.507042 0.507042) rotate(0) translate(4 848)">
<title>SecureInfrastructure</title>
<polygon fill="white" stroke="white" points="-4,5 -4,-848 1130.33,-848 1130.33,5 -4,5"/>
<!-- VC -->
<g id="node1" class="node"><title>VC</title>
<ellipse fill="none" stroke="black" cx="533.172" cy="-818" rx="34.8574" ry="26.163"/>
<text text-anchor="middle" x="533.172" y="-810.9" font-family="Times Roman,serif" font-size="24.00">VC</text>
</g>
<!-- GS -->
<g id="node3" class="node"><title>GS</title>
<ellipse fill="none" stroke="black" cx="533.172" cy="-730" rx="34.8574" ry="26.163"/>
<text text-anchor="middle" x="533.172" y="-722.9" font-family="Times Roman,serif" font-size="24.00">GS</text>
</g>
<!-- VC&#45;&gt;GS -->
<g id="edge2" class="edge"><title>VC&#45;&gt;GS</title>
<path fill="none" stroke="black" d="M533.172,-791.597C533.172,-783.607 533.172,-774.689 533.172,-766.176"/>
<polygon fill="black" stroke="black" points="536.672,-766.081 533.172,-756.081 529.672,-766.081 536.672,-766.081"/>
</g>
<!-- AHCT -->
<g id="node5" class="node"><title>AHCT</title>
<ellipse fill="none" stroke="black" cx="404.172" cy="-642" rx="58.1882" ry="26.163"/>
<text text-anchor="middle" x="404.172" y="-634.9" font-family="Times Roman,serif" font-size="24.00">AHCT</text>
</g>
<!-- GS&#45;&gt;AHCT -->
<g id="edge4" class="edge"><title>GS&#45;&gt;AHCT</title>
<path fill="none" stroke="black" d="M507.377,-712.403C489.492,-700.203 465.306,-683.704 444.843,-669.745"/>
<polygon fill="black" stroke="black" points="446.564,-666.682 436.33,-663.938 442.619,-672.464 446.564,-666.682"/>
</g>
<!-- HIT -->
<g id="node7" class="node"><title>HIT</title>
<ellipse fill="none" stroke="black" cx="665.172" cy="-642" rx="39.0967" ry="26.163"/>
<text text-anchor="middle" x="665.172" y="-634.9" font-family="Times Roman,serif" font-size="24.00">HIT</text>
</g>
<!-- GS&#45;&gt;HIT -->
<g id="edge6" class="edge"><title>GS&#45;&gt;HIT</title>
<path fill="none" stroke="black" d="M559.251,-712.614C579.15,-699.348 606.804,-680.912 628.866,-666.204"/>
<polygon fill="black" stroke="black" points="630.945,-669.024 637.324,-660.565 627.062,-663.2 630.945,-669.024"/>
</g>
<!-- DIR -->
<g id="node9" class="node"><title>DIR</title>
<ellipse fill="none" stroke="black" cx="533.172" cy="-554" rx="41.2167" ry="26.163"/>
<text text-anchor="middle" x="533.172" y="-546.9" font-family="Times Roman,serif" font-size="24.00">DIR</text>
</g>
<!-- AHCT&#45;&gt;DIR -->
<g id="edge8" class="edge"><title>AHCT&#45;&gt;DIR</title>
<path fill="none" stroke="black" d="M436.06,-620.247C454.435,-607.712 477.602,-591.908 496.7,-578.88"/>
<polygon fill="black" stroke="black" points="498.868,-581.638 505.156,-573.112 494.923,-575.856 498.868,-581.638"/>
</g>
<!-- HIT&#45;&gt;DIR -->
<g id="edge10" class="edge"><title>HIT&#45;&gt;DIR</title>
<path fill="none" stroke="black" d="M637.501,-623.552C617.966,-610.529 591.576,-592.936 570.225,-578.702"/>
<polygon fill="black" stroke="black" points="571.981,-575.666 561.719,-573.031 568.098,-581.49 571.981,-575.666"/>
</g>
<!-- AUTH -->
<g id="node12" class="node"><title>AUTH</title>
<ellipse fill="none" stroke="black" cx="388.172" cy="-466" rx="58.1882" ry="26.163"/>
<text text-anchor="middle" x="388.172" y="-458.9" font-family="Times Roman,serif" font-size="24.00">AUTH</text>
</g>
<!-- DIR&#45;&gt;AUTH -->
<g id="edge12" class="edge"><title>DIR&#45;&gt;AUTH</title>
<path fill="none" stroke="black" d="M503.479,-535.98C482.688,-523.361 454.578,-506.301 431.318,-492.185"/>
<polygon fill="black" stroke="black" points="433.031,-489.131 422.666,-486.935 429.399,-495.115 433.031,-489.131"/>
</g>
<!-- TIME -->
<g id="node14" class="node"><title>TIME</title>
<ellipse fill="none" stroke="black" cx="678.172" cy="-466" rx="51.8276" ry="26.163"/>
<text text-anchor="middle" x="678.172" y="-458.9" font-family="Times Roman,serif" font-size="24.00">TIME</text>
</g>
<!-- DIR&#45;&gt;TIME -->
<g id="edge14" class="edge"><title>DIR&#45;&gt;TIME</title>
<path fill="none" stroke="black" d="M562.865,-535.98C584.024,-523.138 612.762,-505.697 636.254,-491.44"/>
<polygon fill="black" stroke="black" points="638.241,-494.328 644.974,-486.148 634.61,-488.344 638.241,-494.328"/>
</g>
<!-- NFS -->
<g id="node16" class="node"><title>NFS</title>
<ellipse fill="none" stroke="black" cx="438.172" cy="-378" rx="44.0472" ry="26.163"/>
<text text-anchor="middle" x="438.172" y="-370.9" font-family="Times Roman,serif" font-size="24.00">NFS</text>
</g>
<!-- AUTH&#45;&gt;NFS -->
<g id="edge16" class="edge"><title>AUTH&#45;&gt;NFS</title>
<path fill="none" stroke="black" d="M402.634,-440.547C407.749,-431.545 413.583,-421.276 419.026,-411.698"/>
<polygon fill="black" stroke="black" points="422.19,-413.213 424.087,-402.789 416.104,-409.755 422.19,-413.213"/>
</g>
<!-- TIME&#45;&gt;NFS -->
<g id="edge18" class="edge"><title>TIME&#45;&gt;NFS</title>
<path fill="none" stroke="black" d="M636.093,-450.571C593.973,-435.127 529.29,-411.41 485.43,-395.328"/>
<polygon fill="black" stroke="black" points="486.448,-391.973 475.854,-391.817 484.038,-398.545 486.448,-391.973"/>
</g>
<!-- FRS -->
<g id="node19" class="node"><title>FRS</title>
<ellipse fill="none" stroke="black" cx="678.172" cy="-378" rx="43.8406" ry="26.163"/>
<text text-anchor="middle" x="678.172" y="-370.9" font-family="Times Roman,serif" font-size="24.00">FRS</text>
</g>
<!-- TIME&#45;&gt;FRS -->
<g id="edge20" class="edge"><title>TIME&#45;&gt;FRS</title>
<path fill="none" stroke="black" d="M678.172,-439.597C678.172,-431.607 678.172,-422.689 678.172,-414.176"/>
<polygon fill="black" stroke="black" points="681.672,-414.081 678.172,-404.081 674.672,-414.081 681.672,-414.081"/>
</g>
<!-- CFA -->
<g id="node21" class="node"><title>CFA</title>
<ellipse fill="none" stroke="black" cx="558.172" cy="-290" rx="43.1335" ry="26.163"/>
<text text-anchor="middle" x="558.172" y="-282.9" font-family="Times Roman,serif" font-size="24.00">CFA</text>
</g>
<!-- NFS&#45;&gt;CFA -->
<g id="edge22" class="edge"><title>NFS&#45;&gt;CFA</title>
<path fill="none" stroke="black" d="M466.004,-357.59C482.664,-345.372 504.022,-329.71 521.982,-316.539"/>
<polygon fill="black" stroke="black" points="524.497,-319.036 530.491,-310.299 520.357,-313.391 524.497,-319.036"/>
</g>
<!-- FRS&#45;&gt;CFA -->
<g id="edge24" class="edge"><title>FRS&#45;&gt;CFA</title>
<path fill="none" stroke="black" d="M650.34,-357.59C633.68,-345.372 612.322,-329.71 594.362,-316.539"/>
<polygon fill="black" stroke="black" points="595.987,-313.391 585.853,-310.299 591.847,-319.036 595.987,-313.391"/>
</g>
<!-- COSU -->
<g id="node24" class="node"><title>COSU</title>
<ellipse fill="none" stroke="black" cx="558.172" cy="-202" rx="58.8978" ry="26.163"/>
<text text-anchor="middle" x="558.172" y="-194.9" font-family="Times Roman,serif" font-size="24.00">COSU</text>
</g>
<!-- CFA&#45;&gt;COSU -->
<g id="edge26" class="edge"><title>CFA&#45;&gt;COSU</title>
<path fill="none" stroke="black" d="M558.172,-263.597C558.172,-255.607 558.172,-246.689 558.172,-238.176"/>
<polygon fill="black" stroke="black" points="561.672,-238.081 558.172,-228.081 554.672,-238.081 561.672,-238.081"/>
</g>
<!-- CCM -->
<g id="node26" class="node"><title>CCM</title>
<ellipse fill="none" stroke="black" cx="558.172" cy="-114" rx="50.2046" ry="26.163"/>
<text text-anchor="middle" x="558.172" y="-106.9" font-family="Times Roman,serif" font-size="24.00">CCM</text>
</g>
<!-- COSU&#45;&gt;CCM -->
<g id="edge28" class="edge"><title>COSU&#45;&gt;CCM</title>
<path fill="none" stroke="black" d="M558.172,-175.597C558.172,-167.607 558.172,-158.689 558.172,-150.176"/>
<polygon fill="black" stroke="black" points="561.672,-150.081 558.172,-140.081 554.672,-150.081 561.672,-150.081"/>
</g>
<!-- MAIL -->
<g id="node28" class="node"><title>MAIL</title>
<ellipse fill="none" stroke="black" cx="118.172" cy="-26" rx="51.8276" ry="26.163"/>
<text text-anchor="middle" x="118.172" y="-18.9" font-family="Times Roman,serif" font-size="24.00">MAIL</text>
</g>
<!-- CCM&#45;&gt;MAIL -->
<g id="edge30" class="edge"><title>CCM&#45;&gt;MAIL</title>
<path fill="none" stroke="black" d="M511.501,-104.666C430.681,-88.5019 264.873,-55.3401 176.557,-37.6769"/>
<polygon fill="black" stroke="black" points="177.192,-34.2348 166.7,-35.7056 175.82,-41.0989 177.192,-34.2348"/>
</g>
<!-- PRNT -->
<g id="node30" class="node"><title>PRNT</title>
<ellipse fill="none" stroke="black" cx="404.172" cy="-26" rx="56.0679" ry="26.163"/>
<text text-anchor="middle" x="404.172" y="-18.9" font-family="Times Roman,serif" font-size="24.00">PRNT</text>
</g>
<!-- CCM&#45;&gt;PRNT -->
<g id="edge32" class="edge"><title>CCM&#45;&gt;PRNT</title>
<path fill="none" stroke="black" d="M524.376,-94.688C502.079,-81.947 472.636,-65.1225 448.471,-51.3137"/>
<polygon fill="black" stroke="black" points="449.913,-48.1064 439.494,-46.1838 446.44,-54.1841 449.913,-48.1064"/>
</g>
<!-- MONT -->
<g id="node32" class="node"><title>MONT</title>
<ellipse fill="none" stroke="black" cx="715.172" cy="-26" rx="62.9325" ry="26.163"/>
<text text-anchor="middle" x="715.172" y="-18.9" font-family="Times Roman,serif" font-size="24.00">MONT</text>
</g>
<!-- CCM&#45;&gt;MONT -->
<g id="edge34" class="edge"><title>CCM&#45;&gt;MONT</title>
<path fill="none" stroke="black" d="M592.239,-94.9053C614.648,-82.3445 644.262,-65.746 668.808,-51.9875"/>
<polygon fill="black" stroke="black" points="670.588,-55.0024 677.599,-47.0598 667.165,-48.8962 670.588,-55.0024"/>
</g>
<!-- CAM -->
<g id="node34" class="node"><title>CAM</title>
<ellipse fill="none" stroke="black" cx="1012.17" cy="-26" rx="50.2046" ry="26.163"/>
<text text-anchor="middle" x="1012.17" y="-18.9" font-family="Times Roman,serif" font-size="24.00">CAM</text>
</g>
<!-- CCM&#45;&gt;CAM -->
<g id="edge36" class="edge"><title>CCM&#45;&gt;CAM</title>
<path fill="none" stroke="black" d="M605.048,-104.914C689.011,-88.6392 864.733,-54.5784 955.385,-37.0073"/>
<polygon fill="black" stroke="black" points="956.06,-40.4415 965.211,-35.1025 954.728,-33.5694 956.06,-40.4415"/>
</g>
</g>
</svg>
