<?xml version="1.0" encoding="UTF-8" standalone="no"?>
<!DOCTYPE svg PUBLIC "-//W3C//DTD SVG 1.1//EN"
 "http://www.w3.org/Graphics/SVG/1.1/DTD/svg11.dtd">
<!-- Generated by graphviz version 2.38.0 (20140413.2041)
 -->
<!-- Title: structs Pages: 1 -->
<svg width="120pt" height="191pt"
 viewBox="0.00 0.00 120.00 191.00" xmlns="http://www.w3.org/2000/svg" xmlns:xlink="http://www.w3.org/1999/xlink">
<g id="graph0" class="graph" transform="scale(1 1) rotate(0) translate(4 187)">
<title>structs</title>
<polygon fill="white" stroke="none" points="-4,4 -4,-187 116,-187 116,4 -4,4"/>
<!-- struct1 -->
<g id="node1" class="node"><title>struct1</title>
<polygon fill="none" stroke="black" points="10,-146.5 10,-182.5 102,-182.5 102,-146.5 10,-146.5"/>
<text text-anchor="middle" x="56" y="-160.8" font-family="Times,serif" font-size="14.00">AAAA RRset</text>
</g>
<!-- struct2 -->
<g id="node2" class="node"><title>struct2</title>
<polygon fill="none" stroke="black" points="29,-73.5 29,-109.5 83,-109.5 83,-73.5 29,-73.5"/>
<text text-anchor="middle" x="56" y="-87.8" font-family="Times,serif" font-size="14.00">ZSK</text>
</g>
<!-- struct1&#45;&gt;struct2 -->
<g id="edge1" class="edge"><title>struct1&#45;&gt;struct2</title>
<path fill="none" stroke="black" d="M56,-146.313C56,-135.15 56,-120.66 56,-109.529"/>
</g>
<!-- struct3 -->
<g id="node3" class="node"><title>struct3</title>
<polygon fill="none" stroke="black" points="-7.10543e-15,-0.5 -7.10543e-15,-36.5 112,-36.5 112,-0.5 -7.10543e-15,-0.5"/>
<text text-anchor="middle" x="56" y="-14.8" font-family="Times,serif" font-size="14.00">RRSIG Signature</text>
</g>
<!-- struct2&#45;&gt;struct3 -->
<g id="edge2" class="edge"><title>struct2&#45;&gt;struct3</title>
<path fill="none" stroke="black" d="M56,-73.3129C56,-65.2895 56,-55.5475 56,-46.5691"/>
<polygon fill="black" stroke="black" points="59.5001,-46.5288 56,-36.5288 52.5001,-46.5289 59.5001,-46.5288"/>
</g>
</g>
</svg>
