<?xml version="1.0" encoding="UTF-8" standalone="no"?>
<!DOCTYPE svg PUBLIC "-//W3C//DTD SVG 1.1//EN"
 "http://www.w3.org/Graphics/SVG/1.1/DTD/svg11.dtd">
<!-- Generated by graphviz version 2.26.3 (20100126.1600)
 -->
<!-- Title: structs Pages: 1 -->
<svg width="184pt" height="120pt"
 viewBox="0.00 0.00 184.00 120.00" xmlns="http://www.w3.org/2000/svg" xmlns:xlink="http://www.w3.org/1999/xlink">
<g id="graph1" class="graph" transform="scale(1 1) rotate(0) translate(4 116)">
<title>structs</title>
<polygon fill="white" stroke="white" points="-4,5 -4,-116 181,-116 181,5 -4,5"/>
<!-- struct1 -->
<g id="node1" class="node"><title>struct1</title>
<polygon fill="none" stroke="black" points="59,-75 59,-111 161,-111 161,-75 59,-75"/>
<text text-anchor="middle" x="110" y="-88.9" font-family="Times Roman,serif" font-size="14.00">AAAA RRset</text>
</g>
<!-- struct2 -->
<g id="node2" class="node"><title>struct2</title>
<polygon fill="none" stroke="black" points="0,-1 0,-37 176,-37 176,-1 0,-1"/>
<text text-anchor="middle" x="22" y="-14.9" font-family="Times Roman,serif" font-size="14.00">ZSK</text>
<polyline fill="none" stroke="black" points="44,-1 44,-37 "/>
<text text-anchor="middle" x="110" y="-14.9" font-family="Times Roman,serif" font-size="14.00">RRSIG Signature</text>
</g>
<!-- struct1&#45;&gt;struct2 -->
<g id="edge2" class="edge"><title>struct1&#45;&gt;struct2:f1</title>
<path fill="none" stroke="black" stroke-dasharray="1,5" d="M110,-74.8415C110,-66.7077 110,-56.7649 110,-47.0116"/>
<polygon fill="black" stroke="black" points="113.5,-47 110,-37 106.5,-47 113.5,-47"/>
</g>
</g>
</svg>
