<?xml version="1.0" encoding="UTF-8" standalone="no"?>
<!DOCTYPE svg PUBLIC "-//W3C//DTD SVG 1.1//EN"
 "http://www.w3.org/Graphics/SVG/1.1/DTD/svg11.dtd">
<!-- Generated by graphviz version 2.26.3 (20100126.1600)
 -->
<!-- Title: structs Pages: 1 -->
<svg width="140pt" height="194pt"
 viewBox="0.00 0.00 140.00 194.00" xmlns="http://www.w3.org/2000/svg" xmlns:xlink="http://www.w3.org/1999/xlink">
<g id="graph1" class="graph" transform="scale(1 1) rotate(0) translate(4 190)">
<title>structs</title>
<polygon fill="white" stroke="white" points="-4,5 -4,-190 137,-190 137,5 -4,5"/>
<!-- struct1 -->
<g id="node1" class="node"><title>struct1</title>
<polygon fill="none" stroke="black" points="15,-149 15,-185 117,-185 117,-149 15,-149"/>
<text text-anchor="middle" x="66" y="-162.9" font-family="Times Roman,serif" font-size="14.00">AAAA RRset</text>
</g>
<!-- struct2 -->
<g id="node2" class="node"><title>struct2</title>
<polygon fill="none" stroke="black" points="39,-75 39,-111 93,-111 93,-75 39,-75"/>
<text text-anchor="middle" x="66" y="-88.9" font-family="Times Roman,serif" font-size="14.00">ZSK</text>
</g>
<!-- struct1&#45;&gt;struct2 -->
<g id="edge2" class="edge"><title>struct1&#45;&gt;struct2</title>
<path fill="none" stroke="black" d="M66,-148.708C66,-137.238 66,-122.512 66,-111.082"/>
</g>
<!-- struct3 -->
<g id="node3" class="node"><title>struct3</title>
<polygon fill="none" stroke="black" points="0,-1 0,-37 132,-37 132,-1 0,-1"/>
<text text-anchor="middle" x="66" y="-14.9" font-family="Times Roman,serif" font-size="14.00">RRSIG Signature</text>
</g>
<!-- struct2&#45;&gt;struct3 -->
<g id="edge4" class="edge"><title>struct2&#45;&gt;struct3</title>
<path fill="none" stroke="black" d="M66,-74.7079C66,-66.4635 66,-56.5376 66,-47.3622"/>
<polygon fill="black" stroke="black" points="69.5001,-47.0817 66,-37.0817 62.5001,-47.0818 69.5001,-47.0817"/>
</g>
</g>
</svg>
