<?xml version="1.0" encoding="UTF-8" standalone="no"?>
<!DOCTYPE svg PUBLIC "-//W3C//DTD SVG 1.1//EN"
 "http://www.w3.org/Graphics/SVG/1.1/DTD/svg11.dtd">
<!-- Generated by graphviz version 2.26.3 (20100126.1600)
 -->
<!-- Title: structs Pages: 1 -->
<svg width="428pt" height="194pt"
 viewBox="0.00 0.00 428.00 194.00" xmlns="http://www.w3.org/2000/svg" xmlns:xlink="http://www.w3.org/1999/xlink">
<g id="graph1" class="graph" transform="scale(1 1) rotate(0) translate(4 190)">
<title>structs</title>
<polygon fill="white" stroke="white" points="-4,5 -4,-190 425,-190 425,5 -4,5"/>
<!-- resolve -->
<g id="node1" class="node"><title>resolve</title>
<polygon fill="none" stroke="black" points="140,-75 140,-111 250,-111 250,-75 140,-75"/>
<text text-anchor="middle" x="195" y="-88.9" font-family="Times Roman,serif" font-size="14.00">DNS Resolver</text>
</g>
<!-- verified -->
<g id="node5" class="node"><title>verified</title>
<polygon fill="none" stroke="black" points="116,-1 116,-37 274,-37 274,-1 116,-1"/>
<text text-anchor="middle" x="195" y="-14.9" font-family="Times Roman,serif" font-size="14.00">Verified AAAA RRset</text>
</g>
<!-- resolve&#45;&gt;verified -->
<g id="edge8" class="edge"><title>resolve&#45;&gt;verified</title>
<path fill="none" stroke="black" d="M195,-74.7079C195,-66.4635 195,-56.5376 195,-47.3622"/>
<polygon fill="black" stroke="black" points="198.5,-47.0817 195,-37.0817 191.5,-47.0818 198.5,-47.0817"/>
</g>
<!-- struct1 -->
<g id="node2" class="node"><title>struct1</title>
<polygon fill="none" stroke="black" points="0,-149 0,-185 102,-185 102,-149 0,-149"/>
<text text-anchor="middle" x="51" y="-162.9" font-family="Times Roman,serif" font-size="14.00">AAAA RRset</text>
</g>
<!-- struct1&#45;&gt;resolve -->
<g id="edge2" class="edge"><title>struct1&#45;&gt;resolve</title>
<path fill="none" stroke="black" stroke-dasharray="1,5" d="M86.2264,-148.898C105.665,-138.909 129.991,-126.407 150.706,-115.762"/>
<polygon fill="black" stroke="black" points="152.344,-118.856 159.638,-111.172 149.144,-112.63 152.344,-118.856"/>
</g>
<!-- struct2 -->
<g id="node3" class="node"><title>struct2</title>
<polygon fill="none" stroke="black" points="119.5,-149 119.5,-185 270.5,-185 270.5,-149 119.5,-149"/>
<text text-anchor="middle" x="195" y="-162.9" font-family="Times Roman,serif" font-size="14.00">DNSKEY Public ZSK</text>
</g>
<!-- struct2&#45;&gt;resolve -->
<g id="edge4" class="edge"><title>struct2&#45;&gt;resolve</title>
<path fill="none" stroke="black" stroke-dasharray="1,5" d="M195,-148.708C195,-140.464 195,-130.538 195,-121.362"/>
<polygon fill="black" stroke="black" points="198.5,-121.082 195,-111.082 191.5,-121.082 198.5,-121.082"/>
</g>
<!-- struct3 -->
<g id="node4" class="node"><title>struct3</title>
<polygon fill="none" stroke="black" points="288,-149 288,-185 420,-185 420,-149 288,-149"/>
<text text-anchor="middle" x="354" y="-162.9" font-family="Times Roman,serif" font-size="14.00">RRSIG Signature</text>
</g>
<!-- struct3&#45;&gt;resolve -->
<g id="edge6" class="edge"><title>struct3&#45;&gt;resolve</title>
<path fill="none" stroke="black" stroke-dasharray="1,5" d="M315.104,-148.898C293.368,-138.781 266.096,-126.089 243.036,-115.356"/>
<polygon fill="black" stroke="black" points="244.313,-112.09 233.769,-111.044 241.359,-118.436 244.313,-112.09"/>
</g>
</g>
</svg>
