<svg width="452" height="133pt" viewBox="0 0 338.5 133" xmlns="http://www.w3.org/2000/svg"><g class="graph"><path fill="#fff" d="M0 133V0h338.5v133H0z"/><g class="node"><path fill="none" stroke="#000" d="M4 40.5v-36h229v36H4z"/><text text-anchor="middle" x="41.5" y="-102.8" font-family="Times,serif" font-size="14" transform="translate(4 129)">Parent Zone</text><path fill="none" stroke="#000" d="M87 40.5v-36"/><text text-anchor="middle" x="156" y="-102.8" font-family="Times,serif" font-size="14" transform="translate(4 129)">DNSKEY Hashed KSK</text></g><g class="node"><path fill="none" stroke="#000" d="M6.5 128.5v-36h328v36H6.5z"/><text text-anchor="middle" x="41.5" y="-14.8" font-family="Times,serif" font-size="14" transform="translate(4 129)">Child Zone</text><path fill="none" stroke="#000" d="M84.5 128.5v-36"/><text text-anchor="middle" x="150.5" y="-14.8" font-family="Times,serif" font-size="14" transform="translate(4 129)">DNSKEY Public KSK</text><path fill="none" stroke="#000" d="M224.5 128.5v-36"/><text text-anchor="middle" x="275.5" y="-14.8" font-family="Times,serif" font-size="14" transform="translate(4 129)">CDS/CDNSKEY</text></g><g class="edge"><path fill="none" stroke="#000" stroke-dasharray="1,5" d="M45.5 41v40.647"/><path stroke="#000" d="M49 82l-3.5 10L42 82h7z"/><text text-anchor="middle" x="59" y="-58.8" font-family="Times,serif" font-size="14" transform="translate(4 129)">Check</text></g><g class="edge" stroke="#000"><path fill="none" d="M154.5 92c0-18.9 4.115-25.82 5.529-40.603"/><path d="M156.551 50.831L160.5 41l3.044 10.148-6.993-.317z"/></g><g class="edge"><path fill="none" stroke="#000" d="M279.5 92c0-33.205-6.678-63.074-35.018-68.591"/><path stroke="#000" d="M244.141 26.893L234.5 22.5l10.276-2.579-.635 6.972z"/><text text-anchor="middle" x="294.5" y="-58.8" font-family="Times,serif" font-size="14" transform="translate(4 129)">Update</text></g></g></svg>