<svg width="744" height="191pt" viewBox="0 0 558 191" xmlns="http://www.w3.org/2000/svg"><g class="graph" transform="translate(4 187)"><path fill="#fff" d="M-4 4v-191h558V4H-4z"/><g class="node"><path fill="none" stroke="#000" d="M256-73.5v-36h188v36H256z"/><text text-anchor="middle" x="350" y="-87.8" font-family="Times,serif" font-size="14">DNSKEY Verified Public ZSK</text></g><g class="node"><path fill="none" stroke="#000" d="M111.5-.5v-36h141v36h-141z"/><text text-anchor="middle" x="182" y="-14.8" font-family="Times,serif" font-size="14">Verified AAAA RRset</text></g><g class="edge"><path fill="none" stroke="#000" stroke-dasharray="1,5" d="M309.76-73.494l-77.992 32.961"/><path stroke="#000" d="M233.068-37.282l-10.574.668 7.849-7.116 2.725 6.447z"/></g><g class="node"><path fill="none" stroke="#000" d="M154-146.5v-36h108v36H154z"/><text text-anchor="middle" x="208" y="-160.8" font-family="Times,serif" font-size="14">DNSKEY RRset</text></g><g class="edge"><path fill="none" stroke="#000" stroke-dasharray="1,5" d="M242.013-146.494l64.806 32.404"/><path stroke="#000" d="M308.394-117.216l7.379 7.602-10.51-1.341 3.131-6.261z"/></g><g class="node"><path fill="none" stroke="#000" d="M280-146.5v-36h140v36H280z"/><text text-anchor="middle" x="350" y="-160.8" font-family="Times,serif" font-size="14">DNSKEY Public KSK</text></g><g class="edge"><path fill="none" stroke="#000" stroke-dasharray="1,5" d="M350-146.313v26.744"/><path stroke="#000" d="M353.5-119.529l-3.5 10-3.5-10h7z"/></g><g class="node"><path fill="none" stroke="#000" d="M438-146.5v-36h112v36H438z"/><text text-anchor="middle" x="494" y="-160.8" font-family="Times,serif" font-size="14">RRSIG Signature</text></g><g class="edge"><path fill="none" stroke="#000" stroke-dasharray="1,5" d="M459.508-146.494l-65.719 32.404"/><path stroke="#000" d="M395.226-110.897l-10.517 1.283 7.421-7.561 3.096 6.278z"/></g><g class="node"><path fill="none" stroke="#000" d="M0-73.5v-36h108v36H0z"/><text text-anchor="middle" x="54" y="-87.8" font-family="Times,serif" font-size="14">DNSKEY RRset</text></g><g class="edge"><path fill="none" stroke="#000" stroke-dasharray="1,5" d="M84.66-73.494l57.658 31.983"/><path stroke="#000" d="M144.1-44.525l7.047 7.911-10.442-1.79 3.395-6.12z"/></g><g class="node"><path fill="none" stroke="#000" d="M126-73.5v-36h112v36H126z"/><text text-anchor="middle" x="182" y="-87.8" font-family="Times,serif" font-size="14">RRSIG Signature</text></g><g class="edge"><path fill="none" stroke="#000" stroke-dasharray="1,5" d="M182-73.313v26.744"/><path stroke="#000" d="M185.5-46.529l-3.5 10-3.5-10h7z"/></g></g></svg>