<svg width="416" height="118pt" viewBox="0 0 311.5 118" xmlns="http://www.w3.org/2000/svg"><g class="graph" transform="translate(4 114)"><path fill="#fff" d="M-4 4v-118h311.5V4H-4z"/><g class="node"><path fill="none" stroke="#000" d="M0-73.5v-36h168v36H0z"/><text text-anchor="middle" x="28" y="-87.8" font-family="Times,serif" font-size="14">AAAA</text><path fill="none" stroke="#000" d="M56-73.5v-36"/><text text-anchor="middle" x="84" y="-87.8" font-family="Times,serif" font-size="14">AAAA</text><path fill="none" stroke="#000" d="M112-73.5v-36"/><text text-anchor="middle" x="140" y="-87.8" font-family="Times,serif" font-size="14">AAAA</text></g><g class="node"><path fill="none" stroke="#000" d="M38-.5v-36h92v36H38z"/><text text-anchor="middle" x="84" y="-14.8" font-family="Times,serif" font-size="14">AAAA RRset</text></g><g class="edge"><path fill="none" stroke="#000" d="M84-73.313v26.744"/><path stroke="#000" d="M87.5-46.529l-3.5 10-3.5-10h7z"/></g><g class="node"><path fill="none" stroke="#000" d="M186.5-73.5v-36h117v36h-117z"/><text text-anchor="middle" x="206" y="-87.8" font-family="Times,serif" font-size="14">MX</text><path fill="none" stroke="#000" d="M225.5-73.5v-36"/><text text-anchor="middle" x="245" y="-87.8" font-family="Times,serif" font-size="14">MX</text><path fill="none" stroke="#000" d="M264.5-73.5v-36"/><text text-anchor="middle" x="284" y="-87.8" font-family="Times,serif" font-size="14">MX</text></g><g class="node"><path fill="none" stroke="#000" d="M207-.5v-36h76v36h-76z"/><text text-anchor="middle" x="245" y="-14.8" font-family="Times,serif" font-size="14">MX RRset</text></g><g class="edge"><path fill="none" stroke="#000" d="M245-73.313v26.744"/><path stroke="#000" d="M248.5-46.529l-3.5 10-3.5-10h7z"/></g></g></svg>