<svg width="533pt" height="692pt" viewBox="0 0 533 692" xmlns="http://www.w3.org/2000/svg"><g class="graph" transform="translate(4 688)"><path fill="#fff" stroke="#fff" d="M-4 5v-693h534V5H-4z"/><g class="node"><path fill="none" stroke="#000" d="M228-684H106v36h122v-36z"/><text text-anchor="middle" x="167" y="-661.9" font-family="Times Roman,serif" font-size="14">Version Control</text></g><g class="node"><path fill="none" stroke="#000" d="M269-612H65v36h204v-36z"/><text text-anchor="middle" x="167" y="-589.9" font-family="Times Roman,serif" font-size="14">Configuration Management</text></g><g class="edge"><path fill="none" stroke="#000" d="M167-647.831v25.414"/><path stroke="#000" d="M170.5-622.413l-3.5 10-3.5-10h7z"/></g><g class="node"><path fill="none" stroke="#000" d="M165-540H5v36h160v-36z"/><text text-anchor="middle" x="85" y="-517.9" font-family="Times Roman,serif" font-size="14">Ad-Hoc Change Tools</text></g><g class="edge"><path fill="none" stroke="#000" d="M146.308-575.831L113.3-546.849"/><path stroke="#000" d="M115.509-544.131l-9.824 3.968 5.206-9.228 4.618 5.26z"/></g><g class="node"><path fill="none" stroke="#000" d="M315-540H183v36h132v-36z"/><text text-anchor="middle" x="249" y="-517.9" font-family="Times Roman,serif" font-size="14">Host Install Tools</text></g><g class="edge"><path fill="none" stroke="#000" d="M187.692-575.831l33.008 28.982"/><path stroke="#000" d="M223.109-549.391l5.206 9.228-9.824-3.968 4.618-5.26z"/></g><g class="node"><path fill="none" stroke="#000" d="M236-468H98v36h138v-36z"/><text text-anchor="middle" x="167" y="-445.9" font-family="Times Roman,serif" font-size="14">Directory Servers</text></g><g class="edge"><path fill="none" stroke="#000" d="M105.692-503.831l33.008 28.982"/><path stroke="#000" d="M141.109-477.391l5.206 9.228-9.824-3.968 4.618-5.26z"/></g><g class="edge"><path fill="none" stroke="#000" d="M228.308-503.831L195.3-474.849"/><path stroke="#000" d="M197.509-472.131l-9.824 3.968 5.206-9.228 4.618 5.26z"/></g><g class="node"><path fill="none" stroke="#000" d="M176-396H0v36h176v-36z"/><text text-anchor="middle" x="88" y="-373.9" font-family="Times Roman,serif" font-size="14">Authentication Servers</text></g><g class="edge"><path fill="none" stroke="#000" d="M147.065-431.831l-31.496 28.704"/><path stroke="#000" d="M117.677-400.312l-9.748 4.149 5.033-9.323 4.715 5.174z"/></g><g class="node"><path fill="none" stroke="#000" d="M300-396H194v36h106v-36z"/><text text-anchor="middle" x="247" y="-373.9" font-family="Times Roman,serif" font-size="14">Time Servers</text></g><g class="edge"><path fill="none" stroke="#000" d="M187.187-431.831l31.895 28.704"/><path stroke="#000" d="M221.728-405.454l5.091 9.291-9.774-4.088 4.683-5.203z"/></g><g class="node"><path fill="none" stroke="#000" d="M168-324H8v36h160v-36z"/><text text-anchor="middle" x="88" y="-301.9" font-family="Times Roman,serif" font-size="14">Network File Servers</text></g><g class="edge"><path fill="none" stroke="#000" d="M88-359.831v25.414"/><path stroke="#000" d="M91.5-334.413l-3.5 10-3.5-10h7z"/></g><g class="edge"><path fill="none" stroke="#000" d="M206.878-359.831l-69.708 31.565"/><path stroke="#000" d="M138.387-324.975l-10.553.937 7.666-7.313 2.887 6.376z"/></g><g class="node"><path fill="none" stroke="#000" d="M362-324H186v36h176v-36z"/><text text-anchor="middle" x="274" y="-301.9" font-family="Times Roman,serif" font-size="14">File Replication Servers</text></g><g class="edge"><path fill="none" stroke="#000" d="M253.813-359.831l9.742 25.978"/><path stroke="#000" d="M266.861-335.006l.234 10.593-6.788-8.135 6.554-2.458z"/></g><g class="node"><path fill="none" stroke="#000" d="M248-252H114v36h134v-36z"/><text text-anchor="middle" x="181" y="-229.9" font-family="Times Roman,serif" font-size="14">Client File Access</text></g><g class="edge"><path fill="none" stroke="#000" d="M111.468-287.831a853817.85 853817.85 0 0 1 38.15 29.536"/><path stroke="#000" d="M151.775-261.052l5.765 8.889-10.05-3.354 4.285-5.535z"/></g><g class="edge"><path fill="none" stroke="#000" d="M250.532-287.831a853817.85 853817.85 0 0 0-38.15 29.536"/><path stroke="#000" d="M214.51-255.517l-10.05 3.354 5.765-8.889 4.285 5.535z"/></g><g class="node"><path fill="none" stroke="#000" d="M249-180H113v36h136v-36z"/><text text-anchor="middle" x="181" y="-157.9" font-family="Times Roman,serif" font-size="14">Client OS Update</text></g><g class="edge"><path fill="none" stroke="#000" d="M181-215.831v25.414"/><path stroke="#000" d="M184.5-190.413l-3.5 10-3.5-10h7z"/></g><g class="node"><path fill="none" stroke="#000" d="M306-108H56v36h250v-36z"/><text text-anchor="middle" x="181" y="-85.9" font-family="Times Roman,serif" font-size="14">Client Configuration Management</text></g><g class="edge"><path fill="none" stroke="#000" d="M181-143.831v25.414"/><path stroke="#000" d="M184.5-118.413l-3.5 10-3.5-10h7z"/></g><g class="node"><path fill="none" stroke="#000" d="M79-36H25V0h54v-36z"/><text text-anchor="middle" x="52" y="-13.9" font-family="Times Roman,serif" font-size="14">Mail</text></g><g class="edge"><path fill="none" stroke="#000" d="M148.448-71.831c-18.345 10.239-41.303 23.052-60.217 33.61"/><path stroke="#000" d="M89.746-35.06l-10.438 1.818 7.026-7.93 3.412 6.113z"/></g><g class="node"><path fill="none" stroke="#000" d="M167-36H97V0h70v-36z"/><text text-anchor="middle" x="132" y="-13.9" font-family="Times Roman,serif" font-size="14">Printing</text></g><g class="edge"><path fill="none" stroke="#000" d="M168.635-71.831l-18.442 27.099"/><path stroke="#000" d="M153.051-42.711l-8.52 6.298 2.733-10.237 5.787 3.939z"/></g><g class="node"><path fill="none" stroke="#000" d="M275-36h-90V0h90v-36z"/><text text-anchor="middle" x="230" y="-13.9" font-family="Times Roman,serif" font-size="14">Monitoring</text></g><g class="edge"><path fill="none" stroke="#000" d="M193.365-71.831l18.442 27.099"/><path stroke="#000" d="M214.736-46.65l2.733 10.237-8.52-6.298 5.787-3.939z"/></g><g class="node"><path fill="none" stroke="#000" d="M525-36H293V0h232v-36z"/><text text-anchor="middle" x="409" y="-13.9" font-family="Times Roman,serif" font-size="14">Client Application Management</text></g><g class="edge"><path fill="none" stroke="#000" d="M238.24-71.924l103.931 32.82"/><path stroke="#000" d="M343.255-42.432l8.482 6.349-10.59.326 2.108-6.675z"/></g></g></svg>